<svg width="70" height="70" viewBox="0 0 70 70" fill="none" xmlns="http://www.w3.org/2000/svg">
<path d="M35 13.4368C34.44 13.4368 33.8926 13.6029 33.427 13.914C32.9614 14.2251 32.5985 14.6673 32.3842 15.1846C32.1699 15.702 32.1139 16.2713 32.2231 16.8205C32.3324 17.3697 32.602 17.8742 32.998 18.2702C33.3939 18.6661 33.8984 18.9358 34.4476 19.045C34.9969 19.1543 35.5661 19.0982 36.0835 18.8839C36.6009 18.6696 37.043 18.3067 37.3542 17.8411C37.6653 17.3755 37.8313 16.8281 37.8313 16.2681C37.8305 15.5175 37.5319 14.7978 37.0011 14.267C36.4703 13.7362 35.7507 13.4377 35 13.4368ZM35 17.4588C34.7645 17.4588 34.5343 17.389 34.3385 17.2582C34.1427 17.1273 33.9901 16.9414 33.9 16.7238C33.8098 16.5062 33.7863 16.2668 33.8322 16.0358C33.8781 15.8049 33.9915 15.5927 34.1581 15.4262C34.3246 15.2597 34.5367 15.1463 34.7677 15.1003C34.9987 15.0544 35.2381 15.078 35.4557 15.1681C35.6732 15.2582 35.8592 15.4108 35.99 15.6066C36.1209 15.8024 36.1907 16.0326 36.1907 16.2681C36.1904 16.5838 36.0648 16.8865 35.8416 17.1098C35.6184 17.333 35.3157 17.4586 35 17.459V17.4588Z" fill="#28DF99"/>
<path d="M68.8685 42.9297H67.5207L58.923 22.3822C59.8625 22.2154 60.7507 21.8335 61.5181 21.2664C62.2854 20.6993 62.9112 19.9624 63.3464 19.1133C63.4676 18.8732 63.6658 18.6807 63.9092 18.5664C64.4228 18.3167 64.8176 17.8751 65.0086 17.3369C65.1996 16.7987 65.1715 16.207 64.9302 15.6894C64.6889 15.1718 64.2539 14.7697 63.7189 14.5699C63.1839 14.3701 62.5918 14.3886 62.0703 14.6214C60.9563 15.1439 60.0462 16.0201 59.4818 17.1135C59.331 17.4158 59.0997 17.6706 58.8134 17.8499C58.5271 18.0293 58.1969 18.1262 57.8591 18.13C57.5197 18.1221 57.189 18.0214 56.9029 17.8387C56.6169 17.6559 56.3864 17.3983 56.2365 17.0937C55.7818 16.1941 55.0881 15.4371 54.2316 14.9059C53.375 14.3746 52.3886 14.0896 51.3807 14.082H40.0624C39.5489 12.8516 38.5547 11.9294 37.4609 11.3461V5.57935C37.4589 5.47227 37.4356 5.36666 37.3925 5.26862C37.3494 5.17059 37.2872 5.08209 37.2097 5.00823C37.1321 4.93437 37.0407 4.87663 36.9406 4.83833C36.8406 4.80004 36.734 4.78196 36.627 4.78515H33.373C33.266 4.78196 33.1594 4.80004 33.0594 4.83833C32.9593 4.87663 32.8679 4.93437 32.7903 5.00823C32.7128 5.08209 32.6506 5.17059 32.6075 5.26862C32.5644 5.36666 32.5411 5.47227 32.5391 5.57935V11.3461C31.4453 11.9294 30.4511 12.8516 29.9376 14.082H18.6296C17.6229 14.0895 16.6377 14.3738 15.7818 14.9039C14.926 15.4341 14.2326 16.1895 13.7776 17.0875C13.6302 17.3941 13.3995 17.6531 13.112 17.8349C12.8244 18.0166 12.4915 18.1139 12.1513 18.1154C11.8112 18.117 11.4774 18.0229 11.1882 17.8437C10.8989 17.6646 10.6659 17.4078 10.5157 17.1025C9.95162 16.0126 9.04322 15.1396 7.93174 14.6192C7.67251 14.4983 7.39201 14.4297 7.10625 14.4172C6.82049 14.4047 6.53508 14.4487 6.2663 14.5465C5.72348 14.7441 5.28139 15.1492 5.03727 15.6727C4.79315 16.1963 4.767 16.7954 4.96458 17.3382C5.16216 17.881 5.56728 18.3231 6.09082 18.5672C6.3332 18.681 6.53053 18.8726 6.65137 19.1115C7.08751 19.9605 7.71391 20.6973 8.48169 21.2644C9.24947 21.8316 10.1379 22.2136 11.0776 22.3808L2.47926 42.9297H1.13148C0.910703 42.9268 0.697508 43.0102 0.537259 43.1621C0.377011 43.314 0.282357 43.5224 0.273438 43.743V44.5804C0.273438 51.1284 5.61996 56.4555 12.168 56.4555C18.716 56.4555 24.0625 51.1284 24.0625 44.5804V43.743C24.0622 43.6356 24.0407 43.5293 23.9993 43.4302C23.9578 43.3311 23.8971 43.2412 23.8208 43.1656C23.7444 43.09 23.6539 43.0303 23.5544 42.9898C23.4549 42.9493 23.3484 42.9289 23.241 42.9297H21.8933L13.2891 22.3672C14.2146 22.1887 15.0874 21.802 15.8414 21.2364C16.5954 20.6707 17.2108 19.941 17.6411 19.1023C17.7311 18.9147 17.8709 18.7553 18.0451 18.6415C18.2194 18.5278 18.4216 18.4639 18.6296 18.457H29.9648C30.4806 19.6386 31.3904 20.6046 32.5391 21.1902V47.4414H31.881C31.6609 47.4403 31.4491 47.5254 31.291 47.6786C31.1328 47.8318 31.041 48.0408 31.0352 48.2609V54.6875H26.2816C26.0558 54.6975 25.8422 54.7929 25.684 54.9544C25.5258 55.1159 25.4349 55.3314 25.4297 55.5574V58.9258H22.1257C22.0218 58.9209 21.918 58.9373 21.8206 58.9741C21.7233 59.0108 21.6345 59.0671 21.5598 59.1395C21.4851 59.2119 21.426 59.2989 21.3861 59.395C21.3463 59.4911 21.3265 59.5943 21.3281 59.6984V64.4206C21.3261 64.5258 21.3453 64.6302 21.3848 64.7278C21.4242 64.8253 21.4829 64.9138 21.5574 64.988C21.6319 65.0622 21.7207 65.1205 21.8184 65.1595C21.9161 65.1985 22.0206 65.2173 22.1257 65.2148H47.7386C47.8437 65.2173 47.9482 65.1984 48.0458 65.1594C48.1434 65.1204 48.2321 65.062 48.3065 64.9878C48.3809 64.9136 48.4396 64.8251 48.4789 64.7276C48.5182 64.6301 48.5373 64.5257 48.5352 64.4206V59.6984C48.5369 59.5944 48.5172 59.4912 48.4775 59.3951C48.4378 59.299 48.3787 59.2121 48.3041 59.1397C48.2295 59.0673 48.1408 59.0109 48.0435 58.9742C47.9463 58.9374 47.8425 58.9209 47.7386 58.9258H44.5703V55.5574C44.5651 55.3314 44.4742 55.1159 44.316 54.9544C44.1578 54.7929 43.9442 54.6975 43.7184 54.6875H38.9648V48.2609C38.959 48.0408 38.8672 47.8318 38.709 47.6786C38.5509 47.5254 38.3391 47.4403 38.119 47.4414H37.4609V21.1902C38.6096 20.6046 39.5194 19.6386 40.0352 18.457H51.3807C51.5893 18.4645 51.7918 18.5289 51.9664 18.6434C52.1409 18.7579 52.2807 18.9181 52.3705 19.1064C52.7992 19.9436 53.4128 20.6722 54.1648 21.2372C54.9168 21.8021 55.7875 22.1885 56.7109 22.3672L48.1067 42.9297H46.759C46.6516 42.9289 46.5451 42.9493 46.4456 42.9898C46.3461 43.0303 46.2556 43.09 46.1792 43.1656C46.1029 43.2412 46.0422 43.3311 46.0007 43.4302C45.9593 43.5293 45.9378 43.6356 45.9375 43.743V44.5804C45.9375 51.1284 51.284 56.4555 57.832 56.4555C64.38 56.4555 69.7266 51.1284 69.7266 44.5804V43.743C69.7176 43.5224 69.623 43.314 69.4627 43.1621C69.3025 43.0102 69.0893 42.9268 68.8685 42.9297ZM12.1863 54.8146C10.1199 54.8119 8.10265 54.1847 6.39901 53.0153C4.69536 51.8459 3.3849 50.1889 2.63949 48.2617H21.7329C20.9876 50.1889 19.6771 51.8459 17.9735 53.0153C16.2699 54.1847 14.2526 54.8119 12.1863 54.8146ZM22.4219 44.5703V44.5804C22.4204 45.2658 22.3514 45.9493 22.2158 46.6211H2.15674C2.00903 45.9505 1.92774 45.267 1.91406 44.5804V44.5703H22.4219ZM20.1147 42.9297H4.2577L12.1863 23.9844L20.1147 42.9297ZM18.6296 16.8164C18.1208 16.8227 17.6237 16.9689 17.1925 17.239C16.7613 17.5091 16.4128 17.8926 16.1852 18.3476C15.8079 19.0946 15.2309 19.7224 14.5184 20.1612C13.8058 20.6 12.9856 20.8327 12.1487 20.8334C11.3119 20.8341 10.4913 20.6028 9.77796 20.1652C9.06466 19.7276 8.48664 19.1008 8.10811 18.3545C7.81708 17.7891 7.34503 17.3376 6.7673 17.0719C6.67925 17.0261 6.60594 16.9563 6.55582 16.8706C6.5057 16.7849 6.48081 16.6868 6.48402 16.5875C6.4833 16.499 6.5052 16.4118 6.54765 16.3341C6.59009 16.2565 6.65168 16.1909 6.72656 16.1437C6.80246 16.0947 6.88961 16.0659 6.97977 16.06C7.06993 16.0541 7.1601 16.0714 7.24172 16.1101C8.02403 16.4782 8.66287 17.0943 9.05898 17.8628C9.34645 18.4365 9.78831 18.9186 10.3348 19.2548C10.8814 19.591 11.5109 19.7681 12.1526 19.766C12.7942 19.7639 13.4226 19.5828 13.9669 19.2431C14.5113 18.9033 14.95 18.4184 15.2338 17.8429C15.5509 17.2121 16.0355 16.6806 16.6344 16.3067C17.2333 15.9327 17.9235 15.7307 18.6296 15.7226H29.5254C29.5101 15.9961 29.5012 16.069 29.5012 16.2396C29.4999 16.4322 29.5095 16.6248 29.5302 16.8164H18.6296ZM34.1797 6.42577H35.8203V10.8291C35.2763 10.7494 34.7237 10.7494 34.1797 10.8291V6.42577ZM46.8945 60.5664V63.5742H22.9688V60.5664H46.8945ZM42.9297 56.3281V58.9258H27.0703V56.3281H42.9297ZM37.3242 49.082V54.6875H32.6758V49.082H37.3242ZM34.1797 47.4414V21.7072C34.7237 21.7869 35.2763 21.7869 35.8203 21.7072V47.4414H34.1797ZM35 20.1264C34.2369 20.1264 33.491 19.9001 32.8565 19.4761C32.222 19.0522 31.7275 18.4496 31.4355 17.7446C31.1435 17.0396 31.0671 16.2639 31.2159 15.5155C31.3648 14.767 31.7323 14.0796 32.2718 13.54C32.8114 13.0004 33.4989 12.633 34.2473 12.4841C34.9957 12.3352 35.7715 12.4116 36.4765 12.7036C37.1815 12.9957 37.784 13.4902 38.208 14.1247C38.6319 14.7591 38.8582 15.5051 38.8582 16.2682C38.8571 17.2911 38.4502 18.2718 37.7269 18.9951C37.0036 19.7184 36.0229 20.1252 35 20.1264ZM53.8274 18.352C53.5999 17.896 53.2513 17.5115 52.8197 17.2406C52.3881 16.9697 51.8902 16.823 51.3807 16.8164H40.4698C40.4905 16.6248 40.5001 16.4322 40.4988 16.2396C40.4988 16.069 40.4899 15.9961 40.4746 15.7226H51.3807C52.0876 15.731 52.7786 15.9338 53.378 16.3087C53.9774 16.6835 54.462 17.2161 54.779 17.8481C55.0631 18.4212 55.5013 18.9038 56.0445 19.2416C56.5876 19.5795 57.2142 19.7593 57.8539 19.7608C58.4935 19.7624 59.121 19.5856 59.6658 19.2504C60.2105 18.9151 60.6511 18.4347 60.938 17.863C61.3347 17.0929 61.9751 16.4757 62.7592 16.1075C62.8409 16.0689 62.931 16.0518 63.0211 16.058C63.1113 16.0641 63.1983 16.0931 63.274 16.1424C63.3486 16.1895 63.41 16.255 63.4524 16.3324C63.4947 16.4099 63.5166 16.4969 63.516 16.5852C63.5191 16.6851 63.4941 16.784 63.4438 16.8704C63.3934 16.9568 63.3198 17.0273 63.2313 17.0738C62.6529 17.3409 62.1806 17.7939 61.8896 18.3606C61.5132 19.1074 60.9367 19.7349 60.2244 20.173C59.5121 20.6111 58.6921 20.8426 57.8558 20.8417C57.0196 20.8408 56.2001 20.6075 55.4887 20.1679C54.7773 19.7283 54.2022 19.0996 53.8274 18.352ZM57.8137 23.9848L65.7423 42.9297H49.8853L57.8137 23.9848ZM57.8137 54.8149C55.7473 54.8121 53.73 54.1849 52.0264 53.0154C50.3228 51.846 49.0124 50.189 48.2671 48.2617H67.3605C66.6151 50.1889 65.3046 51.8459 63.601 53.0153C61.8974 54.1847 59.8801 54.8119 57.8137 54.8146V54.8149ZM68.0859 44.5804C68.0723 45.267 67.991 45.9505 67.8433 46.6211H47.7842C47.6486 45.9493 47.5796 45.2658 47.5781 44.5804V44.5703H68.0859V44.5804Z" fill="#28DF99"/>
</svg>
