<svg width="37" height="36" viewBox="0 0 37 36" fill="none" xmlns="http://www.w3.org/2000/svg">
<path d="M18.9924 6.32812C20.7372 6.32812 22.1565 4.9088 22.1565 3.16406C22.1565 1.41933 20.7372 0 18.9924 0C17.2477 0 15.8284 1.41933 15.8284 3.16406C15.8284 4.9088 17.2476 6.32812 18.9924 6.32812ZM18.9924 2.10938C19.5734 2.10938 20.0471 2.58216 20.0471 3.16406C20.0471 3.74597 19.5734 4.21875 18.9924 4.21875C18.4115 4.21875 17.9377 3.74597 17.9377 3.16406C17.9377 2.58216 18.4115 2.10938 18.9924 2.10938ZM21.1018 29.5312H16.8831C16.3001 29.5312 15.8284 30.003 15.8284 30.5859V32.8359C15.8284 34.5807 17.2477 36 18.9924 36C20.7372 36 22.1565 34.5807 22.1565 32.8359V30.5859C22.1565 30.003 21.6848 29.5312 21.1018 29.5312Z" fill="#F2F2F2"/>
<path d="M33.7581 29.5312C31.8918 29.5312 30.3097 28.1243 30.079 26.2601L28.4125 12.5502C27.8399 7.80096 23.79 4.21875 18.9924 4.21875C14.1949 4.21875 10.145 7.80096 9.57231 12.5492L7.90584 26.259C7.67514 28.1243 6.09311 29.5312 4.22681 29.5312C3.64385 29.5312 3.17212 30.003 3.17212 30.5859C3.17212 31.1689 3.64385 31.6406 4.22681 31.6406H33.7581C34.341 31.6406 34.8127 31.1689 34.8127 30.5859C34.8127 30.003 34.341 29.5312 33.7581 29.5312Z" fill="#F2C94C" fill-opacity="0.79"/>
</svg>
