<svg width="70" height="70" viewBox="0 0 70 70" fill="none" xmlns="http://www.w3.org/2000/svg">
<path d="M61.25 43.8652V13.125C61.25 10.1097 58.7965 7.65625 55.7812 7.65625H53.5938V5.46875C53.5938 3.65936 52.1219 2.1875 50.3125 2.1875C48.5031 2.1875 47.0312 3.65936 47.0312 5.46875V7.65625H41.5625V5.46875C41.5625 3.65936 40.0906 2.1875 38.2812 2.1875C36.4719 2.1875 35 3.65936 35 5.46875V7.65625H28.4375V5.46875C28.4375 3.65936 26.9656 2.1875 25.1562 2.1875C23.3469 2.1875 21.875 3.65936 21.875 5.46875V7.65625H16.4062V5.46875C16.4062 3.65936 14.9344 2.1875 13.125 2.1875C11.3156 2.1875 9.84375 3.65936 9.84375 5.46875V7.65625H7.65625C4.64096 7.65625 2.1875 10.1097 2.1875 13.125V56.875C2.1875 59.8903 4.64096 62.3438 7.65625 62.3438H44.4319C46.7055 66.2603 50.9355 68.9062 55.7812 68.9062C63.0188 68.9062 68.9062 63.0188 68.9062 55.7812C68.9062 50.4969 65.7611 45.944 61.25 43.8652ZM49.2188 5.46875C49.2188 4.86526 49.709 4.375 50.3125 4.375C50.916 4.375 51.4062 4.86526 51.4062 5.46875V12.0312C51.4062 12.6347 50.916 13.125 50.3125 13.125C49.709 13.125 49.2188 12.6347 49.2188 12.0312V5.46875ZM37.1875 5.46875C37.1875 4.86526 37.6778 4.375 38.2812 4.375C38.8847 4.375 39.375 4.86526 39.375 5.46875V12.0312C39.375 12.6347 38.8847 13.125 38.2812 13.125C37.6778 13.125 37.1875 12.6347 37.1875 12.0312V5.46875ZM24.0625 5.46875C24.0625 4.86526 24.5528 4.375 25.1562 4.375C25.7597 4.375 26.25 4.86526 26.25 5.46875V12.0312C26.25 12.6347 25.7597 13.125 25.1562 13.125C24.5528 13.125 24.0625 12.6347 24.0625 12.0312V5.46875ZM12.0312 5.46875C12.0312 4.86526 12.5215 4.375 13.125 4.375C13.7285 4.375 14.2188 4.86526 14.2188 5.46875V12.0312C14.2188 12.6347 13.7285 13.125 13.125 13.125C12.5215 13.125 12.0312 12.6347 12.0312 12.0312V5.46875ZM7.65625 9.84375H9.84375V12.0312C9.84375 13.8406 11.3156 15.3125 13.125 15.3125C14.9344 15.3125 16.4062 13.8406 16.4062 12.0312V9.84375H21.875V12.0312C21.875 13.8406 23.3469 15.3125 25.1562 15.3125C26.9656 15.3125 28.4375 13.8406 28.4375 12.0312V9.84375H35V12.0312C35 13.8406 36.4719 15.3125 38.2812 15.3125C40.0906 15.3125 41.5625 13.8406 41.5625 12.0312V9.84375H47.0312V12.0312C47.0312 13.8406 48.5031 15.3125 50.3125 15.3125C52.1219 15.3125 53.5938 13.8406 53.5938 12.0312V9.84375H55.7812C57.5906 9.84375 59.0625 11.3156 59.0625 13.125V18.5938H4.375V13.125C4.375 11.3156 5.84686 9.84375 7.65625 9.84375ZM7.65625 60.1562C5.84686 60.1562 4.375 58.6844 4.375 56.875V20.7812H59.0625V43.0881C58.0116 42.8161 56.9161 42.6562 55.7812 42.6562C55.0344 42.6562 54.3068 42.7334 53.5938 42.8538V37.1875C53.5938 36.583 53.1045 36.0938 52.5 36.0938H45.9375C45.333 36.0938 44.8438 36.583 44.8438 37.1875V43.75C44.8438 44.3545 45.333 44.8438 45.9375 44.8438H48.5416C44.9988 47.1965 42.6562 51.2186 42.6562 55.7812C42.6562 57.317 42.9351 58.7854 43.4219 60.1562H7.65625ZM51.4062 42.6562H47.0312V38.2812H51.4062V42.6562ZM55.7812 66.7188C49.7507 66.7188 44.8438 61.8118 44.8438 55.7812C44.8438 49.7507 49.7507 44.8438 55.7812 44.8438C61.8118 44.8438 66.7188 49.7507 66.7188 55.7812C66.7188 61.8118 61.8118 66.7188 55.7812 66.7188Z" fill="#28DF99"/>
<path d="M56.875 53.8972V47.0312H54.6875V53.8972C54.0364 54.2761 53.5938 54.9735 53.5938 55.7812C53.5938 55.892 53.6104 55.9982 53.6263 56.1045L49.6289 59.3018L50.9961 61.0107L54.99 57.8155C55.2361 57.9113 55.5014 57.9688 55.7812 57.9688C56.9894 57.9688 57.9688 56.9894 57.9688 55.7812C57.9688 54.9736 57.5261 54.2761 56.875 53.8972Z" fill="#28DF99"/>
<path d="M16.4062 24.0625H9.84375C9.2392 24.0625 8.75 24.5517 8.75 25.1562V31.7188C8.75 32.3233 9.2392 32.8125 9.84375 32.8125H16.4062C17.0108 32.8125 17.5 32.3233 17.5 31.7188V25.1562C17.5 24.5517 17.0108 24.0625 16.4062 24.0625ZM15.3125 30.625H10.9375V26.25H15.3125V30.625Z" fill="#28DF99"/>
<path d="M28.4375 24.0625H21.875C21.2705 24.0625 20.7812 24.5517 20.7812 25.1562V31.7188C20.7812 32.3233 21.2705 32.8125 21.875 32.8125H28.4375C29.042 32.8125 29.5312 32.3233 29.5312 31.7188V25.1562C29.5312 24.5517 29.042 24.0625 28.4375 24.0625ZM27.3438 30.625H22.9688V26.25H27.3438V30.625Z" fill="#28DF99"/>
<path d="M40.4688 24.0625H33.9062C33.3017 24.0625 32.8125 24.5517 32.8125 25.1562V31.7188C32.8125 32.3233 33.3017 32.8125 33.9062 32.8125H40.4688C41.0733 32.8125 41.5625 32.3233 41.5625 31.7188V25.1562C41.5625 24.5517 41.0733 24.0625 40.4688 24.0625ZM39.375 30.625H35V26.25H39.375V30.625Z" fill="#28DF99"/>
<path d="M45.9375 32.8125H52.5C53.1045 32.8125 53.5938 32.3233 53.5938 31.7188V25.1562C53.5938 24.5517 53.1045 24.0625 52.5 24.0625H45.9375C45.333 24.0625 44.8438 24.5517 44.8438 25.1562V31.7188C44.8438 32.3233 45.333 32.8125 45.9375 32.8125ZM47.0312 26.25H51.4062V30.625H47.0312V26.25Z" fill="#28DF99"/>
<path d="M16.4062 36.0938H9.84375C9.2392 36.0938 8.75 36.583 8.75 37.1875V43.75C8.75 44.3545 9.2392 44.8438 9.84375 44.8438H16.4062C17.0108 44.8438 17.5 44.3545 17.5 43.75V37.1875C17.5 36.583 17.0108 36.0938 16.4062 36.0938ZM15.3125 42.6562H10.9375V38.2812H15.3125V42.6562Z" fill="#28DF99"/>
<path d="M28.4375 36.0938H21.875C21.2705 36.0938 20.7812 36.583 20.7812 37.1875V43.75C20.7812 44.3545 21.2705 44.8438 21.875 44.8438H28.4375C29.042 44.8438 29.5312 44.3545 29.5312 43.75V37.1875C29.5312 36.583 29.042 36.0938 28.4375 36.0938ZM27.3438 42.6562H22.9688V38.2812H27.3438V42.6562Z" fill="#28DF99"/>
<path d="M40.4688 36.0938H33.9062C33.3017 36.0938 32.8125 36.583 32.8125 37.1875V43.75C32.8125 44.3545 33.3017 44.8438 33.9062 44.8438H40.4688C41.0733 44.8438 41.5625 44.3545 41.5625 43.75V37.1875C41.5625 36.583 41.0733 36.0938 40.4688 36.0938ZM39.375 42.6562H35V38.2812H39.375V42.6562Z" fill="#28DF99"/>
<path d="M16.4062 48.125H9.84375C9.2392 48.125 8.75 48.6142 8.75 49.2188V55.7812C8.75 56.3858 9.2392 56.875 9.84375 56.875H16.4062C17.0108 56.875 17.5 56.3858 17.5 55.7812V49.2188C17.5 48.6142 17.0108 48.125 16.4062 48.125ZM15.3125 54.6875H10.9375V50.3125H15.3125V54.6875Z" fill="#28DF99"/>
<path d="M28.4375 48.125H21.875C21.2705 48.125 20.7812 48.6142 20.7812 49.2188V55.7812C20.7812 56.3858 21.2705 56.875 21.875 56.875H28.4375C29.042 56.875 29.5312 56.3858 29.5312 55.7812V49.2188C29.5312 48.6142 29.042 48.125 28.4375 48.125ZM27.3438 54.6875H22.9688V50.3125H27.3438V54.6875Z" fill="#28DF99"/>
<path d="M40.4688 48.125H33.9062C33.3017 48.125 32.8125 48.6142 32.8125 49.2188V55.7812C32.8125 56.3858 33.3017 56.875 33.9062 56.875H40.4688C41.0733 56.875 41.5625 56.3858 41.5625 55.7812V49.2188C41.5625 48.6142 41.0733 48.125 40.4688 48.125ZM39.375 54.6875H35V50.3125H39.375V54.6875Z" fill="#28DF99"/>
</svg>
