<svg width="70" height="70" viewBox="0 0 70 70" fill="none" xmlns="http://www.w3.org/2000/svg">
<g clip-path="url(#clip0_48_150)">
<path d="M13.1279 49.4959C13.0725 49.4959 13.02 49.4929 12.9617 49.4871C5.57374 48.6675 -7.62939e-06 42.4375 -7.62939e-06 35C-7.62939e-06 27.2942 6.00541 20.9679 13.58 20.4517C15.5983 10.3717 24.5962 2.91669 35 2.91669C43.1696 2.91669 50.6946 7.51919 54.4046 14.7117C63.2187 15.6363 70 23.1059 70 32.0834C70 39.9 64.7617 46.8125 57.2658 48.8892C56.4842 49.1079 55.685 48.65 55.4721 47.8713C55.2562 47.0954 55.7112 46.2904 56.4871 46.0775C62.7258 44.3509 67.0833 38.5934 67.0833 32.0834C67.0833 24.3629 61.0662 17.9813 53.3837 17.5554C52.8442 17.5263 52.3687 17.2025 52.1412 16.7154C49.0554 10.1063 42.3296 5.83335 35 5.83335C25.6229 5.83335 17.5671 12.8188 16.2604 22.0792C16.1583 22.7967 15.5429 23.3334 14.8167 23.3334C8.14916 23.3334 2.91666 28.5659 2.91666 35C2.91666 40.95 7.37333 45.9317 13.2883 46.5879C14.0875 46.6784 14.665 47.3988 14.5746 48.1979C14.4929 48.9446 13.86 49.4959 13.1279 49.4959Z" fill="#28DF99"/>
<path d="M27.7083 52.5C27.335 52.5 26.9617 52.3571 26.6758 52.0741L20.8425 46.2408C20.2737 45.6721 20.2737 44.7475 20.8425 44.1787L26.6758 38.3454C27.2446 37.7766 28.1692 37.7766 28.7379 38.3454C29.3067 38.9141 29.3067 39.8387 28.7379 40.4075L23.9371 45.2083L28.7379 50.0091C29.3067 50.5779 29.3067 51.5025 28.7379 52.0712C28.455 52.3571 28.0817 52.5 27.7083 52.5Z" fill="#28DF99"/>
<path d="M48.125 46.6667H22.6012C21.7962 46.6667 21.1429 46.0133 21.1429 45.2083C21.1429 44.4033 21.7962 43.75 22.6012 43.75H48.125C48.93 43.75 49.5833 44.4033 49.5833 45.2083C49.5833 46.0133 48.93 46.6667 48.125 46.6667Z" fill="#28DF99"/>
<path d="M42.2916 67.0834C41.9183 67.0834 41.545 66.9404 41.2591 66.6575C40.6904 66.0888 40.6904 65.1642 41.2591 64.5954L46.06 59.7946L41.2591 54.9938C40.6904 54.425 40.6904 53.5004 41.2591 52.9317C41.8279 52.3629 42.7525 52.3629 43.3212 52.9317L49.1546 58.765C49.7233 59.3338 49.7233 60.2584 49.1546 60.8271L43.3212 66.6604C43.0383 66.9404 42.665 67.0834 42.2916 67.0834Z" fill="#28DF99"/>
<path d="M47.3988 61.2499H21.875C21.07 61.2499 20.4167 60.5966 20.4167 59.7916C20.4167 58.9866 21.07 58.3333 21.875 58.3333H47.3988C48.2038 58.3333 48.8571 58.9866 48.8571 59.7916C48.8571 60.5966 48.2038 61.2499 47.3988 61.2499Z" fill="#28DF99"/>
</g>
<defs>
<clipPath id="clip0_48_150">
<rect width="70" height="70" fill="white"/>
</clipPath>
</defs>
</svg>
