<svg width="336" height="449" viewBox="0 0 336 449" fill="none" xmlns="http://www.w3.org/2000/svg">
<path opacity="0.1" d="M266.9 169.633C262.26 168.978 257.463 169.369 253.121 170.755C250.521 171.622 247.706 172.071 244.859 172.071C242.012 172.071 239.197 171.622 236.597 170.755C233.52 169.746 230.186 169.249 226.827 169.299C223.467 169.35 220.163 169.946 217.143 171.046C215.424 171.715 213.517 172.071 211.579 172.085C203.697 172.085 197.132 166.157 195.76 158.331C197.333 157.47 198.674 156.394 199.71 155.159C204.328 149.619 211.486 146.018 219.535 146.018C227.584 146.018 234.65 149.55 239.267 155.048C240.646 156.713 242.579 158.083 244.876 159.024C247.174 159.966 249.759 160.448 252.379 160.422H252.583C258.814 160.395 264.248 164.162 266.9 169.633Z" fill="#00BFA6"/>
<path opacity="0.1" d="M290.917 145.076L278.177 151.115L285.91 140.602C283.724 139.295 281.014 138.574 278.214 138.553H277.991C277.109 138.564 276.227 138.513 275.358 138.4L271.037 140.45L272.891 137.929C269.828 137.134 267.18 135.636 265.325 133.65L257.591 137.306L262.487 130.686C260.431 128.703 257.81 127.086 254.814 125.953C251.818 124.82 248.523 124.199 245.166 124.134C237.117 124.134 229.958 127.708 225.341 133.276C223.972 134.94 222.038 136.305 219.736 137.232C217.433 138.159 214.843 138.614 212.229 138.553H211.802C202.919 138.553 195.723 146.06 195.723 155.339C195.723 164.619 202.919 172.126 211.802 172.126C213.743 172.115 215.652 171.754 217.366 171.074C220.386 169.979 223.687 169.388 227.043 169.34C230.399 169.292 233.728 169.789 236.802 170.797C239.417 171.687 242.254 172.159 245.129 172.182C247.958 172.178 250.756 171.734 253.344 170.88C256.398 169.892 259.701 169.406 263.028 169.454C266.355 169.502 269.63 170.082 272.631 171.157C274.348 171.828 276.257 172.18 278.195 172.182C287.06 172.182 294.256 164.661 294.256 155.395C294.331 151.8 293.182 148.249 290.917 145.076Z" fill="#00BFA6"/>
<path opacity="0.1" d="M310.238 49.6718C305.991 48.9679 301.602 49.3895 297.629 50.8829C295.244 51.8157 292.663 52.2977 290.052 52.2977C287.441 52.2977 284.859 51.8157 282.474 50.8829C279.653 49.7959 276.596 49.26 273.515 49.3122C270.434 49.3645 267.403 50.0038 264.631 51.1857C263.052 51.922 261.293 52.3091 259.505 52.3133C252.272 52.3133 246.265 45.9235 245.016 37.4977C246.439 36.5665 247.65 35.4083 248.585 34.0836C252.819 28.0905 259.374 24.2378 266.749 24.2378C274.124 24.2378 280.595 28.0383 284.83 33.9687C286.091 35.7605 287.859 37.235 289.963 38.2487C292.066 39.2624 294.433 39.7806 296.832 39.753H297.022C302.839 39.7008 307.823 43.7518 310.238 49.6718Z" fill="#00BFA6"/>
<path opacity="0.1" d="M332.255 23.2042L320.574 29.6984L327.711 18.3805C325.701 16.9762 323.214 16.2009 320.645 16.1774H320.455C319.658 16.187 318.862 16.1346 318.076 16.0208L314.055 18.2239L315.757 15.5092C312.946 14.6553 310.517 13.0392 308.822 10.8944L301.684 14.841L306.157 7.69946C302.017 3.33518 296.427 0.662308 290.289 0.662308C282.914 0.662308 276.359 4.50455 272.113 10.4976C270.861 12.2896 269.091 13.759 266.983 14.7565C264.875 15.7541 262.504 16.2443 260.11 16.1774H259.718C251.581 16.1774 244.991 24.2691 244.991 34.2506C244.991 44.2321 251.581 52.3342 259.718 52.3342C261.505 52.3237 263.263 51.937 264.845 51.2066C267.615 50.0216 270.646 49.3798 273.727 49.3257C276.808 49.2717 279.865 49.8066 282.688 50.8934C285.07 51.8326 287.653 52.3181 290.265 52.3181C292.877 52.3181 295.459 51.8326 297.842 50.8934C300.642 49.8309 303.668 49.3081 306.718 49.3604C309.767 49.4126 312.768 50.0386 315.519 51.1961C317.083 51.9147 318.82 52.2942 320.586 52.3029C328.722 52.3029 335.312 44.2008 335.312 34.2193C335.362 30.3807 334.31 26.5929 332.255 23.2042Z" fill="#28DF99"/>
<path opacity="0.1" d="M78.2741 62.1373L90.4217 68.4786L83.0413 57.4541C85.1278 56.0773 87.7131 55.3146 90.3863 55.287H90.5806C91.4256 55.297 92.2702 55.2484 93.1054 55.1415L97.2193 57.2795L95.4537 54.6471C98.3638 53.8097 100.879 52.2369 102.64 50.1529L110.002 53.9926L105.412 47.0259C107.37 44.9456 109.866 43.2503 112.718 42.063C115.571 40.8756 118.708 40.2259 121.903 40.161C129.548 40.161 136.381 43.9135 140.777 49.7602C142.079 51.5061 143.917 52.938 146.106 53.911C148.295 54.884 150.757 55.3637 153.243 55.3016H153.666C162.106 55.3016 168.957 63.199 168.957 72.9291C168.957 82.6592 162.106 90.5567 153.666 90.5567C151.82 90.5499 150.003 90.1757 148.37 89.4659C145.494 88.3105 142.348 87.6847 139.15 87.632C135.951 87.5792 132.777 88.1008 129.848 89.1604C127.367 90.104 124.67 90.5999 121.938 90.6149C119.238 90.613 116.568 90.1474 114.099 89.2477C111.194 88.2114 108.053 87.7011 104.888 87.7513C101.723 87.8014 98.6081 88.411 95.7538 89.5386C94.1194 90.244 92.3021 90.6132 90.457 90.6149C81.9996 90.6149 75.1489 82.7319 75.1489 72.9873C75.0666 69.2117 76.1415 65.48 78.2741 62.1373Z" fill="#00BFA6"/>
<path opacity="0.1" d="M88.1948 88.0405C92.607 87.3542 97.1673 87.7642 101.296 89.2186C103.774 90.1299 106.457 90.6009 109.17 90.6009C111.884 90.6009 114.567 90.1299 117.045 89.2186C119.974 88.1605 123.147 87.6386 126.345 87.6888C129.542 87.739 132.689 88.3602 135.567 89.5095C137.198 90.2255 139.015 90.6048 140.864 90.6149C148.367 90.6149 154.618 84.3754 155.907 76.1579C154.41 75.2567 153.139 74.1258 152.164 72.8273C147.749 67.0096 140.934 63.2427 133.289 63.2427C125.644 63.2427 118.899 66.9369 114.485 72.7255C113.174 74.4712 111.337 75.9081 109.153 76.8968C106.969 77.8856 104.512 78.3926 102.02 78.3687H101.825C95.8753 78.3977 90.6844 82.3392 88.1948 88.0405Z" fill="#00BFA6"/>
<g clip-path="url(#clip0_1241_3)">
<path d="M268.518 407.77C268.449 407.683 268.381 407.595 268.313 407.508C268.246 407.421 268.178 407.333 268.111 407.245C268.044 407.157 267.977 407.069 267.911 406.981C267.844 406.893 267.778 406.804 267.712 406.715C267.602 404.155 267.6 401.618 267.707 399.104C267.812 396.608 268.024 394.141 268.343 391.705C268.657 389.287 269.075 386.906 269.594 384.562C270.11 382.237 270.724 379.955 271.437 377.717C271.519 377.459 271.601 377.202 271.686 376.946C271.77 376.69 271.856 376.436 271.943 376.183C272.03 375.93 272.118 375.677 272.208 375.425C272.298 375.174 272.39 374.923 272.482 374.674C273.169 372.805 273.925 370.982 274.751 369.205C275.57 367.44 276.455 365.725 277.406 364.057C278.349 362.402 279.355 360.798 280.424 359.244C281.484 357.702 282.604 356.215 283.783 354.78L283.968 354.555L284.155 354.332L284.342 354.109L284.529 353.888L284.665 353.729L284.801 353.571C284.847 353.518 284.893 353.466 284.939 353.414C284.985 353.362 285.032 353.31 285.079 353.259L285.191 353.198L285.302 353.137L285.413 353.077L285.524 353.016L285.531 353.014L285.538 353.011L285.545 353.008L285.552 353.005L285.596 352.981L285.64 352.956L285.683 352.932L285.725 352.907L285.918 352.804L286.11 352.703L286.301 352.602L286.492 352.499L286.347 352.427L285.982 352.246L285.984 352.244C286.016 352.258 286.047 352.272 286.077 352.287C286.108 352.301 286.139 352.316 286.17 352.33C286.202 352.344 286.233 352.359 286.263 352.373C286.293 352.388 286.324 352.402 286.355 352.418L286.39 352.433L286.426 352.448L286.462 352.463C286.474 352.468 286.486 352.474 286.497 352.48C286.507 352.486 286.518 352.49 286.529 352.494L286.56 352.507L286.591 352.52L286.623 352.534C287.951 353.141 289.283 353.758 290.598 354.404C291.913 355.051 293.207 355.724 294.466 356.45C295.722 357.169 296.94 357.954 298.113 358.801C299.283 359.644 300.391 360.57 301.427 361.572C302.52 362.638 303.498 363.815 304.345 365.085C305.182 366.332 305.87 367.673 306.396 369.079C306.901 370.418 307.203 371.825 307.29 373.253C307.373 374.627 307.18 376.003 306.72 377.301C306.658 377.47 306.591 377.637 306.519 377.801C306.447 377.966 306.37 378.128 306.289 378.287C306.207 378.447 306.121 378.604 306.03 378.757C305.939 378.911 305.843 379.062 305.743 379.211C305.701 379.272 305.659 379.334 305.615 379.394C305.572 379.455 305.528 379.515 305.483 379.575C305.438 379.634 305.393 379.694 305.347 379.753C305.301 379.812 305.255 379.871 305.208 379.929C304.338 381.02 303.232 381.901 301.973 382.506C300.707 383.109 299.332 383.45 297.93 383.506C296.457 383.567 294.985 383.354 293.591 382.878C292.094 382.368 290.704 381.591 289.489 380.583C289.069 380.236 288.67 379.864 288.296 379.469C287.926 379.077 287.58 378.662 287.261 378.228C286.945 377.797 286.656 377.346 286.397 376.879C286.14 376.415 285.913 375.935 285.718 375.442C285.626 376.974 285.864 378.507 286.416 379.939C286.999 381.444 287.791 382.861 288.77 384.146C289.803 385.514 290.949 386.794 292.197 387.972C293.453 389.173 294.787 390.299 296.105 391.336C297.422 392.373 298.787 393.434 300.108 394.54C301.427 395.627 302.683 396.789 303.87 398.02C305.021 399.209 306.039 400.519 306.906 401.927C307.758 403.317 308.374 404.838 308.729 406.428C309.109 408.16 309.089 409.956 308.672 411.679C308.47 412.518 308.181 413.333 307.811 414.113C307.438 414.899 306.991 415.648 306.476 416.35L306.427 416.414L306.379 416.478L306.33 416.541L306.28 416.605C305.023 418.243 303.445 419.61 301.642 420.621C300.734 421.13 299.778 421.547 298.787 421.865C297.772 422.191 296.728 422.415 295.669 422.534C293.654 422.719 291.622 422.604 289.642 422.19C287.602 421.764 285.62 421.103 283.734 420.219C281.784 419.308 279.921 418.225 278.165 416.982C276.395 415.732 274.718 414.354 273.15 412.86C272.733 412.464 272.324 412.06 271.922 411.649C271.52 411.239 271.126 410.821 270.74 410.396C270.353 409.972 269.974 409.541 269.605 409.103C269.235 408.665 268.873 408.221 268.518 407.77Z" fill="#F2F2F2"/>
<path d="M300.912 378.114C299.667 377.47 298.469 376.737 297.329 375.921C295.052 374.293 293.017 372.351 291.286 370.153C290.427 369.062 289.65 367.911 288.959 366.707C288.383 365.691 287.872 364.639 287.428 363.558C286.995 362.504 286.631 361.422 286.338 360.321C286.052 359.245 285.839 358.152 285.7 357.047C285.564 355.966 285.504 354.876 285.521 353.786C285.523 353.724 285.524 353.663 285.526 353.602C285.527 353.542 285.528 353.481 285.53 353.419C285.532 353.358 285.534 353.297 285.537 353.237L285.546 353.056C285.494 353.097 285.442 353.139 285.39 353.181L285.234 353.307L285.079 353.434L284.924 353.562L284.825 353.644L284.725 353.727L284.626 353.81L284.528 353.893L284.663 353.735L284.802 353.571C284.848 353.519 284.894 353.466 284.94 353.414C284.986 353.362 285.033 353.31 285.08 353.259L285.192 353.198L285.303 353.138L285.412 353.077L285.522 353.017L285.529 353.015L285.536 353.011L285.543 353.008L285.55 353.006L285.595 352.981L285.639 352.957L285.682 352.932L285.724 352.908L285.917 352.805L286.109 352.703L286.3 352.602L286.492 352.501L286.342 352.426L285.978 352.245L285.98 352.244C286.011 352.257 286.043 352.271 286.073 352.286C286.104 352.301 286.135 352.315 286.166 352.329C286.198 352.344 286.228 352.358 286.259 352.372C286.289 352.387 286.32 352.402 286.351 352.417L286.386 352.432L286.422 352.447L286.458 352.463C286.47 352.467 286.482 352.473 286.493 352.48L286.489 352.537L286.485 352.591L286.482 352.645L286.479 352.7C286.345 354.536 286.441 356.382 286.765 358.194C287.098 360.06 287.645 361.881 288.395 363.622C289.17 365.424 290.139 367.137 291.285 368.73C292.468 370.379 293.825 371.897 295.33 373.259C296.846 374.611 298.5 375.801 300.264 376.81C301.135 377.308 302.032 377.759 302.951 378.162C303.863 378.562 304.795 378.911 305.745 379.209C305.703 379.271 305.66 379.332 305.617 379.393C305.573 379.454 305.529 379.514 305.484 379.574C305.44 379.633 305.394 379.693 305.348 379.752C305.302 379.811 305.256 379.87 305.209 379.928C304.843 379.807 304.479 379.678 304.116 379.542C303.754 379.405 303.394 379.261 303.035 379.11C302.676 378.959 302.32 378.8 301.967 378.634C301.613 378.467 301.261 378.294 300.912 378.114Z" fill="white"/>
<path d="M276.263 391.837C275.855 391.23 275.47 390.611 275.109 389.982C274.747 389.352 274.408 388.713 274.094 388.066C273.779 387.418 273.489 386.763 273.222 386.099C272.956 385.435 272.714 384.766 272.498 384.091C272.388 383.732 272.286 383.373 272.192 383.012C272.099 382.651 272.015 382.29 271.939 381.928C271.863 381.566 271.796 381.204 271.737 380.84C271.678 380.477 271.629 380.113 271.588 379.751C271.568 379.582 271.549 379.412 271.533 379.242C271.517 379.073 271.502 378.903 271.49 378.733C271.477 378.564 271.466 378.394 271.457 378.225C271.448 378.056 271.441 377.887 271.436 377.718C271.517 377.46 271.6 377.203 271.684 376.947C271.768 376.691 271.854 376.436 271.941 376.182C272.028 375.928 272.116 375.676 272.206 375.424C272.296 375.173 272.388 374.922 272.481 374.672C272.461 374.881 272.443 375.091 272.429 375.301C272.414 375.512 272.403 375.723 272.395 375.934C272.386 376.146 272.381 376.358 272.378 376.57C272.375 376.783 272.376 376.996 272.379 377.209C272.379 377.325 272.38 377.442 272.382 377.558C272.385 377.674 272.388 377.79 272.392 377.907C272.396 378.023 272.401 378.139 272.407 378.256C272.413 378.372 272.42 378.488 272.428 378.604C272.517 379.909 272.723 381.204 273.041 382.472C273.364 383.756 273.784 385.014 274.299 386.234C274.824 387.477 275.43 388.686 276.112 389.851C276.805 391.036 277.564 392.183 278.383 393.285C279.266 394.475 280.199 395.634 281.182 396.762C282.165 397.889 283.185 398.986 284.243 400.052C285.301 401.116 286.391 402.148 287.511 403.147C288.632 404.146 289.771 405.11 290.93 406.04C292.116 406.995 293.325 407.913 294.559 408.795C295.793 409.677 297.048 410.521 298.322 411.326C299.595 412.13 300.888 412.895 302.2 413.622C303.512 414.348 304.839 415.032 306.18 415.675C306.242 415.705 306.298 415.747 306.344 415.796C306.39 415.845 306.427 415.902 306.454 415.963C306.481 416.024 306.496 416.089 306.5 416.155C306.505 416.221 306.496 416.288 306.475 416.351C306.468 416.378 306.458 416.405 306.446 416.43C306.434 416.455 306.42 416.478 306.403 416.5C306.387 416.521 306.368 416.541 306.347 416.559C306.327 416.576 306.304 416.592 306.28 416.604C306.255 416.616 306.229 416.624 306.202 416.629C306.174 416.634 306.147 416.635 306.119 416.633C306.091 416.631 306.063 416.626 306.036 416.618C306.008 416.609 305.981 416.598 305.955 416.583C305.789 416.504 305.624 416.425 305.458 416.345C305.293 416.265 305.127 416.184 304.962 416.103C304.797 416.022 304.632 415.941 304.468 415.858C304.303 415.776 304.139 415.692 303.975 415.607C302.607 414.907 301.258 414.164 299.927 413.379C298.596 412.595 297.285 411.769 295.994 410.903C294.704 410.037 293.437 409.131 292.193 408.187C290.949 407.243 289.731 406.262 288.54 405.242C287.389 404.261 286.253 403.247 285.144 402.198C284.035 401.149 282.954 400.067 281.913 398.95C280.873 397.833 279.873 396.682 278.926 395.496C277.98 394.31 277.088 393.091 276.263 391.837Z" fill="white"/>
<path d="M302.023 294.372L301.044 294.499L307.611 269.913C308.095 268.271 308.174 266.537 307.841 264.859C307.552 263.487 306.837 262.241 305.798 261.297C304.71 260.354 303.376 259.737 301.951 259.517C300.216 259.249 298.444 259.328 296.74 259.749L252.106 269.888C250.548 270.265 249.057 270.877 247.684 271.703C246.191 272.588 244.802 273.638 243.544 274.833C242.25 276.052 241.088 277.403 240.078 278.865C239.092 280.279 238.288 281.812 237.685 283.427L190.984 411.547C190.208 413.654 189.703 415.85 189.483 418.084C189.279 420.067 189.375 422.07 189.769 424.024C190.098 425.722 190.785 427.331 191.785 428.744C192.702 430.029 193.993 431.001 195.484 431.527L242.643 447.72C244.737 448.432 246.986 448.565 249.151 448.107C251.465 447.604 253.642 446.604 255.529 445.177C257.648 443.589 259.471 441.641 260.913 439.422C262.511 436.984 263.704 434.306 264.448 431.49L296.065 313.133L297.057 313.054L302.023 294.372Z" fill="#2F2E41"/>
<path d="M298.611 293.011L297.632 293.138L304.199 268.552C304.683 266.91 304.762 265.176 304.429 263.497C304.14 262.126 303.425 260.88 302.386 259.936C301.298 258.993 299.965 258.375 298.54 258.156C296.804 257.887 295.033 257.967 293.328 258.388L248.694 268.527C247.136 268.904 245.645 269.516 244.272 270.341C242.779 271.227 241.391 272.277 240.133 273.472C238.838 274.691 237.677 276.042 236.667 277.504C235.68 278.918 234.876 280.451 234.273 282.066L187.573 410.186C186.796 412.293 186.292 414.489 186.072 416.723C185.867 418.706 185.964 420.708 186.358 422.663C186.687 424.361 187.374 425.97 188.373 427.383C189.29 428.668 190.582 429.64 192.072 430.166L239.231 446.359C241.326 447.071 243.575 447.204 245.739 446.746C248.053 446.243 250.23 445.243 252.117 443.816C254.237 442.228 256.059 440.279 257.502 438.061C259.099 435.623 260.293 432.945 261.036 430.129L292.653 311.772L293.645 311.693L298.611 293.011Z" fill="#3F3D56"/>
<path d="M292.933 261.596L286.373 263.03C286.444 263.596 286.388 264.171 286.207 264.713C286.003 265.346 285.706 265.946 285.327 266.494C284.474 267.737 283.335 268.759 282.006 269.474C281.847 269.559 281.688 269.637 281.53 269.708C281.372 269.78 281.214 269.844 281.056 269.903C280.899 269.961 280.742 270.013 280.587 270.057C280.432 270.102 280.278 270.14 280.126 270.17L254.474 275.351C253.998 275.461 253.503 275.456 253.029 275.335C252.648 275.233 252.312 275.007 252.074 274.693C251.834 274.356 251.699 273.956 251.685 273.543C251.665 273.016 251.748 272.49 251.931 271.995C251.976 271.861 252.028 271.727 252.086 271.591C252.144 271.456 252.208 271.32 252.276 271.185C252.345 271.049 252.419 270.913 252.5 270.779C252.581 270.644 252.666 270.509 252.755 270.375L247.898 271.436C246.728 271.71 245.608 272.162 244.577 272.777C243.45 273.439 242.402 274.227 241.453 275.125C240.475 276.042 239.598 277.061 238.836 278.164C238.094 279.23 237.49 280.386 237.04 281.604L190.427 410.837C189.848 412.425 189.475 414.081 189.32 415.764C189.176 417.249 189.261 418.748 189.571 420.208C189.83 421.47 190.358 422.661 191.119 423.701C191.817 424.645 192.79 425.35 193.905 425.721L241.411 441.115C242.978 441.616 244.652 441.691 246.258 441.332C247.968 440.941 249.575 440.19 250.969 439.127C252.529 437.949 253.872 436.51 254.938 434.874C256.117 433.076 257.002 431.103 257.56 429.028L300.965 269.267C301.329 268.047 301.397 266.759 301.162 265.508C300.958 264.483 300.438 263.547 299.676 262.831C298.876 262.115 297.889 261.64 296.829 261.462C295.535 261.246 294.21 261.291 292.933 261.596Z" fill="white"/>
<path d="M267.457 322.803H172.956V290.861H267.457V322.803Z" fill="white"/>
<path d="M239.828 334.076H147.211V378.857H239.828V334.076Z" fill="white"/>
<path d="M162.257 355.58C165.957 355.58 168.957 352.588 168.957 348.898C168.957 345.207 165.957 342.216 162.257 342.216C158.557 342.216 155.558 345.207 155.558 348.898C155.558 352.588 158.557 355.58 162.257 355.58Z" fill="#00BFA6"/>
<path d="M177.73 344.443C177.433 344.443 177.149 344.56 176.94 344.769C176.731 344.978 176.613 345.261 176.613 345.557C176.613 345.852 176.731 346.135 176.94 346.344C177.149 346.553 177.433 346.671 177.73 346.671H230.368C230.663 346.67 230.947 346.552 231.155 346.343C231.364 346.135 231.481 345.852 231.481 345.557C231.481 345.262 231.364 344.979 231.155 344.77C230.947 344.561 230.663 344.444 230.368 344.443H177.73Z" fill="#E6E6E6"/>
<path d="M177.73 351.125C177.583 351.125 177.438 351.153 177.302 351.209C177.166 351.264 177.043 351.346 176.939 351.449C176.835 351.553 176.752 351.675 176.695 351.81C176.639 351.945 176.61 352.09 176.609 352.237C176.609 352.383 176.638 352.528 176.694 352.663C176.75 352.799 176.832 352.922 176.935 353.025C177.039 353.129 177.162 353.211 177.297 353.267C177.433 353.324 177.578 353.353 177.725 353.353H200.38C200.527 353.353 200.672 353.324 200.807 353.268C200.943 353.212 201.066 353.13 201.17 353.027C201.273 352.923 201.355 352.8 201.412 352.665C201.468 352.53 201.497 352.385 201.497 352.239C201.497 352.093 201.468 351.948 201.412 351.813C201.355 351.678 201.273 351.555 201.17 351.451C201.066 351.348 200.943 351.266 200.807 351.21C200.672 351.154 200.527 351.125 200.38 351.125H177.73Z" fill="#E6E6E6"/>
<path d="M157.119 361.808C156.269 361.808 155.578 362.308 155.578 362.922C155.578 363.536 156.269 364.036 157.119 364.036H229.743C230.592 364.036 231.283 363.536 231.283 362.922C231.283 362.308 230.592 361.808 229.743 361.808H157.119Z" fill="#E6E6E6"/>
<path d="M157.119 368.491C156.269 368.491 155.578 368.99 155.578 369.604C155.578 370.218 156.269 370.718 157.119 370.718H213.026C213.875 370.718 214.566 370.218 214.566 369.604C214.566 368.99 213.875 368.491 213.026 368.491H157.119Z" fill="#E6E6E6"/>
<path d="M240.77 379.797H146.269V333.137H240.77V379.797ZM148.153 377.918H238.887V335.016H148.153V377.918Z" fill="#E6E6E6"/>
<path d="M188.944 313.304C192.644 313.304 195.643 310.312 195.643 306.622C195.643 302.931 192.644 299.94 188.944 299.94C185.244 299.94 182.244 302.931 182.244 306.622C182.244 310.312 185.244 313.304 188.944 313.304Z" fill="#00BFA6"/>
<path d="M204.416 302.167C204.12 302.167 203.836 302.285 203.626 302.493C203.417 302.702 203.299 302.986 203.299 303.281C203.299 303.576 203.417 303.86 203.626 304.068C203.836 304.277 204.12 304.395 204.416 304.395H257.054C257.35 304.394 257.633 304.276 257.842 304.067C258.05 303.859 258.168 303.576 258.168 303.281C258.168 302.986 258.05 302.703 257.842 302.494C257.633 302.286 257.35 302.168 257.054 302.167H204.416Z" fill="#E6E6E6"/>
<path d="M204.416 308.849C204.269 308.849 204.124 308.877 203.988 308.933C203.852 308.988 203.729 309.07 203.625 309.173C203.521 309.277 203.438 309.399 203.382 309.534C203.325 309.67 203.296 309.814 203.296 309.961C203.295 310.107 203.324 310.252 203.38 310.387C203.436 310.523 203.518 310.646 203.622 310.749C203.725 310.853 203.848 310.935 203.984 310.992C204.119 311.048 204.265 311.077 204.411 311.077H245.83C246.126 311.077 246.41 310.959 246.62 310.751C246.829 310.542 246.947 310.258 246.947 309.963C246.947 309.668 246.829 309.384 246.62 309.176C246.41 308.967 246.126 308.849 245.83 308.849H204.416Z" fill="#E6E6E6"/>
<path d="M267.457 322.803H172.956V290.861H267.457V322.803ZM174.839 320.924H265.573V292.74H174.839V320.924Z" fill="#E6E6E6"/>
<path d="M81.772 444.476H86.5357L88.8021 426.148L81.771 426.149L81.772 444.476Z" fill="#FFB6B6"/>
<path d="M95.7234 448.888L80.7515 448.889L80.7513 443.119L90.6442 443.118C91.9912 443.118 93.2831 443.652 94.2356 444.602C95.1881 445.552 95.7233 446.84 95.7234 448.184L95.7234 448.888Z" fill="#2F2E41"/>
<path d="M34.137 438.318L38.3115 440.607L49.1503 425.636L42.9892 422.258L34.137 438.318Z" fill="#FFB6B6"/>
<path d="M44.2312 448.889L31.1114 441.694L33.8982 436.638L42.5674 441.392C43.7478 442.039 44.622 443.128 44.9978 444.418C45.3736 445.708 45.2201 447.094 44.5712 448.272L44.2312 448.889Z" fill="#2F2E41"/>
<path d="M81.5497 434.304C81.1252 434.303 80.7154 434.149 80.3966 433.869C80.0778 433.59 79.872 433.204 79.8174 432.784L73.8597 386.993C73.8334 386.79 73.7436 386.601 73.6031 386.452C73.4626 386.304 73.2786 386.203 73.0774 386.165C72.8763 386.127 72.6682 386.153 72.4829 386.24C72.2976 386.327 72.1446 386.47 72.0457 386.649L47.2167 431.581C47.0118 431.948 46.6817 432.229 46.2865 432.374C45.8913 432.519 45.4571 432.517 45.0629 432.369L39.651 430.313C39.4333 430.23 39.2344 430.105 39.0659 429.944C38.8974 429.784 38.7628 429.591 38.6699 429.378C38.577 429.165 38.5278 428.936 38.525 428.704C38.5223 428.471 38.5661 428.241 38.6539 428.026L55.8536 385.882C55.8972 385.775 55.9267 385.662 55.9415 385.548C58.2711 367.563 64.1983 358.417 65.9594 356.043C66.0881 355.868 66.1727 355.665 66.2062 355.451C66.2398 355.237 66.2212 355.018 66.1521 354.813L65.91 354.088C65.8133 353.801 65.7935 353.493 65.8525 353.196C65.9115 352.898 66.0473 352.621 66.2465 352.392C72.5923 345.183 83.6529 349.117 83.7639 349.157L83.8193 349.177L83.854 349.225C96.2561 366.19 91.6706 421.292 90.6255 432.166C90.5865 432.574 90.4038 432.956 90.1099 433.243C89.8159 433.531 89.4295 433.705 89.0191 433.735L81.6855 434.299C81.6399 434.302 81.5947 434.304 81.5497 434.304Z" fill="#2F2E41"/>
<path d="M78.1871 307.066C84.0423 307.066 88.7888 302.332 88.7888 296.492C88.7888 290.651 84.0423 285.917 78.1871 285.917C72.332 285.917 67.5854 290.651 67.5854 296.492C67.5854 302.332 72.332 307.066 78.1871 307.066Z" fill="#FFB8B8"/>
<path d="M61.7966 363.78L92.9927 366.612C90.2729 357.179 87.781 347.779 89.8122 338.413C92.3914 330.051 92.6312 325.419 85.8271 321.481L81.233 311.259L72.9186 310.958L68.8644 309.849C65.589 315.102 64.2491 321.329 65.0749 327.46C66.8373 340.792 66.3614 353.163 61.7966 363.78Z" fill="#00BFA6"/>
<path d="M66.5318 316.592L63.3939 302.227C62.7392 298.826 62.9035 295.319 63.8732 291.994C63.9788 291.654 64.1061 291.32 64.2543 290.996C65.1229 289.107 66.4885 287.49 68.2059 286.314C69.9232 285.139 71.928 284.45 74.0067 284.321C81.1381 283.83 82.185 284.579 82.4429 284.949C86.4726 284.787 89.5974 286.34 91.0231 289.214C91.1627 289.499 91.238 289.811 91.2435 290.129C91.2491 290.446 91.1848 290.761 91.0552 291.051C90.9256 291.34 90.7338 291.599 90.4934 291.807C90.253 292.015 89.9698 292.167 89.6638 292.254C87.6722 292.827 84.8729 293.463 82.7735 293.276C78.5654 298.311 80.2857 307.535 84.555 313.031L84.7228 313.247L80.4928 314.112L75.5772 307.284C75.4799 307.149 75.3391 307.051 75.1783 307.007C75.0174 306.963 74.8463 306.976 74.6936 307.042C74.5409 307.109 74.4157 307.226 74.3391 307.374C74.2625 307.522 74.239 307.691 74.2726 307.854L75.7651 315.086L66.5318 316.592Z" fill="#2F2E41"/>
<path d="M295.818 449H0V448.258H295.953L295.818 449Z" fill="#CACACA"/>
<path d="M127.129 355.274L49.9707 409.697L31.481 383.617L108.639 329.194L127.129 355.274Z" fill="white"/>
<path d="M57.5266 392.734C60.5475 390.604 61.2647 386.434 59.1284 383.42C56.9921 380.407 52.8114 379.692 49.7904 381.823C46.7695 383.953 46.0523 388.123 48.1886 391.137C50.3249 394.15 54.5057 394.865 57.5266 392.734Z" fill="#00BFA6"/>
<path d="M63.7126 374.731C63.4708 374.901 63.3069 375.161 63.2568 375.452C63.2067 375.743 63.2747 376.042 63.4456 376.283C63.6166 376.524 63.8767 376.688 64.1685 376.738C64.4604 376.788 64.7602 376.72 65.002 376.549L107.98 346.235C108.221 346.064 108.384 345.805 108.433 345.514C108.483 345.224 108.415 344.925 108.244 344.684C108.074 344.444 107.814 344.28 107.523 344.23C107.232 344.18 106.932 344.247 106.69 344.416L63.7126 374.731Z" fill="#E6E6E6"/>
<path d="M67.5805 380.187C67.3387 380.357 67.1745 380.616 67.124 380.907C67.0736 381.197 67.1409 381.496 67.3112 381.738C67.4816 381.979 67.741 382.143 68.0326 382.194C68.3241 382.244 68.6239 382.178 68.866 382.008L68.8699 382.005L102.684 358.155C102.926 357.984 103.09 357.725 103.14 357.434C103.19 357.142 103.122 356.843 102.951 356.602C102.866 356.483 102.759 356.381 102.635 356.303C102.511 356.225 102.372 356.172 102.228 356.148C101.936 356.098 101.636 356.165 101.394 356.336L67.5805 380.187Z" fill="#E6E6E6"/>
<path d="M127.129 355.274L49.9707 409.697L31.481 383.617L108.639 329.194L127.129 355.274ZM50.4212 407.078L124.503 354.825L108.189 331.813L34.1066 384.067L50.4212 407.078Z" fill="#E6E6E6"/>
<path d="M303.312 345.611C303.585 345.601 303.858 345.647 304.113 345.747C304.355 345.844 304.574 345.989 304.757 346.174C304.94 346.361 305.083 346.582 305.178 346.826C305.277 347.084 305.322 347.36 305.311 347.637C305.3 347.92 305.233 348.199 305.116 348.457C305.001 348.711 304.841 348.942 304.644 349.138C304.448 349.334 304.218 349.492 303.965 349.605C303.708 349.72 303.431 349.783 303.15 349.791C302.876 349.799 302.603 349.75 302.349 349.647C302.109 349.549 301.891 349.403 301.71 349.217C301.528 349.03 301.386 348.808 301.293 348.565C301.196 348.308 301.152 348.033 301.164 347.758C301.175 347.476 301.241 347.199 301.358 346.941C301.472 346.69 301.631 346.462 301.826 346.267C302.021 346.072 302.249 345.913 302.5 345.8C302.756 345.684 303.031 345.62 303.312 345.611Z" fill="#F2F2F2"/>
<path d="M86.3849 372.141L81.3674 344.782L81.7208 327.863L70.4124 327.51L72.5327 346.544L79.8446 372.939C79.2377 373.675 78.8658 374.575 78.7769 375.523C78.688 376.472 78.8862 377.426 79.3458 378.261C79.8055 379.096 80.5056 379.775 81.3557 380.209C82.2058 380.644 83.167 380.814 84.1152 380.698C85.0633 380.583 85.955 380.186 86.6751 379.56C87.3952 378.934 87.9106 378.107 88.1549 377.186C88.3992 376.265 88.3612 375.292 88.0457 374.393C87.7302 373.493 87.1517 372.709 86.3849 372.141H86.3849Z" fill="#FFB8B8"/>
<path d="M69.7058 329.273C73.8029 327.716 78.3307 327.716 82.4278 329.273L81.721 315.173C81.721 314.433 81.5748 313.699 81.2906 313.015C81.0065 312.331 80.59 311.709 80.065 311.185C79.5399 310.662 78.9166 310.246 78.2306 309.963C77.5446 309.679 76.8093 309.534 76.0668 309.534C75.3243 309.534 74.589 309.679 73.903 309.963C73.217 310.246 72.5937 310.662 72.0687 311.185C71.5436 311.709 71.1272 312.331 70.843 313.015C70.5588 313.699 70.4126 314.433 70.4126 315.173L69.7058 329.273Z" fill="#00BFA6"/>
</g>
<defs>
<clipPath id="clip0_1241_3">
<rect width="309" height="191" fill="white" transform="translate(0 258)"/>
</clipPath>
</defs>
</svg>
