<svg width="168" height="42" viewBox="0 0 168 42" fill="none" xmlns="http://www.w3.org/2000/svg">
<path d="M6.396 29.668C6.98 29.788 7.424 30.024 7.728 30.376C8.032 30.72 8.184 31.172 8.184 31.732C8.184 32.46 7.924 33.02 7.404 33.412C6.892 33.804 6.136 34 5.136 34H1.416V25.6H4.908C5.804 25.6 6.504 25.784 7.008 26.152C7.512 26.52 7.764 27.052 7.764 27.748C7.764 28.22 7.644 28.62 7.404 28.948C7.164 29.268 6.828 29.508 6.396 29.668ZM2.292 29.404H4.86C5.508 29.404 6.004 29.272 6.348 29.008C6.7 28.744 6.876 28.36 6.876 27.856C6.876 27.352 6.7 26.968 6.348 26.704C6.004 26.44 5.508 26.308 4.86 26.308H2.292V29.404ZM5.136 33.292C6.584 33.292 7.308 32.752 7.308 31.672C7.308 30.616 6.584 30.088 5.136 30.088H2.292V33.292H5.136ZM12.3723 27.64C13.1963 27.64 13.8283 27.848 14.2683 28.264C14.7083 28.672 14.9283 29.28 14.9283 30.088V34H14.1123V33.016C13.9203 33.344 13.6363 33.6 13.2603 33.784C12.8923 33.968 12.4523 34.06 11.9403 34.06C11.2363 34.06 10.6763 33.892 10.2603 33.556C9.84428 33.22 9.63628 32.776 9.63628 32.224C9.63628 31.688 9.82828 31.256 10.2123 30.928C10.6043 30.6 11.2243 30.436 12.0723 30.436H14.0763V30.052C14.0763 29.508 13.9243 29.096 13.6203 28.816C13.3163 28.528 12.8723 28.384 12.2883 28.384C11.8883 28.384 11.5043 28.452 11.1363 28.588C10.7683 28.716 10.4523 28.896 10.1883 29.128L9.80428 28.492C10.1243 28.22 10.5083 28.012 10.9563 27.868C11.4043 27.716 11.8763 27.64 12.3723 27.64ZM12.0723 33.388C12.5523 33.388 12.9643 33.28 13.3083 33.064C13.6523 32.84 13.9083 32.52 14.0763 32.104V31.072H12.0963C11.0163 31.072 10.4763 31.448 10.4763 32.2C10.4763 32.568 10.6163 32.86 10.8963 33.076C11.1763 33.284 11.5683 33.388 12.0723 33.388ZM25.9084 27.688V34H17.1964V27.688H18.0484V33.256H21.1444V27.688H21.9964V33.256H25.0564V27.688H25.9084ZM34.0855 34.06C33.4775 34.06 32.9295 33.924 32.4415 33.652C31.9535 33.372 31.5695 32.988 31.2895 32.5C31.0095 32.012 30.8695 31.46 30.8695 30.844C30.8695 30.228 31.0095 29.676 31.2895 29.188C31.5695 28.7 31.9535 28.32 32.4415 28.048C32.9295 27.776 33.4775 27.64 34.0855 27.64C34.6935 27.64 35.2415 27.776 35.7295 28.048C36.2175 28.32 36.5975 28.7 36.8695 29.188C37.1495 29.676 37.2895 30.228 37.2895 30.844C37.2895 31.46 37.1495 32.012 36.8695 32.5C36.5975 32.988 36.2175 33.372 35.7295 33.652C35.2415 33.924 34.6935 34.06 34.0855 34.06ZM34.0855 33.304C34.5335 33.304 34.9335 33.204 35.2855 33.004C35.6455 32.796 35.9255 32.504 36.1255 32.128C36.3255 31.752 36.4255 31.324 36.4255 30.844C36.4255 30.364 36.3255 29.936 36.1255 29.56C35.9255 29.184 35.6455 28.896 35.2855 28.696C34.9335 28.488 34.5335 28.384 34.0855 28.384C33.6375 28.384 33.2335 28.488 32.8735 28.696C32.5215 28.896 32.2415 29.184 32.0335 29.56C31.8335 29.936 31.7335 30.364 31.7335 30.844C31.7335 31.324 31.8335 31.752 32.0335 32.128C32.2415 32.504 32.5215 32.796 32.8735 33.004C33.2335 33.204 33.6375 33.304 34.0855 33.304ZM39.1104 27.688H39.9624V30.484H43.9344V27.688H44.7864V34H43.9344V31.216H39.9624V34H39.1104V27.688ZM52.3681 27.688V34H51.5161V28.444H48.4921L48.4081 30.004C48.3441 31.316 48.1921 32.324 47.9521 33.028C47.7121 33.732 47.2841 34.084 46.6681 34.084C46.5001 34.084 46.2961 34.052 46.0561 33.988L46.1161 33.256C46.2601 33.288 46.3601 33.304 46.4161 33.304C46.7441 33.304 46.9921 33.152 47.1601 32.848C47.3281 32.544 47.4401 32.168 47.4961 31.72C47.5521 31.272 47.6001 30.68 47.6401 29.944L47.7481 27.688H52.3681ZM56.9621 27.64C57.7861 27.64 58.4181 27.848 58.8581 28.264C59.2981 28.672 59.5181 29.28 59.5181 30.088V34H58.7021V33.016C58.5101 33.344 58.2261 33.6 57.8501 33.784C57.4821 33.968 57.0421 34.06 56.5301 34.06C55.8261 34.06 55.2661 33.892 54.8501 33.556C54.4341 33.22 54.2261 32.776 54.2261 32.224C54.2261 31.688 54.4181 31.256 54.8021 30.928C55.1941 30.6 55.8141 30.436 56.6621 30.436H58.6661V30.052C58.6661 29.508 58.5141 29.096 58.2101 28.816C57.9061 28.528 57.4621 28.384 56.8781 28.384C56.4781 28.384 56.0941 28.452 55.7261 28.588C55.3581 28.716 55.0421 28.896 54.7781 29.128L54.3941 28.492C54.7141 28.22 55.0981 28.012 55.5461 27.868C55.9941 27.716 56.4661 27.64 56.9621 27.64ZM56.6621 33.388C57.1421 33.388 57.5541 33.28 57.8981 33.064C58.2421 32.84 58.4981 32.52 58.6661 32.104V31.072H56.6861C55.6061 31.072 55.0661 31.448 55.0661 32.2C55.0661 32.568 55.2061 32.86 55.4861 33.076C55.7661 33.284 56.1581 33.388 56.6621 33.388ZM61.7862 27.688H62.6382V32.704L66.8502 27.688H67.6062V34H66.7542V28.984L62.5542 34H61.7862V27.688ZM64.6542 26.776C64.1102 26.776 63.6782 26.64 63.3582 26.368C63.0382 26.096 62.8742 25.712 62.8662 25.216H63.4782C63.4862 25.528 63.5982 25.78 63.8142 25.972C64.0302 26.156 64.3102 26.248 64.6542 26.248C64.9982 26.248 65.2782 26.156 65.4942 25.972C65.7182 25.78 65.8342 25.528 65.8422 25.216H66.4542C66.4462 25.712 66.2782 26.096 65.9502 26.368C65.6302 26.64 65.1982 26.776 64.6542 26.776ZM70.0479 27.688H70.8999V30.484H74.8719V27.688H75.7239V34H74.8719V31.216H70.8999V34H70.0479V27.688ZM84.5382 27.64C85.1302 27.64 85.6662 27.776 86.1462 28.048C86.6262 28.312 87.0022 28.688 87.2742 29.176C87.5462 29.664 87.6822 30.22 87.6822 30.844C87.6822 31.476 87.5462 32.036 87.2742 32.524C87.0022 33.012 86.6262 33.392 86.1462 33.664C85.6742 33.928 85.1382 34.06 84.5382 34.06C84.0262 34.06 83.5622 33.956 83.1462 33.748C82.7382 33.532 82.4022 33.22 82.1382 32.812V36.328H81.2862V27.688H82.1022V28.936C82.3582 28.52 82.6942 28.2 83.1102 27.976C83.5342 27.752 84.0102 27.64 84.5382 27.64ZM84.4782 33.304C84.9182 33.304 85.3182 33.204 85.6782 33.004C86.0382 32.796 86.3182 32.504 86.5182 32.128C86.7262 31.752 86.8302 31.324 86.8302 30.844C86.8302 30.364 86.7262 29.94 86.5182 29.572C86.3182 29.196 86.0382 28.904 85.6782 28.696C85.3182 28.488 84.9182 28.384 84.4782 28.384C84.0302 28.384 83.6262 28.488 83.2662 28.696C82.9142 28.904 82.6342 29.196 82.4262 29.572C82.2262 29.94 82.1262 30.364 82.1262 30.844C82.1262 31.324 82.2262 31.752 82.4262 32.128C82.6342 32.504 82.9142 32.796 83.2662 33.004C83.6262 33.204 84.0302 33.304 84.4782 33.304ZM95.0328 31.108H89.7528C89.8008 31.764 90.0528 32.296 90.5088 32.704C90.9648 33.104 91.5408 33.304 92.2368 33.304C92.6288 33.304 92.9888 33.236 93.3168 33.1C93.6448 32.956 93.9288 32.748 94.1688 32.476L94.6488 33.028C94.3688 33.364 94.0168 33.62 93.5928 33.796C93.1768 33.972 92.7168 34.06 92.2128 34.06C91.5648 34.06 90.9888 33.924 90.4848 33.652C89.9888 33.372 89.6008 32.988 89.3208 32.5C89.0408 32.012 88.9008 31.46 88.9008 30.844C88.9008 30.228 89.0328 29.676 89.2968 29.188C89.5688 28.7 89.9368 28.32 90.4008 28.048C90.8728 27.776 91.4008 27.64 91.9848 27.64C92.5688 27.64 93.0928 27.776 93.5568 28.048C94.0208 28.32 94.3848 28.7 94.6488 29.188C94.9128 29.668 95.0448 30.22 95.0448 30.844L95.0328 31.108ZM91.9848 28.372C91.3768 28.372 90.8648 28.568 90.4488 28.96C90.0408 29.344 89.8088 29.848 89.7528 30.472H94.2288C94.1728 29.848 93.9368 29.344 93.5208 28.96C93.1128 28.568 92.6008 28.372 91.9848 28.372ZM103.507 33.256V35.584H102.703V34H96.9308V27.688H97.7828V33.256H101.635V27.688H102.487V33.256H103.507ZM110.654 31.108H105.374C105.422 31.764 105.674 32.296 106.13 32.704C106.586 33.104 107.162 33.304 107.858 33.304C108.25 33.304 108.61 33.236 108.938 33.1C109.266 32.956 109.55 32.748 109.79 32.476L110.27 33.028C109.99 33.364 109.638 33.62 109.214 33.796C108.798 33.972 108.338 34.06 107.834 34.06C107.186 34.06 106.61 33.924 106.106 33.652C105.61 33.372 105.222 32.988 104.942 32.5C104.662 32.012 104.522 31.46 104.522 30.844C104.522 30.228 104.654 29.676 104.918 29.188C105.19 28.7 105.558 28.32 106.022 28.048C106.494 27.776 107.022 27.64 107.606 27.64C108.19 27.64 108.714 27.776 109.178 28.048C109.642 28.32 110.006 28.7 110.27 29.188C110.534 29.668 110.666 30.22 110.666 30.844L110.654 31.108ZM107.606 28.372C106.998 28.372 106.486 28.568 106.07 28.96C105.662 29.344 105.43 29.848 105.374 30.472H109.85C109.794 29.848 109.558 29.344 109.142 28.96C108.734 28.568 108.222 28.372 107.606 28.372ZM112.552 27.688H113.404V30.484H117.376V27.688H118.228V34H117.376V31.216H113.404V34H112.552V27.688ZM123.593 30.712C124.041 30.816 124.385 30.996 124.625 31.252C124.873 31.508 124.997 31.82 124.997 32.188C124.997 32.556 124.869 32.884 124.613 33.172C124.365 33.46 124.025 33.684 123.593 33.844C123.161 33.996 122.685 34.072 122.165 34.072C121.709 34.072 121.261 34.008 120.821 33.88C120.381 33.744 119.997 33.548 119.669 33.292L119.957 32.656C120.245 32.872 120.581 33.04 120.965 33.16C121.349 33.28 121.737 33.34 122.129 33.34C122.713 33.34 123.189 33.232 123.557 33.016C123.933 32.792 124.121 32.492 124.121 32.116C124.121 31.78 123.969 31.52 123.665 31.336C123.361 31.144 122.945 31.048 122.417 31.048H121.337V30.424H122.369C122.841 30.424 123.221 30.336 123.509 30.16C123.797 29.976 123.941 29.732 123.941 29.428C123.941 29.092 123.777 28.828 123.449 28.636C123.129 28.444 122.709 28.348 122.189 28.348C121.509 28.348 120.837 28.52 120.173 28.864L119.933 28.204C120.685 27.812 121.465 27.616 122.273 27.616C122.753 27.616 123.185 27.688 123.569 27.832C123.961 27.968 124.265 28.164 124.481 28.42C124.705 28.676 124.817 28.972 124.817 29.308C124.817 29.628 124.705 29.912 124.481 30.16C124.265 30.408 123.969 30.592 123.593 30.712ZM132.451 31.108H127.171C127.219 31.764 127.471 32.296 127.927 32.704C128.383 33.104 128.959 33.304 129.655 33.304C130.047 33.304 130.407 33.236 130.735 33.1C131.063 32.956 131.347 32.748 131.587 32.476L132.067 33.028C131.787 33.364 131.435 33.62 131.011 33.796C130.595 33.972 130.135 34.06 129.631 34.06C128.983 34.06 128.407 33.924 127.903 33.652C127.407 33.372 127.019 32.988 126.739 32.5C126.459 32.012 126.319 31.46 126.319 30.844C126.319 30.228 126.451 29.676 126.715 29.188C126.987 28.7 127.355 28.32 127.819 28.048C128.291 27.776 128.819 27.64 129.403 27.64C129.987 27.64 130.511 27.776 130.975 28.048C131.439 28.32 131.803 28.7 132.067 29.188C132.331 29.668 132.463 30.22 132.463 30.844L132.451 31.108ZM129.403 28.372C128.795 28.372 128.283 28.568 127.867 28.96C127.459 29.344 127.227 29.848 127.171 30.472H131.647C131.591 29.848 131.355 29.344 130.939 28.96C130.531 28.568 130.019 28.372 129.403 28.372ZM134.349 27.688H135.201V30.484H139.173V27.688H140.025V34H139.173V31.216H135.201V34H134.349V27.688ZM146.886 28.444H144.498V34H143.646V28.444H141.258V27.688H146.886V28.444Z" fill="white"/>
<g clip-path="url(#clip0_48_230)">
<path d="M168.001 32.0212V16.9345C168.001 14.2136 165.787 12 163.066 12C160.345 12 158.132 14.2136 158.132 16.9345V32.0212C158.129 32.1465 158.155 32.2794 158.208 32.3974L161.711 40.2422H140.647C140.177 40.2422 139.759 39.8684 139.759 39.3396C139.759 38.8496 140.157 38.451 140.647 38.451H150.988C152.447 38.451 153.634 37.2638 153.634 35.8045C153.634 34.3453 152.447 33.1581 150.988 33.1581H145.476C144.99 33.1581 144.597 33.5517 144.597 34.0371C144.597 34.5224 144.99 34.916 145.476 34.916H150.988C151.478 34.916 151.877 35.3146 151.877 35.8045C151.877 36.2945 151.478 36.6932 150.988 36.6932H140.647C139.211 36.6932 138.001 37.8519 138.001 39.3536C138.001 40.8128 139.188 42 140.647 42H163.066C163.43 42 163.736 41.784 163.876 41.4625L167.925 32.3975C167.975 32.2845 168.003 32.1526 168.001 32.0212ZM164.917 34.8223H161.216L160.365 32.918H165.767L164.917 34.8223ZM163.066 38.9657L162.001 36.5801H164.132L163.066 38.9657ZM162.187 18.5228V31.16H159.89V18.5228H162.187ZM166.243 18.5228V31.16H163.945V18.5228H166.243ZM163.066 13.7578C164.761 13.7578 166.15 15.0919 166.238 16.765H159.894C159.983 15.0919 161.371 13.7578 163.066 13.7578Z" fill="#28DF99"/>
</g>
<path d="M2.93945 9.49316V13H0.888672V3.04688H4.77148C5.51888 3.04688 6.17513 3.18359 6.74023 3.45703C7.3099 3.73047 7.7474 4.12012 8.05273 4.62598C8.35807 5.12728 8.51074 5.69922 8.51074 6.3418C8.51074 7.31706 8.17578 8.08724 7.50586 8.65234C6.84049 9.21289 5.91764 9.49316 4.7373 9.49316H2.93945ZM2.93945 7.83203H4.77148C5.3138 7.83203 5.72624 7.70443 6.00879 7.44922C6.2959 7.19401 6.43945 6.82943 6.43945 6.35547C6.43945 5.86784 6.2959 5.47363 6.00879 5.17285C5.72168 4.87207 5.3252 4.71712 4.81934 4.70801H2.93945V7.83203ZM15.9141 8.68652H11.9766V11.3525H16.5977V13H9.92578V3.04688H16.584V4.70801H11.9766V7.08008H15.9141V8.68652ZM23.7891 8.68652H19.8516V11.3525H24.4727V13H17.8008V3.04688H24.459V4.70801H19.8516V7.08008H23.7891V8.68652ZM29.3604 9.35645H27.7266V13H25.6758V3.04688H29.374C30.5498 3.04688 31.4567 3.30892 32.0947 3.83301C32.7327 4.3571 33.0518 5.09766 33.0518 6.05469C33.0518 6.73372 32.9036 7.30111 32.6074 7.75684C32.3158 8.20801 31.8714 8.56803 31.2744 8.83691L33.4277 12.9043V13H31.2266L29.3604 9.35645ZM27.7266 7.69531H29.3809C29.8958 7.69531 30.2946 7.56543 30.5771 7.30566C30.8597 7.04134 31.001 6.67904 31.001 6.21875C31.001 5.74935 30.8665 5.38021 30.5977 5.11133C30.3333 4.84245 29.9255 4.70801 29.374 4.70801H27.7266V7.69531ZM41.7881 9.35645H40.1543V13H38.1035V3.04688H41.8018C42.9775 3.04688 43.8844 3.30892 44.5225 3.83301C45.1605 4.3571 45.4795 5.09766 45.4795 6.05469C45.4795 6.73372 45.3314 7.30111 45.0352 7.75684C44.7435 8.20801 44.2992 8.56803 43.7021 8.83691L45.8555 12.9043V13H43.6543L41.7881 9.35645ZM40.1543 7.69531H41.8086C42.3236 7.69531 42.7223 7.56543 43.0049 7.30566C43.2874 7.04134 43.4287 6.67904 43.4287 6.21875C43.4287 5.74935 43.2943 5.38021 43.0254 5.11133C42.7611 4.84245 42.3532 4.70801 41.8018 4.70801H40.1543V7.69531ZM53.0332 8.68652H49.0957V11.3525H53.7168V13H47.0449V3.04688H53.7031V4.70801H49.0957V7.08008H53.0332V8.68652ZM58.5977 10.5322L60.8535 3.04688H63.1367L59.6709 13H57.5312L54.0791 3.04688H56.3555L58.5977 10.5322ZM66.2607 13H64.21V3.04688H66.2607V13ZM74.1562 8.68652H70.2188V11.3525H74.8398V13H68.168V3.04688H74.8262V4.70801H70.2188V7.08008H74.1562V8.68652ZM83.7949 10.1289L85.1348 3.04688H87.1787L84.9707 13H82.9062L81.2861 6.3418L79.666 13H77.6016L75.3936 3.04688H77.4375L78.7842 10.1152L80.4248 3.04688H82.1611L83.7949 10.1289ZM93.8301 9.49316V13H91.7793V3.04688H95.6621C96.4095 3.04688 97.0658 3.18359 97.6309 3.45703C98.2005 3.73047 98.638 4.12012 98.9434 4.62598C99.2487 5.12728 99.4014 5.69922 99.4014 6.3418C99.4014 7.31706 99.0664 8.08724 98.3965 8.65234C97.7311 9.21289 96.8083 9.49316 95.6279 9.49316H93.8301ZM93.8301 7.83203H95.6621C96.2044 7.83203 96.6169 7.70443 96.8994 7.44922C97.1865 7.19401 97.3301 6.82943 97.3301 6.35547C97.3301 5.86784 97.1865 5.47363 96.8994 5.17285C96.6123 4.87207 96.2158 4.71712 95.71 4.70801H93.8301V7.83203ZM104.501 9.35645H102.867V13H100.816V3.04688H104.515C105.69 3.04688 106.597 3.30892 107.235 3.83301C107.873 4.3571 108.192 5.09766 108.192 6.05469C108.192 6.73372 108.044 7.30111 107.748 7.75684C107.456 8.20801 107.012 8.56803 106.415 8.83691L108.568 12.9043V13H106.367L104.501 9.35645ZM102.867 7.69531H104.521C105.036 7.69531 105.435 7.56543 105.718 7.30566C106 7.04134 106.142 6.67904 106.142 6.21875C106.142 5.74935 106.007 5.38021 105.738 5.11133C105.474 4.84245 105.066 4.70801 104.515 4.70801H102.867V7.69531ZM117.934 8.24902C117.934 9.22884 117.76 10.0879 117.414 10.8262C117.068 11.5645 116.571 12.1341 115.924 12.5352C115.281 12.9362 114.543 13.1367 113.709 13.1367C112.884 13.1367 112.148 12.9385 111.501 12.542C110.854 12.1455 110.353 11.5804 109.997 10.8467C109.642 10.1084 109.462 9.26074 109.457 8.30371V7.81152C109.457 6.83171 109.632 5.97038 109.983 5.22754C110.339 4.48014 110.838 3.9082 111.48 3.51172C112.128 3.11068 112.866 2.91016 113.695 2.91016C114.525 2.91016 115.261 3.11068 115.903 3.51172C116.55 3.9082 117.049 4.48014 117.4 5.22754C117.756 5.97038 117.934 6.82943 117.934 7.80469V8.24902ZM115.855 7.79785C115.855 6.75423 115.669 5.96126 115.295 5.41895C114.921 4.87663 114.388 4.60547 113.695 4.60547C113.007 4.60547 112.476 4.87435 112.103 5.41211C111.729 5.94531 111.54 6.72917 111.535 7.76367V8.24902C111.535 9.2653 111.722 10.0537 112.096 10.6143C112.469 11.1748 113.007 11.4551 113.709 11.4551C114.397 11.4551 114.926 11.1862 115.295 10.6484C115.664 10.1061 115.851 9.31771 115.855 8.2832V7.79785ZM123.437 3.04688H125.487V9.9375C125.487 10.571 125.346 11.1315 125.063 11.6191C124.785 12.1022 124.391 12.4759 123.881 12.7402C123.37 13.0046 122.794 13.1367 122.151 13.1367C121.099 13.1367 120.278 12.8701 119.69 12.3369C119.103 11.7992 118.809 11.0404 118.809 10.0605H120.873C120.873 10.5482 120.976 10.9082 121.181 11.1406C121.386 11.373 121.709 11.4893 122.151 11.4893C122.543 11.4893 122.855 11.3548 123.088 11.0859C123.32 10.8171 123.437 10.4342 123.437 9.9375V3.04688ZM133.232 8.68652H129.295V11.3525H133.916V13H127.244V3.04688H133.902V4.70801H129.295V7.08008H133.232V8.68652ZM142.933 9.68457C142.855 10.7555 142.459 11.5986 141.743 12.2139C141.032 12.8291 140.093 13.1367 138.927 13.1367C137.651 13.1367 136.646 12.7083 135.912 11.8516C135.183 10.9902 134.818 9.8099 134.818 8.31055V7.70215C134.818 6.74512 134.987 5.90202 135.324 5.17285C135.661 4.44368 136.142 3.88542 136.767 3.49805C137.396 3.10612 138.125 2.91016 138.954 2.91016C140.103 2.91016 141.028 3.21777 141.729 3.83301C142.431 4.44824 142.837 5.31185 142.946 6.42383H140.896C140.845 5.78125 140.665 5.31641 140.355 5.0293C140.05 4.73763 139.583 4.5918 138.954 4.5918C138.271 4.5918 137.758 4.83789 137.416 5.33008C137.079 5.81771 136.906 6.5765 136.896 7.60645V8.3584C136.896 9.43392 137.058 10.2201 137.382 10.7168C137.71 11.2135 138.225 11.4619 138.927 11.4619C139.56 11.4619 140.032 11.3184 140.342 11.0312C140.656 10.7396 140.836 10.2907 140.882 9.68457H142.933ZM151.566 4.70801H148.518V13H146.467V4.70801H143.459V3.04688H151.566V4.70801Z" fill="white"/>
<defs>
<clipPath id="clip0_48_230">
<rect width="30" height="30" fill="white" transform="translate(138 12)"/>
</clipPath>
</defs>
</svg>
