<svg width="169" height="42" viewBox="0 0 169 42" fill="none" xmlns="http://www.w3.org/2000/svg">
<path d="M7.38849 29.668C7.97249 29.788 8.41649 30.024 8.72049 30.376C9.02449 30.72 9.17649 31.172 9.17649 31.732C9.17649 32.46 8.91649 33.02 8.39649 33.412C7.88449 33.804 7.12849 34 6.12849 34H2.40849V25.6H5.90049C6.79649 25.6 7.49649 25.784 8.00049 26.152C8.50449 26.52 8.75649 27.052 8.75649 27.748C8.75649 28.22 8.63649 28.62 8.39649 28.948C8.15649 29.268 7.82049 29.508 7.38849 29.668ZM3.28449 29.404H5.85249C6.50049 29.404 6.99649 29.272 7.34049 29.008C7.69249 28.744 7.86849 28.36 7.86849 27.856C7.86849 27.352 7.69249 26.968 7.34049 26.704C6.99649 26.44 6.50049 26.308 5.85249 26.308H3.28449V29.404ZM6.12849 33.292C7.57649 33.292 8.30049 32.752 8.30049 31.672C8.30049 30.616 7.57649 30.088 6.12849 30.088H3.28449V33.292H6.12849ZM13.3648 27.64C14.1888 27.64 14.8208 27.848 15.2608 28.264C15.7008 28.672 15.9208 29.28 15.9208 30.088V34H15.1048V33.016C14.9128 33.344 14.6288 33.6 14.2528 33.784C13.8848 33.968 13.4448 34.06 12.9328 34.06C12.2288 34.06 11.6688 33.892 11.2528 33.556C10.8368 33.22 10.6288 32.776 10.6288 32.224C10.6288 31.688 10.8208 31.256 11.2048 30.928C11.5968 30.6 12.2168 30.436 13.0648 30.436H15.0688V30.052C15.0688 29.508 14.9168 29.096 14.6128 28.816C14.3088 28.528 13.8648 28.384 13.2808 28.384C12.8808 28.384 12.4968 28.452 12.1288 28.588C11.7608 28.716 11.4448 28.896 11.1808 29.128L10.7968 28.492C11.1168 28.22 11.5008 28.012 11.9488 27.868C12.3968 27.716 12.8688 27.64 13.3648 27.64ZM13.0648 33.388C13.5448 33.388 13.9568 33.28 14.3008 33.064C14.6448 32.84 14.9008 32.52 15.0688 32.104V31.072H13.0888C12.0088 31.072 11.4688 31.448 11.4688 32.2C11.4688 32.568 11.6088 32.86 11.8888 33.076C12.1688 33.284 12.5608 33.388 13.0648 33.388ZM26.9009 27.688V34H18.1889V27.688H19.0409V33.256H22.1369V27.688H22.9889V33.256H26.0489V27.688H26.9009ZM35.078 34.06C34.47 34.06 33.922 33.924 33.434 33.652C32.946 33.372 32.562 32.988 32.282 32.5C32.002 32.012 31.862 31.46 31.862 30.844C31.862 30.228 32.002 29.676 32.282 29.188C32.562 28.7 32.946 28.32 33.434 28.048C33.922 27.776 34.47 27.64 35.078 27.64C35.686 27.64 36.234 27.776 36.722 28.048C37.21 28.32 37.59 28.7 37.862 29.188C38.142 29.676 38.282 30.228 38.282 30.844C38.282 31.46 38.142 32.012 37.862 32.5C37.59 32.988 37.21 33.372 36.722 33.652C36.234 33.924 35.686 34.06 35.078 34.06ZM35.078 33.304C35.526 33.304 35.926 33.204 36.278 33.004C36.638 32.796 36.918 32.504 37.118 32.128C37.318 31.752 37.418 31.324 37.418 30.844C37.418 30.364 37.318 29.936 37.118 29.56C36.918 29.184 36.638 28.896 36.278 28.696C35.926 28.488 35.526 28.384 35.078 28.384C34.63 28.384 34.226 28.488 33.866 28.696C33.514 28.896 33.234 29.184 33.026 29.56C32.826 29.936 32.726 30.364 32.726 30.844C32.726 31.324 32.826 31.752 33.026 32.128C33.234 32.504 33.514 32.796 33.866 33.004C34.226 33.204 34.63 33.304 35.078 33.304ZM40.1029 27.688H40.9549V30.484H44.9269V27.688H45.7789V34H44.9269V31.216H40.9549V34H40.1029V27.688ZM53.3606 27.688V34H52.5086V28.444H49.4846L49.4006 30.004C49.3366 31.316 49.1846 32.324 48.9446 33.028C48.7046 33.732 48.2766 34.084 47.6606 34.084C47.4926 34.084 47.2886 34.052 47.0486 33.988L47.1086 33.256C47.2526 33.288 47.3526 33.304 47.4086 33.304C47.7366 33.304 47.9846 33.152 48.1526 32.848C48.3206 32.544 48.4326 32.168 48.4886 31.72C48.5446 31.272 48.5926 30.68 48.6326 29.944L48.7406 27.688H53.3606ZM57.9546 27.64C58.7786 27.64 59.4106 27.848 59.8506 28.264C60.2906 28.672 60.5106 29.28 60.5106 30.088V34H59.6946V33.016C59.5026 33.344 59.2186 33.6 58.8426 33.784C58.4746 33.968 58.0346 34.06 57.5226 34.06C56.8186 34.06 56.2586 33.892 55.8426 33.556C55.4266 33.22 55.2186 32.776 55.2186 32.224C55.2186 31.688 55.4106 31.256 55.7946 30.928C56.1866 30.6 56.8066 30.436 57.6546 30.436H59.6586V30.052C59.6586 29.508 59.5066 29.096 59.2026 28.816C58.8986 28.528 58.4546 28.384 57.8706 28.384C57.4706 28.384 57.0866 28.452 56.7186 28.588C56.3506 28.716 56.0346 28.896 55.7706 29.128L55.3866 28.492C55.7066 28.22 56.0906 28.012 56.5386 27.868C56.9866 27.716 57.4586 27.64 57.9546 27.64ZM57.6546 33.388C58.1346 33.388 58.5466 33.28 58.8906 33.064C59.2346 32.84 59.4906 32.52 59.6586 32.104V31.072H57.6786C56.5986 31.072 56.0586 31.448 56.0586 32.2C56.0586 32.568 56.1986 32.86 56.4786 33.076C56.7586 33.284 57.1506 33.388 57.6546 33.388ZM62.7787 27.688H63.6307V32.704L67.8427 27.688H68.5987V34H67.7467V28.984L63.5467 34H62.7787V27.688ZM65.6467 26.776C65.1027 26.776 64.6707 26.64 64.3507 26.368C64.0307 26.096 63.8667 25.712 63.8587 25.216H64.4707C64.4787 25.528 64.5907 25.78 64.8067 25.972C65.0227 26.156 65.3027 26.248 65.6467 26.248C65.9907 26.248 66.2707 26.156 66.4867 25.972C66.7107 25.78 66.8267 25.528 66.8347 25.216H67.4467C67.4387 25.712 67.2707 26.096 66.9427 26.368C66.6227 26.64 66.1907 26.776 65.6467 26.776ZM71.0404 27.688H71.8924V30.484H75.8644V27.688H76.7164V34H75.8644V31.216H71.8924V34H71.0404V27.688ZM85.5307 27.64C86.1227 27.64 86.6587 27.776 87.1387 28.048C87.6187 28.312 87.9947 28.688 88.2667 29.176C88.5387 29.664 88.6747 30.22 88.6747 30.844C88.6747 31.476 88.5387 32.036 88.2667 32.524C87.9947 33.012 87.6187 33.392 87.1387 33.664C86.6667 33.928 86.1307 34.06 85.5307 34.06C85.0187 34.06 84.5547 33.956 84.1387 33.748C83.7307 33.532 83.3947 33.22 83.1307 32.812V36.328H82.2787V27.688H83.0947V28.936C83.3507 28.52 83.6867 28.2 84.1027 27.976C84.5267 27.752 85.0027 27.64 85.5307 27.64ZM85.4707 33.304C85.9107 33.304 86.3107 33.204 86.6707 33.004C87.0307 32.796 87.3107 32.504 87.5107 32.128C87.7187 31.752 87.8227 31.324 87.8227 30.844C87.8227 30.364 87.7187 29.94 87.5107 29.572C87.3107 29.196 87.0307 28.904 86.6707 28.696C86.3107 28.488 85.9107 28.384 85.4707 28.384C85.0227 28.384 84.6187 28.488 84.2587 28.696C83.9067 28.904 83.6267 29.196 83.4187 29.572C83.2187 29.94 83.1187 30.364 83.1187 30.844C83.1187 31.324 83.2187 31.752 83.4187 32.128C83.6267 32.504 83.9067 32.796 84.2587 33.004C84.6187 33.204 85.0227 33.304 85.4707 33.304ZM96.0253 31.108H90.7453C90.7933 31.764 91.0453 32.296 91.5013 32.704C91.9573 33.104 92.5333 33.304 93.2293 33.304C93.6213 33.304 93.9813 33.236 94.3093 33.1C94.6373 32.956 94.9213 32.748 95.1613 32.476L95.6413 33.028C95.3613 33.364 95.0093 33.62 94.5853 33.796C94.1693 33.972 93.7093 34.06 93.2053 34.06C92.5573 34.06 91.9813 33.924 91.4773 33.652C90.9813 33.372 90.5933 32.988 90.3133 32.5C90.0333 32.012 89.8933 31.46 89.8933 30.844C89.8933 30.228 90.0253 29.676 90.2893 29.188C90.5613 28.7 90.9293 28.32 91.3933 28.048C91.8653 27.776 92.3933 27.64 92.9773 27.64C93.5613 27.64 94.0853 27.776 94.5493 28.048C95.0133 28.32 95.3773 28.7 95.6413 29.188C95.9053 29.668 96.0373 30.22 96.0373 30.844L96.0253 31.108ZM92.9773 28.372C92.3693 28.372 91.8573 28.568 91.4413 28.96C91.0333 29.344 90.8013 29.848 90.7453 30.472H95.2213C95.1653 29.848 94.9293 29.344 94.5133 28.96C94.1053 28.568 93.5933 28.372 92.9773 28.372ZM104.499 33.256V35.584H103.695V34H97.9232V27.688H98.7752V33.256H102.627V27.688H103.479V33.256H104.499ZM111.646 31.108H106.366C106.414 31.764 106.666 32.296 107.122 32.704C107.578 33.104 108.154 33.304 108.85 33.304C109.242 33.304 109.602 33.236 109.93 33.1C110.258 32.956 110.542 32.748 110.782 32.476L111.262 33.028C110.982 33.364 110.63 33.62 110.206 33.796C109.79 33.972 109.33 34.06 108.826 34.06C108.178 34.06 107.602 33.924 107.098 33.652C106.602 33.372 106.214 32.988 105.934 32.5C105.654 32.012 105.514 31.46 105.514 30.844C105.514 30.228 105.646 29.676 105.91 29.188C106.182 28.7 106.55 28.32 107.014 28.048C107.486 27.776 108.014 27.64 108.598 27.64C109.182 27.64 109.706 27.776 110.17 28.048C110.634 28.32 110.998 28.7 111.262 29.188C111.526 29.668 111.658 30.22 111.658 30.844L111.646 31.108ZM108.598 28.372C107.99 28.372 107.478 28.568 107.062 28.96C106.654 29.344 106.422 29.848 106.366 30.472H110.842C110.786 29.848 110.55 29.344 110.134 28.96C109.726 28.568 109.214 28.372 108.598 28.372ZM113.544 27.688H114.396V30.484H118.368V27.688H119.22V34H118.368V31.216H114.396V34H113.544V27.688ZM124.585 30.712C125.033 30.816 125.377 30.996 125.617 31.252C125.865 31.508 125.989 31.82 125.989 32.188C125.989 32.556 125.861 32.884 125.605 33.172C125.357 33.46 125.017 33.684 124.585 33.844C124.153 33.996 123.677 34.072 123.157 34.072C122.701 34.072 122.253 34.008 121.813 33.88C121.373 33.744 120.989 33.548 120.661 33.292L120.949 32.656C121.237 32.872 121.573 33.04 121.957 33.16C122.341 33.28 122.729 33.34 123.121 33.34C123.705 33.34 124.181 33.232 124.549 33.016C124.925 32.792 125.113 32.492 125.113 32.116C125.113 31.78 124.961 31.52 124.657 31.336C124.353 31.144 123.937 31.048 123.409 31.048H122.329V30.424H123.361C123.833 30.424 124.213 30.336 124.501 30.16C124.789 29.976 124.933 29.732 124.933 29.428C124.933 29.092 124.769 28.828 124.441 28.636C124.121 28.444 123.701 28.348 123.181 28.348C122.501 28.348 121.829 28.52 121.165 28.864L120.925 28.204C121.677 27.812 122.457 27.616 123.265 27.616C123.745 27.616 124.177 27.688 124.561 27.832C124.953 27.968 125.257 28.164 125.473 28.42C125.697 28.676 125.809 28.972 125.809 29.308C125.809 29.628 125.697 29.912 125.473 30.16C125.257 30.408 124.961 30.592 124.585 30.712ZM133.443 31.108H128.163C128.211 31.764 128.463 32.296 128.919 32.704C129.375 33.104 129.951 33.304 130.647 33.304C131.039 33.304 131.399 33.236 131.727 33.1C132.055 32.956 132.339 32.748 132.579 32.476L133.059 33.028C132.779 33.364 132.427 33.62 132.003 33.796C131.587 33.972 131.127 34.06 130.623 34.06C129.975 34.06 129.399 33.924 128.895 33.652C128.399 33.372 128.011 32.988 127.731 32.5C127.451 32.012 127.311 31.46 127.311 30.844C127.311 30.228 127.443 29.676 127.707 29.188C127.979 28.7 128.347 28.32 128.811 28.048C129.283 27.776 129.811 27.64 130.395 27.64C130.979 27.64 131.503 27.776 131.967 28.048C132.431 28.32 132.795 28.7 133.059 29.188C133.323 29.668 133.455 30.22 133.455 30.844L133.443 31.108ZM130.395 28.372C129.787 28.372 129.275 28.568 128.859 28.96C128.451 29.344 128.219 29.848 128.163 30.472H132.639C132.583 29.848 132.347 29.344 131.931 28.96C131.523 28.568 131.011 28.372 130.395 28.372ZM135.341 27.688H136.193V30.484H140.165V27.688H141.017V34H140.165V31.216H136.193V34H135.341V27.688ZM147.879 28.444H145.491V34H144.639V28.444H142.251V27.688H147.879V28.444Z" fill="black"/>
<g clip-path="url(#clip0_6_8)">
<path d="M168.993 32.0212V16.9345C168.993 14.2136 166.78 12 164.059 12C161.338 12 159.124 14.2136 159.124 16.9345V32.0212C159.122 32.1465 159.148 32.2794 159.2 32.3974L162.704 40.2422H141.64C141.169 40.2422 140.751 39.8684 140.751 39.3396C140.751 38.8496 141.15 38.451 141.64 38.451H151.98C153.44 38.451 154.627 37.2638 154.627 35.8045C154.627 34.3453 153.44 33.1581 151.98 33.1581H146.468C145.983 33.1581 145.589 33.5517 145.589 34.0371C145.589 34.5224 145.983 34.916 146.468 34.916H151.98C152.47 34.916 152.869 35.3146 152.869 35.8045C152.869 36.2945 152.47 36.6932 151.98 36.6932H141.64C140.204 36.6932 138.993 37.8519 138.993 39.3536C138.993 40.8128 140.181 42 141.64 42H164.059C164.423 42 164.729 41.784 164.869 41.4625L168.917 32.3975C168.968 32.2845 168.996 32.1526 168.993 32.0212ZM165.909 34.8223H162.208L161.358 32.918H166.759L165.909 34.8223ZM164.059 38.9657L162.993 36.5801H165.124L164.059 38.9657ZM163.18 18.5228V31.16H160.882V18.5228H163.18ZM167.235 18.5228V31.16H164.938V18.5228H167.235ZM164.059 13.7578C165.754 13.7578 167.142 15.0919 167.231 16.765H160.887C160.975 15.0919 162.364 13.7578 164.059 13.7578Z" fill="#28DF99"/>
</g>
<path d="M3.93195 9.49316V13H1.88116V3.04688H5.76398C6.51137 3.04688 7.16762 3.18359 7.73273 3.45703C8.30239 3.73047 8.73989 4.12012 9.04523 4.62598C9.35057 5.12728 9.50323 5.69922 9.50323 6.3418C9.50323 7.31706 9.16827 8.08724 8.49835 8.65234C7.83299 9.21289 6.91014 9.49316 5.7298 9.49316H3.93195ZM3.93195 7.83203H5.76398C6.30629 7.83203 6.71873 7.70443 7.00128 7.44922C7.28839 7.19401 7.43195 6.82943 7.43195 6.35547C7.43195 5.86784 7.28839 5.47363 7.00128 5.17285C6.71417 4.87207 6.31769 4.71712 5.81183 4.70801H3.93195V7.83203ZM16.9066 8.68652H12.9691V11.3525H17.5901V13H10.9183V3.04688H17.5765V4.70801H12.9691V7.08008H16.9066V8.68652ZM24.7816 8.68652H20.8441V11.3525H25.4651V13H18.7933V3.04688H25.4515V4.70801H20.8441V7.08008H24.7816V8.68652ZM30.3528 9.35645H28.7191V13H26.6683V3.04688H30.3665C31.5423 3.04688 32.4492 3.30892 33.0872 3.83301C33.7252 4.3571 34.0443 5.09766 34.0443 6.05469C34.0443 6.73372 33.8961 7.30111 33.5999 7.75684C33.3082 8.20801 32.8639 8.56803 32.2669 8.83691L34.4202 12.9043V13H32.2191L30.3528 9.35645ZM28.7191 7.69531H30.3734C30.8883 7.69531 31.2871 7.56543 31.5696 7.30566C31.8522 7.04134 31.9935 6.67904 31.9935 6.21875C31.9935 5.74935 31.859 5.38021 31.5901 5.11133C31.3258 4.84245 30.9179 4.70801 30.3665 4.70801H28.7191V7.69531ZM42.7806 9.35645H41.1468V13H39.096V3.04688H42.7943C43.97 3.04688 44.8769 3.30892 45.515 3.83301C46.153 4.3571 46.472 5.09766 46.472 6.05469C46.472 6.73372 46.3239 7.30111 46.0276 7.75684C45.736 8.20801 45.2916 8.56803 44.6946 8.83691L46.848 12.9043V13H44.6468L42.7806 9.35645ZM41.1468 7.69531H42.8011C43.3161 7.69531 43.7148 7.56543 43.9974 7.30566C44.2799 7.04134 44.4212 6.67904 44.4212 6.21875C44.4212 5.74935 44.2868 5.38021 44.0179 5.11133C43.7536 4.84245 43.3457 4.70801 42.7943 4.70801H41.1468V7.69531ZM54.0257 8.68652H50.0882V11.3525H54.7093V13H48.0374V3.04688H54.6956V4.70801H50.0882V7.08008H54.0257V8.68652ZM59.5901 10.5322L61.846 3.04688H64.1292L60.6634 13H58.5237L55.0716 3.04688H57.348L59.5901 10.5322ZM67.2532 13H65.2025V3.04688H67.2532V13ZM75.1487 8.68652H71.2112V11.3525H75.8323V13H69.1605V3.04688H75.8187V4.70801H71.2112V7.08008H75.1487V8.68652ZM84.7874 10.1289L86.1273 3.04688H88.1712L85.9632 13H83.8987L82.2786 6.3418L80.6585 13H78.5941L76.386 3.04688H78.43L79.7767 10.1152L81.4173 3.04688H83.1536L84.7874 10.1289ZM94.8226 9.49316V13H92.7718V3.04688H96.6546C97.402 3.04688 98.0582 3.18359 98.6234 3.45703C99.193 3.73047 99.6305 4.12012 99.9359 4.62598C100.241 5.12728 100.394 5.69922 100.394 6.3418C100.394 7.31706 100.059 8.08724 99.389 8.65234C98.7236 9.21289 97.8008 9.49316 96.6204 9.49316H94.8226ZM94.8226 7.83203H96.6546C97.1969 7.83203 97.6094 7.70443 97.8919 7.44922C98.179 7.19401 98.3226 6.82943 98.3226 6.35547C98.3226 5.86784 98.179 5.47363 97.8919 5.17285C97.6048 4.87207 97.2083 4.71712 96.7025 4.70801H94.8226V7.83203ZM105.493 9.35645H103.86V13H101.809V3.04688H105.507C106.683 3.04688 107.59 3.30892 108.228 3.83301C108.866 4.3571 109.185 5.09766 109.185 6.05469C109.185 6.73372 109.037 7.30111 108.741 7.75684C108.449 8.20801 108.005 8.56803 107.408 8.83691L109.561 12.9043V13H107.36L105.493 9.35645ZM103.86 7.69531H105.514C106.029 7.69531 106.428 7.56543 106.71 7.30566C106.993 7.04134 107.134 6.67904 107.134 6.21875C107.134 5.74935 107 5.38021 106.731 5.11133C106.466 4.84245 106.059 4.70801 105.507 4.70801H103.86V7.69531ZM118.926 8.24902C118.926 9.22884 118.753 10.0879 118.407 10.8262C118.06 11.5645 117.563 12.1341 116.916 12.5352C116.274 12.9362 115.535 13.1367 114.701 13.1367C113.877 13.1367 113.141 12.9385 112.493 12.542C111.846 12.1455 111.345 11.5804 110.99 10.8467C110.634 10.1084 110.454 9.26074 110.45 8.30371V7.81152C110.45 6.83171 110.625 5.97038 110.976 5.22754C111.331 4.48014 111.83 3.9082 112.473 3.51172C113.12 3.11068 113.858 2.91016 114.688 2.91016C115.517 2.91016 116.253 3.11068 116.896 3.51172C117.543 3.9082 118.042 4.48014 118.393 5.22754C118.748 5.97038 118.926 6.82943 118.926 7.80469V8.24902ZM116.848 7.79785C116.848 6.75423 116.661 5.96126 116.287 5.41895C115.914 4.87663 115.381 4.60547 114.688 4.60547C114 4.60547 113.469 4.87435 113.095 5.41211C112.721 5.94531 112.532 6.72917 112.528 7.76367V8.24902C112.528 9.2653 112.714 10.0537 113.088 10.6143C113.462 11.1748 114 11.4551 114.701 11.4551C115.39 11.4551 115.918 11.1862 116.287 10.6484C116.657 10.1061 116.843 9.31771 116.848 8.2832V7.79785ZM124.429 3.04688H126.48V9.9375C126.48 10.571 126.339 11.1315 126.056 11.6191C125.778 12.1022 125.384 12.4759 124.873 12.7402C124.363 13.0046 123.786 13.1367 123.144 13.1367C122.091 13.1367 121.271 12.8701 120.683 12.3369C120.095 11.7992 119.801 11.0404 119.801 10.0605H121.866C121.866 10.5482 121.968 10.9082 122.173 11.1406C122.378 11.373 122.702 11.4893 123.144 11.4893C123.536 11.4893 123.848 11.3548 124.08 11.0859C124.313 10.8171 124.429 10.4342 124.429 9.9375V3.04688ZM134.225 8.68652H130.287V11.3525H134.909V13H128.237V3.04688H134.895V4.70801H130.287V7.08008H134.225V8.68652ZM143.925 9.68457C143.848 10.7555 143.451 11.5986 142.736 12.2139C142.025 12.8291 141.086 13.1367 139.919 13.1367C138.643 13.1367 137.638 12.7083 136.905 11.8516C136.175 10.9902 135.811 9.8099 135.811 8.31055V7.70215C135.811 6.74512 135.979 5.90202 136.317 5.17285C136.654 4.44368 137.135 3.88542 137.759 3.49805C138.388 3.10612 139.117 2.91016 139.947 2.91016C141.095 2.91016 142.02 3.21777 142.722 3.83301C143.424 4.44824 143.829 5.31185 143.939 6.42383H141.888C141.838 5.78125 141.658 5.31641 141.348 5.0293C141.043 4.73763 140.576 4.5918 139.947 4.5918C139.263 4.5918 138.75 4.83789 138.409 5.33008C138.071 5.81771 137.898 6.5765 137.889 7.60645V8.3584C137.889 9.43392 138.051 10.2201 138.374 10.7168C138.702 11.2135 139.217 11.4619 139.919 11.4619C140.553 11.4619 141.024 11.3184 141.334 11.0312C141.649 10.7396 141.829 10.2907 141.874 9.68457H143.925ZM152.559 4.70801H149.51V13H147.459V4.70801H144.451V3.04688H152.559V4.70801Z" fill="black"/>
<defs>
<clipPath id="clip0_6_8">
<rect width="30" height="30" fill="white" transform="translate(138.992 12)"/>
</clipPath>
</defs>
</svg>
