<svg width="70" height="70" viewBox="0 0 70 70" fill="none" xmlns="http://www.w3.org/2000/svg">
<path d="M60.5402 32.3338C62.59 30.8933 63.9474 28.4972 63.9474 25.7964C63.9474 21.3781 60.374 17.8047 55.9557 17.8047C51.5374 17.8047 47.964 21.3781 47.964 25.7964C47.964 28.4972 49.3075 30.8933 51.3712 32.3338C49.6122 32.9432 48.0055 33.885 46.6482 35.1038C44.7784 33.5111 42.5762 32.2922 40.1662 31.572C43.0886 29.7991 45.0554 26.572 45.0554 22.9016C45.0554 17.3061 40.5263 12.777 34.9307 12.777C29.3352 12.777 24.8061 17.3199 24.8061 22.9016C24.8061 26.572 26.759 29.7991 29.6953 31.572C27.313 32.2922 25.1385 33.4972 23.2826 35.0623C21.9252 33.8712 20.3463 32.9432 18.615 32.3476C20.6648 30.9072 22.0222 28.5111 22.0222 25.8102C22.0222 21.3919 18.4488 17.8185 14.0305 17.8185C9.61219 17.8185 6.03878 21.3919 6.03878 25.8102C6.03878 28.5111 7.38227 30.9072 9.44598 32.3476C3.94737 34.2451 0 39.4667 0 45.6025V46.5166C0 46.5443 0.0277008 46.572 0.0554017 46.572H16.9945C16.8975 47.3338 16.8421 48.1232 16.8421 48.9127V49.8545C16.8421 53.9266 20.1385 57.223 24.2105 57.223H45.6787C49.7507 57.223 53.0471 53.9266 53.0471 49.8545V48.9127C53.0471 48.1232 52.9917 47.3338 52.8947 46.572H69.9446C69.9723 46.572 70 46.5443 70 46.5166V45.6025C69.9723 39.4529 66.0388 34.2313 60.5402 32.3338ZM50.1801 25.7825C50.1801 22.5969 52.7701 20.0069 55.9557 20.0069C59.1413 20.0069 61.7313 22.5969 61.7313 25.7825C61.7313 28.9266 59.1967 31.4889 56.0665 31.5581C56.0249 31.5581 55.9972 31.5581 55.9557 31.5581C55.9141 31.5581 55.8864 31.5581 55.8449 31.5581C52.7008 31.5027 50.1801 28.9404 50.1801 25.7825ZM26.9945 22.9016C26.9945 18.5388 30.5402 14.993 34.903 14.993C39.2659 14.993 42.8116 18.5388 42.8116 22.9016C42.8116 27.1122 39.5014 30.5609 35.3601 30.7964C35.2078 30.7964 35.0554 30.7964 34.903 30.7964C34.7507 30.7964 34.5983 30.7964 34.446 30.7964C30.3047 30.5609 26.9945 27.1122 26.9945 22.9016ZM8.2133 25.7825C8.2133 22.5969 10.8033 20.0069 13.9889 20.0069C17.1745 20.0069 19.7645 22.5969 19.7645 25.7825C19.7645 28.9266 17.2299 31.4889 14.0997 31.5581C14.0582 31.5581 14.0305 31.5581 13.9889 31.5581C13.9474 31.5581 13.9197 31.5581 13.8781 31.5581C10.7479 31.5027 8.2133 28.9404 8.2133 25.7825ZM17.3823 44.3421H2.24377C2.86704 38.4418 7.85319 33.8158 13.9058 33.7742C13.9335 33.7742 13.9612 33.7742 13.9889 33.7742C14.0166 33.7742 14.0443 33.7742 14.072 33.7742C16.9529 33.7881 19.5845 34.8545 21.6205 36.5858C19.626 38.7465 18.144 41.4058 17.3823 44.3421ZM50.8033 49.8545C50.8033 52.6939 48.4903 55.0069 45.651 55.0069H24.1828C21.3435 55.0069 19.0305 52.6939 19.0305 49.8545V48.9127C19.0305 40.3116 25.9003 33.2756 34.446 33.0263C34.5983 33.0401 34.7645 33.0401 34.9169 33.0401C35.0693 33.0401 35.2355 33.0401 35.3878 33.0263C43.9335 33.2756 50.8033 40.3116 50.8033 48.9127V49.8545ZM52.4515 44.3421C51.6898 41.4196 50.2355 38.8019 48.2548 36.6412C50.3047 34.8684 52.964 33.8019 55.8726 33.7742C55.9003 33.7742 55.928 33.7742 55.9557 33.7742C55.9834 33.7742 56.0111 33.7742 56.0388 33.7742C62.0914 33.8158 67.0776 38.4418 67.7008 44.3421H52.4515Z" fill="#28DF99"/>
</svg>
