<svg width="70" height="70" viewBox="0 0 70 70" fill="none" xmlns="http://www.w3.org/2000/svg">
<g clip-path="url(#clip0_48_113)">
<path d="M58.3333 50.4418L55.362 48.6616C54.4562 48.1199 53.42 47.8339 52.3644 47.8334H47.8926C46.9771 47.8316 46.0657 47.9496 45.1804 48.1831L31.7068 51.7999C30.2336 52.2066 29.0505 53.3038 28.5343 54.7422L16.6831 48.3307C15.7221 47.7838 14.597 47.5981 13.5112 47.8066C13.1016 47.8789 12.7046 48.0094 12.3315 48.1939C11.4889 48.5973 10.79 49.249 10.3274 50.0607C9.92294 50.7677 9.71046 51.5681 9.71046 52.3821C9.69792 54.0444 10.5786 55.5847 12.0164 56.4176L33.2568 69.1262C34.1797 69.6975 35.2427 70 36.3279 70H52.766C53.5003 70.0006 54.2278 69.8616 54.9102 69.5916L58.3333 68.2398V70H70V46.6667H58.3333V50.4418ZM54.0529 67.4217C53.6445 67.5829 53.2087 67.6661 52.7695 67.6667H36.3279C35.6705 67.6661 35.0262 67.481 34.4691 67.1323L13.1996 54.409C12.4767 53.9914 12.0341 53.2178 12.0398 52.3832C12.0415 51.9742 12.1492 51.572 12.3525 51.2166C12.585 50.8138 12.9347 50.4908 13.3546 50.2914C13.5397 50.2014 13.7357 50.1376 13.9379 50.1023C14.0855 50.075 14.2353 50.0607 14.3851 50.0607C14.7861 50.0596 15.1803 50.1644 15.5284 50.3638L28.3794 57.308C28.3942 57.3792 28.3942 57.4492 28.413 57.5204C28.9656 59.557 30.813 60.9715 32.9236 60.9737C33.573 60.9145 34.2162 60.7994 34.8462 60.6308L46.9675 57.3871L46.3659 55.133L34.2839 58.3624C33.7519 58.4849 33.0654 58.625 32.9236 58.637C31.8697 58.6387 30.9457 57.9346 30.6683 56.9183C30.6307 56.777 30.6085 56.6323 30.6005 56.4865C30.6005 56.4865 30.5914 56.204 30.6005 56.1048C30.6894 55.129 31.373 54.3098 32.3169 54.0472L45.7848 50.4441C46.4724 50.2601 47.1811 50.1667 47.8926 50.1667H52.3644C52.9979 50.1667 53.6194 50.3387 54.1623 50.664L58.3333 53.1614V65.7298L54.0529 67.4217ZM60.6667 49H67.6667V67.6667H60.6667V49Z" fill="#28DF99"/>
<path d="M48.1182 9.33307L41.8599 3.07534C39.8951 1.09918 37.2217 -0.00823766 34.4355 -0.000262396H19.7678C18.8626 0.000876927 17.97 0.212221 17.1593 0.615542L14.5446 1.92348C14.0205 2.18724 13.4383 2.31313 12.8521 2.28978L11.6667 2.24819V-0.000262396H0V25.6664H11.6667V22.1664H13.6502L14.356 22.633C16.3311 23.9443 18.6308 24.6849 21 24.7715V39.6664H70V9.33307H48.1182ZM9.33333 23.3331H2.33333V2.33307H9.33333V23.3331ZM15.6475 20.6916L14.3498 19.8331H11.6667V4.58266L12.7667 4.62197C13.7437 4.65672 14.7132 4.44652 15.5876 4.01072L18.2001 2.70278C18.6866 2.45954 19.2238 2.33307 19.7678 2.33307H34.4355C36.6025 2.3268 38.6823 3.18813 40.2101 4.72451L44.8187 9.33307H35.1914L32.3596 6.50185L30.7104 8.15102L38.9517 16.3929C39.8672 17.3043 39.87 18.7855 38.9586 19.7015C38.0465 20.6169 36.5654 20.6198 35.65 19.7083L28.7668 12.8251L27.9499 13.5252C25.6946 15.4404 22.3979 15.4894 20.0863 13.6414L19.4101 13.0934L17.9398 14.9061L18.6234 15.4604C19.3383 16.0317 20.1409 16.484 21 16.7996V22.437C19.0905 22.3521 17.2397 21.7488 15.6475 20.6916ZM32.2434 19.5995L34.0037 21.3603C35.8311 23.1605 38.7649 23.1633 40.5952 21.366C38.8828 24.0178 39.5584 27.5469 42.1293 29.3783C44.7002 31.2098 48.2566 30.6954 50.2031 28.2111C52.1497 25.7262 51.7982 22.1499 49.4045 20.0923C47.0113 18.0347 43.4224 18.2232 41.2583 20.5201C42.0553 19.2685 42.1977 17.7088 41.6405 16.3331H57.2635C57.7654 19.2685 60.0645 21.5677 63 22.0696V26.9299C60.0645 27.4318 57.7654 29.7309 57.2635 32.6664H33.7365C33.2346 29.7309 30.9355 27.4318 28 26.9299V22.0696C29.6674 21.7887 31.1753 20.9109 32.2434 19.5995ZM42 24.4997C42 22.5669 43.5671 20.9997 45.5 20.9997C47.4329 20.9997 49 22.5669 49 24.4997C49 26.4326 47.4329 27.9997 45.5 27.9997C43.5671 27.9997 42 26.4326 42 24.4997ZM67.6667 37.3331H23.3333V17.2884C25.183 17.4274 27.027 16.9557 28.5833 15.9468L30.5737 17.9372C29.6982 19.1267 28.3105 19.8302 26.8333 19.8331H25.6667V29.1664H26.8333C29.4105 29.1664 31.5 31.2559 31.5 33.8331V34.9997H59.5V33.8331C59.5 31.2559 61.5895 29.1664 64.1667 29.1664H65.3333V19.8331H64.1667C61.5895 19.8331 59.5 17.7436 59.5 15.1664V13.9997H39.8581L37.5247 11.6664H67.6667V37.3331Z" fill="#28DF99"/>
</g>
<defs>
<clipPath id="clip0_48_113">
<rect width="70" height="70" fill="white"/>
</clipPath>
</defs>
</svg>
