<svg width="37" height="36" viewBox="0 0 37 36" fill="none" xmlns="http://www.w3.org/2000/svg">
<g clip-path="url(#clip0_18_0)">
<path d="M36.7827 17.8902C36.7827 27.7709 28.7709 35.7805 18.8876 35.7805C9.00423 35.7805 0.992432 27.7709 0.992432 17.8902C0.992432 8.00961 9.00423 0 18.8876 0C28.7709 0 36.7827 8.00961 36.7827 17.8902Z" fill="#F2C94C" fill-opacity="0.75"/>
<path d="M22.9561 17.3268C24.5999 16.0891 25.6649 14.1225 25.6649 11.9116C25.6649 8.17586 22.6246 5.13646 18.8876 5.13646C15.1508 5.13646 12.1105 8.17586 12.1105 11.9116C12.1105 14.1225 13.1752 16.0891 14.819 17.3268C10.4178 18.9784 7.27686 23.2282 7.27686 28.1981H9.37394C9.37394 22.9535 13.6418 18.6871 18.8878 18.6871C24.1336 18.6871 28.4015 22.9535 28.4015 28.1981H30.4986C30.4983 23.2282 27.3576 18.9784 22.9561 17.3268ZM14.2076 11.9116C14.2076 9.33167 16.3069 7.23297 18.8876 7.23297C21.4682 7.23297 23.5675 9.33167 23.5675 11.9116C23.5675 14.4916 21.4682 16.5906 18.8876 16.5906C16.3069 16.5906 14.2076 14.4916 14.2076 11.9116Z" fill="white"/>
</g>
<defs>
<clipPath id="clip0_18_0">
<rect width="36" height="36" fill="white" transform="translate(0.992432)"/>
</clipPath>
</defs>
</svg>
