<svg aria-hidden="true" style="position: absolute; width: 0; height: 0; overflow: hidden;" version="1.1" xmlns="http://www.w3.org/2000/svg" xmlns:xlink="http://www.w3.org/1999/xlink">
<defs>
<!-- Логотип -->
<symbol id="icon-logo" viewBox="0 0 129 32">
<path fill="#000" style="fill: var(--color1, #000)" d="M5.629 22.604c0.445 0.091 0.783 0.271 1.015 0.539 0.232 0.262 0.347 0.606 0.347 1.033 0 0.555-0.198 0.981-0.594 1.28-0.39 0.299-0.966 0.448-1.728 0.448h-2.834v-6.4h2.661c0.683 0 1.216 0.14 1.6 0.421s0.576 0.686 0.576 1.216c0 0.36-0.091 0.664-0.274 0.914-0.183 0.244-0.439 0.427-0.768 0.549zM2.502 22.403h1.957c0.494 0 0.872-0.101 1.134-0.302 0.268-0.201 0.402-0.494 0.402-0.878s-0.134-0.677-0.402-0.878c-0.262-0.201-0.64-0.302-1.134-0.302h-1.957v2.359zM4.669 25.365c1.103 0 1.655-0.411 1.655-1.234 0-0.805-0.552-1.207-1.655-1.207h-2.167v2.441h2.167zM10.183 21.059c0.628 0 1.109 0.158 1.445 0.475 0.335 0.311 0.503 0.774 0.503 1.39v2.981h-0.622v-0.75c-0.146 0.25-0.363 0.445-0.649 0.585-0.28 0.14-0.616 0.21-1.006 0.21-0.536 0-0.963-0.128-1.28-0.384s-0.475-0.594-0.475-1.015c0-0.408 0.146-0.738 0.439-0.987 0.299-0.25 0.771-0.375 1.417-0.375h1.527v-0.293c0-0.414-0.116-0.728-0.347-0.942-0.232-0.219-0.57-0.329-1.015-0.329-0.305 0-0.597 0.052-0.878 0.155-0.28 0.098-0.521 0.235-0.722 0.411l-0.293-0.485c0.244-0.207 0.536-0.366 0.878-0.475 0.341-0.116 0.701-0.174 1.079-0.174zM9.954 25.438c0.366 0 0.68-0.082 0.942-0.247 0.262-0.171 0.457-0.414 0.585-0.731v-0.786h-1.509c-0.823 0-1.234 0.286-1.234 0.859 0 0.28 0.107 0.503 0.32 0.667 0.213 0.158 0.512 0.238 0.896 0.238zM20.496 21.096v4.809h-6.638v-4.809h0.649v4.242h2.359v-4.242h0.649v4.242h2.331v-4.242h0.649zM26.726 25.95c-0.463 0-0.881-0.104-1.253-0.311-0.372-0.213-0.664-0.506-0.878-0.878s-0.32-0.792-0.32-1.262c0-0.469 0.107-0.89 0.32-1.262s0.506-0.661 0.878-0.869c0.372-0.207 0.789-0.311 1.253-0.311s0.881 0.104 1.253 0.311c0.372 0.207 0.661 0.497 0.869 0.869 0.213 0.372 0.32 0.792 0.32 1.262s-0.107 0.89-0.32 1.262c-0.207 0.372-0.497 0.664-0.869 0.878-0.372 0.207-0.789 0.311-1.253 0.311zM26.726 25.374c0.341 0 0.646-0.076 0.914-0.229 0.274-0.158 0.488-0.381 0.64-0.667s0.229-0.613 0.229-0.978c0-0.366-0.076-0.692-0.229-0.978s-0.366-0.506-0.64-0.658c-0.268-0.158-0.573-0.238-0.914-0.238s-0.649 0.079-0.923 0.238c-0.268 0.152-0.482 0.372-0.64 0.658-0.152 0.286-0.229 0.613-0.229 0.978s0.076 0.692 0.229 0.978c0.158 0.286 0.372 0.509 0.64 0.667 0.274 0.152 0.582 0.229 0.923 0.229zM30.555 21.096h0.649v2.13h3.026v-2.13h0.649v4.809h-0.649v-2.121h-3.026v2.121h-0.649v-4.809zM40.656 21.096v4.809h-0.649v-4.233h-2.304l-0.064 1.189c-0.049 1-0.165 1.768-0.347 2.304s-0.509 0.805-0.978 0.805c-0.128 0-0.283-0.024-0.466-0.073l0.046-0.558c0.11 0.024 0.186 0.037 0.229 0.037 0.25 0 0.439-0.116 0.567-0.347s0.213-0.518 0.256-0.859c0.043-0.341 0.079-0.792 0.11-1.353l0.082-1.719h3.52zM44.156 21.059c0.628 0 1.109 0.158 1.445 0.475 0.335 0.311 0.503 0.774 0.503 1.39v2.981h-0.622v-0.75c-0.146 0.25-0.363 0.445-0.649 0.585-0.28 0.14-0.616 0.21-1.006 0.21-0.536 0-0.963-0.128-1.28-0.384s-0.475-0.594-0.475-1.015c0-0.408 0.146-0.738 0.439-0.987 0.299-0.25 0.771-0.375 1.417-0.375h1.527v-0.293c0-0.414-0.116-0.728-0.347-0.942-0.232-0.219-0.57-0.329-1.015-0.329-0.305 0-0.597 0.052-0.878 0.155-0.28 0.098-0.521 0.235-0.722 0.411l-0.293-0.485c0.244-0.207 0.536-0.366 0.878-0.475 0.341-0.116 0.701-0.174 1.079-0.174zM43.927 25.438c0.366 0 0.68-0.082 0.942-0.247 0.262-0.171 0.457-0.414 0.585-0.731v-0.786h-1.509c-0.823 0-1.234 0.286-1.234 0.859 0 0.28 0.107 0.503 0.32 0.667 0.213 0.158 0.512 0.238 0.896 0.238zM47.831 21.096h0.649v3.822l3.209-3.822h0.576v4.809h-0.649v-3.822l-3.2 3.822h-0.585v-4.809zM50.017 20.401c-0.414 0-0.744-0.104-0.987-0.311s-0.369-0.5-0.375-0.878h0.466c0.006 0.238 0.091 0.43 0.256 0.576 0.165 0.14 0.378 0.21 0.64 0.21s0.475-0.070 0.64-0.21c0.171-0.146 0.259-0.338 0.265-0.576h0.466c-0.006 0.378-0.134 0.67-0.384 0.878-0.244 0.207-0.573 0.311-0.987 0.311zM54.126 21.096h0.649v2.13h3.026v-2.13h0.649v4.809h-0.649v-2.121h-3.026v2.121h-0.649v-4.809zM65.166 21.059c0.451 0 0.859 0.104 1.225 0.311 0.366 0.201 0.652 0.488 0.859 0.859s0.311 0.795 0.311 1.271c0 0.482-0.104 0.908-0.311 1.28s-0.494 0.661-0.859 0.869c-0.36 0.201-0.768 0.302-1.225 0.302-0.39 0-0.744-0.079-1.061-0.238-0.311-0.165-0.567-0.402-0.768-0.713v2.679h-0.649v-6.583h0.622v0.951c0.195-0.317 0.451-0.561 0.768-0.731 0.323-0.171 0.686-0.256 1.088-0.256zM65.121 25.374c0.335 0 0.64-0.076 0.914-0.229 0.274-0.158 0.488-0.381 0.64-0.667 0.158-0.286 0.238-0.613 0.238-0.978s-0.079-0.689-0.238-0.969c-0.152-0.286-0.366-0.509-0.64-0.667s-0.579-0.238-0.914-0.238c-0.341 0-0.649 0.079-0.923 0.238-0.268 0.158-0.482 0.381-0.64 0.667-0.152 0.28-0.229 0.603-0.229 0.969s0.076 0.692 0.229 0.978c0.158 0.286 0.372 0.509 0.64 0.667 0.274 0.152 0.582 0.229 0.923 0.229zM73.162 23.701h-4.023c0.037 0.5 0.229 0.905 0.576 1.216 0.347 0.305 0.786 0.457 1.317 0.457 0.299 0 0.573-0.052 0.823-0.155 0.25-0.11 0.466-0.268 0.649-0.475l0.366 0.421c-0.213 0.256-0.482 0.451-0.805 0.585-0.317 0.134-0.667 0.201-1.051 0.201-0.494 0-0.933-0.104-1.317-0.311-0.378-0.213-0.674-0.506-0.887-0.878s-0.32-0.792-0.32-1.262c0-0.469 0.101-0.89 0.302-1.262 0.207-0.372 0.488-0.661 0.841-0.869 0.36-0.207 0.762-0.311 1.207-0.311s0.844 0.104 1.198 0.311c0.354 0.207 0.631 0.497 0.832 0.869 0.201 0.366 0.302 0.786 0.302 1.262l-0.009 0.201zM70.84 21.617c-0.463 0-0.853 0.149-1.17 0.448-0.311 0.293-0.488 0.677-0.53 1.152h3.41c-0.043-0.475-0.222-0.859-0.539-1.152-0.311-0.299-0.701-0.448-1.17-0.448zM79.618 25.338v1.774h-0.613v-1.207h-4.398v-4.809h0.649v4.242h2.935v-4.242h0.649v4.242h0.777zM85.064 23.701h-4.023c0.037 0.5 0.229 0.905 0.576 1.216 0.347 0.305 0.786 0.457 1.317 0.457 0.299 0 0.573-0.052 0.823-0.155 0.25-0.11 0.466-0.268 0.649-0.475l0.366 0.421c-0.213 0.256-0.482 0.451-0.805 0.585-0.317 0.134-0.667 0.201-1.051 0.201-0.494 0-0.933-0.104-1.317-0.311-0.378-0.213-0.674-0.506-0.887-0.878s-0.32-0.792-0.32-1.262c0-0.469 0.101-0.89 0.302-1.262 0.207-0.372 0.488-0.661 0.841-0.869 0.36-0.207 0.762-0.311 1.207-0.311s0.844 0.104 1.198 0.311c0.354 0.207 0.631 0.497 0.832 0.869 0.201 0.366 0.302 0.786 0.302 1.262l-0.009 0.201zM82.741 21.617c-0.463 0-0.853 0.149-1.17 0.448-0.311 0.293-0.488 0.677-0.53 1.152h3.41c-0.043-0.475-0.222-0.859-0.539-1.152-0.311-0.299-0.701-0.448-1.17-0.448zM86.51 21.096h0.649v2.13h3.026v-2.13h0.649v4.809h-0.649v-2.121h-3.026v2.121h-0.649v-4.809zM94.922 23.4c0.341 0.079 0.603 0.216 0.786 0.411 0.189 0.195 0.283 0.433 0.283 0.713s-0.098 0.53-0.293 0.75c-0.189 0.219-0.448 0.39-0.777 0.512-0.329 0.116-0.692 0.174-1.088 0.174-0.347 0-0.689-0.049-1.024-0.146-0.335-0.104-0.628-0.253-0.878-0.448l0.219-0.485c0.219 0.165 0.475 0.293 0.768 0.384s0.588 0.137 0.887 0.137c0.445 0 0.808-0.082 1.088-0.247 0.286-0.171 0.43-0.399 0.43-0.686 0-0.256-0.116-0.454-0.347-0.594-0.232-0.146-0.549-0.219-0.951-0.219h-0.823v-0.475h0.786c0.36 0 0.649-0.067 0.869-0.201 0.219-0.14 0.329-0.326 0.329-0.558 0-0.256-0.125-0.457-0.375-0.603-0.244-0.146-0.564-0.219-0.96-0.219-0.518 0-1.030 0.131-1.536 0.393l-0.183-0.503c0.573-0.299 1.167-0.448 1.783-0.448 0.366 0 0.695 0.055 0.987 0.165 0.299 0.104 0.53 0.253 0.695 0.448 0.171 0.195 0.256 0.421 0.256 0.677 0 0.244-0.085 0.46-0.256 0.649-0.165 0.189-0.39 0.329-0.677 0.421zM101.671 23.701h-4.023c0.037 0.5 0.229 0.905 0.576 1.216 0.347 0.305 0.786 0.457 1.317 0.457 0.299 0 0.573-0.052 0.823-0.155 0.25-0.11 0.466-0.268 0.649-0.475l0.366 0.421c-0.213 0.256-0.482 0.451-0.805 0.585-0.317 0.134-0.667 0.201-1.051 0.201-0.494 0-0.933-0.104-1.317-0.311-0.378-0.213-0.674-0.506-0.887-0.878s-0.32-0.792-0.32-1.262c0-0.469 0.101-0.89 0.302-1.262 0.207-0.372 0.488-0.661 0.841-0.869 0.36-0.207 0.762-0.311 1.207-0.311s0.844 0.104 1.198 0.311c0.354 0.207 0.631 0.497 0.832 0.869 0.201 0.366 0.302 0.786 0.302 1.262l-0.009 0.201zM99.349 21.617c-0.463 0-0.853 0.149-1.17 0.448-0.311 0.293-0.488 0.677-0.53 1.152h3.41c-0.043-0.475-0.222-0.859-0.539-1.152-0.311-0.299-0.701-0.448-1.17-0.448zM103.117 21.096h0.649v2.13h3.026v-2.13h0.649v4.809h-0.649v-2.121h-3.026v2.121h-0.649v-4.809zM112.67 21.672h-1.819v4.233h-0.649v-4.233h-1.819v-0.576h4.288v0.576z"></path>
<path fill="#28df99" style="fill: var(--color2, #28df99)" d="M128.757 24.397v-11.495c0-2.073-1.686-3.76-3.759-3.76s-3.76 1.687-3.76 3.76v11.495c-0.002 0.095 0.018 0.197 0.058 0.287l2.67 5.977h-16.049c-0.359 0-0.677-0.285-0.677-0.688 0-0.373 0.304-0.677 0.677-0.677h7.878c1.112 0 2.017-0.905 2.017-2.016s-0.904-2.016-2.017-2.016h-4.2c-0.37 0-0.67 0.3-0.67 0.67s0.3 0.67 0.67 0.67h4.2c0.373 0 0.677 0.304 0.677 0.677s-0.304 0.677-0.677 0.677h-7.878c-1.094 0-2.017 0.883-2.017 2.027 0 1.112 0.905 2.016 2.017 2.016h17.081c0.277 0 0.51-0.165 0.617-0.41l3.084-6.907c0.039-0.086 0.060-0.187 0.058-0.287zM126.407 26.531h-2.82l-0.648-1.451h4.115l-0.648 1.451zM124.997 29.688l-0.812-1.818h1.624l-0.811 1.818zM124.328 14.113v9.628h-1.751v-9.628h1.751zM127.417 14.113v9.628h-1.75v-9.628h1.75zM124.997 10.482c1.291 0 2.349 1.016 2.417 2.291h-4.834c0.067-1.275 1.125-2.291 2.417-2.291z"></path>
<path fill="#000" style="fill: var(--color1, #000)" d="M2.996 7.233v2.672h-1.563v-7.583h2.958c0.569 0 1.069 0.104 1.5 0.313 0.434 0.208 0.767 0.505 1 0.891 0.233 0.382 0.349 0.818 0.349 1.307 0 0.743-0.255 1.33-0.766 1.76-0.507 0.427-1.21 0.641-2.109 0.641h-1.37zM2.996 5.967h1.396c0.413 0 0.727-0.097 0.943-0.292 0.219-0.194 0.328-0.472 0.328-0.833 0-0.372-0.109-0.672-0.328-0.901s-0.521-0.347-0.906-0.354h-1.432v2.38zM12.881 6.618h-3v2.031h3.521v1.255h-5.083v-7.583h5.073v1.266h-3.51v1.807h3v1.224zM18.881 6.618h-3v2.031h3.521v1.255h-5.083v-7.583h5.073v1.266h-3.51v1.807h3v1.224zM23.126 7.129h-1.245v2.776h-1.563v-7.583h2.818c0.896 0 1.587 0.2 2.073 0.599s0.729 0.964 0.729 1.693c0 0.517-0.113 0.95-0.339 1.297-0.222 0.344-0.561 0.618-1.016 0.823l1.641 3.099v0.073h-1.677l-1.422-2.776zM21.881 5.863h1.26c0.392 0 0.696-0.099 0.911-0.297 0.215-0.201 0.323-0.477 0.323-0.828 0-0.358-0.102-0.639-0.307-0.844-0.201-0.205-0.512-0.307-0.932-0.307h-1.255v2.276zM32.595 7.129h-1.245v2.776h-1.563v-7.583h2.818c0.896 0 1.587 0.2 2.073 0.599s0.729 0.964 0.729 1.693c0 0.517-0.113 0.95-0.339 1.297-0.222 0.344-0.561 0.618-1.016 0.823l1.641 3.099v0.073h-1.677l-1.422-2.776zM31.35 5.863h1.26c0.392 0 0.696-0.099 0.911-0.297 0.215-0.201 0.323-0.477 0.323-0.828 0-0.358-0.102-0.639-0.307-0.844-0.201-0.205-0.512-0.307-0.932-0.307h-1.255v2.276zM41.162 6.618h-3v2.031h3.521v1.255h-5.083v-7.583h5.073v1.266h-3.51v1.807h3v1.224zM45.402 8.025l1.719-5.703h1.74l-2.641 7.583h-1.63l-2.63-7.583h1.734l1.708 5.703zM51.241 9.905h-1.562v-7.583h1.562v7.583zM57.256 6.618h-3v2.031h3.521v1.255h-5.083v-7.583h5.073v1.266h-3.51v1.807h3v1.224zM64.6 7.717l1.021-5.396h1.557l-1.682 7.583h-1.573l-1.234-5.073-1.234 5.073h-1.573l-1.682-7.583h1.557l1.026 5.385 1.25-5.385h1.323l1.245 5.396zM72.246 7.233v2.672h-1.563v-7.583h2.958c0.569 0 1.069 0.104 1.5 0.313 0.434 0.208 0.767 0.505 1 0.891 0.232 0.382 0.349 0.818 0.349 1.307 0 0.743-0.255 1.33-0.766 1.76-0.507 0.427-1.21 0.641-2.109 0.641h-1.37zM72.246 5.967h1.396c0.413 0 0.727-0.097 0.943-0.292 0.219-0.194 0.328-0.472 0.328-0.833 0-0.372-0.109-0.672-0.328-0.901s-0.521-0.347-0.906-0.354h-1.432v2.38zM80.376 7.129h-1.244v2.776h-1.563v-7.583h2.818c0.896 0 1.587 0.2 2.073 0.599s0.729 0.964 0.729 1.693c0 0.517-0.113 0.95-0.338 1.297-0.222 0.344-0.561 0.618-1.016 0.823l1.64 3.099v0.073h-1.677l-1.422-2.776zM79.131 5.863h1.26c0.392 0 0.696-0.099 0.911-0.297 0.216-0.201 0.323-0.477 0.323-0.828 0-0.358-0.102-0.639-0.307-0.844-0.202-0.205-0.512-0.307-0.933-0.307h-1.255v2.276zM90.61 6.285c0 0.747-0.132 1.401-0.395 1.964s-0.643 0.996-1.136 1.302c-0.489 0.306-1.052 0.458-1.688 0.458-0.628 0-1.189-0.151-1.682-0.453s-0.875-0.733-1.145-1.292c-0.271-0.563-0.408-1.208-0.411-1.938v-0.375c0-0.747 0.133-1.403 0.401-1.969 0.27-0.569 0.651-1.005 1.141-1.307 0.493-0.306 1.055-0.458 1.688-0.458s1.192 0.153 1.682 0.458c0.493 0.302 0.873 0.738 1.141 1.307 0.27 0.566 0.406 1.221 0.406 1.964v0.339zM89.027 5.941c0-0.795-0.142-1.399-0.427-1.813s-0.69-0.62-1.218-0.62c-0.524 0-0.929 0.205-1.214 0.615-0.285 0.406-0.429 1.003-0.432 1.792v0.37c0 0.774 0.142 1.375 0.427 1.802s0.695 0.641 1.229 0.641c0.525 0 0.927-0.205 1.208-0.615 0.282-0.413 0.424-1.014 0.427-1.802v-0.37zM94.803 2.321h1.563v5.25c0 0.483-0.107 0.91-0.323 1.281-0.212 0.368-0.512 0.653-0.901 0.854s-0.828 0.302-1.317 0.302c-0.802 0-1.427-0.203-1.875-0.609-0.448-0.41-0.672-0.988-0.672-1.734h1.573c0 0.372 0.078 0.646 0.234 0.823s0.403 0.266 0.74 0.266c0.299 0 0.536-0.102 0.713-0.307s0.266-0.497 0.266-0.875v-5.25zM102.267 6.618h-3v2.031h3.522v1.255h-5.083v-7.583h5.073v1.266h-3.511v1.807h3v1.224zM109.657 7.379c-0.059 0.816-0.361 1.458-0.906 1.927-0.542 0.469-1.257 0.703-2.146 0.703-0.972 0-1.738-0.326-2.296-0.979-0.556-0.656-0.834-1.556-0.834-2.698v-0.464c0-0.729 0.128-1.372 0.386-1.927s0.623-0.981 1.099-1.276c0.479-0.299 1.035-0.448 1.667-0.448 0.875 0 1.579 0.234 2.114 0.703s0.843 1.127 0.927 1.974h-1.563c-0.038-0.49-0.175-0.844-0.411-1.063-0.232-0.222-0.588-0.333-1.067-0.333-0.521 0-0.912 0.188-1.172 0.563-0.258 0.372-0.389 0.95-0.396 1.734v0.573c0 0.819 0.123 1.418 0.37 1.797 0.25 0.378 0.642 0.568 1.177 0.568 0.483 0 0.842-0.109 1.078-0.328 0.24-0.222 0.377-0.564 0.411-1.026h1.563zM116.235 3.587h-2.323v6.318h-1.563v-6.318h-2.292v-1.266h6.178v1.266z"></path>
</symbol>

<!-- Особистий кабінет -->
<symbol id="icon-bell-sms" viewBox="0 0 33 32">
<path fill="#f2f2f2" style="fill: var(--color1, #f2f2f2)" d="M16.882 5.625c1.551 0 2.813-1.262 2.813-2.813s-1.262-2.813-2.813-2.813c-1.551 0-2.812 1.262-2.812 2.813s1.261 2.813 2.812 2.813zM16.882 1.875c0.516 0 0.938 0.42 0.938 0.938s-0.421 0.938-0.938 0.938c-0.516 0-0.938-0.42-0.938-0.938s0.421-0.938 0.938-0.938zM18.757 26.25h-3.75c-0.518 0-0.938 0.419-0.938 0.938v2c0 1.551 1.262 2.813 2.812 2.813s2.813-1.262 2.813-2.813v-2c0-0.518-0.419-0.938-0.938-0.938z"></path>
<path fill="#f2c94c" style="fill: var(--color2, #f2c94c)" opacity="0.79" d="M30.007 26.25c-1.659 0-3.065-1.251-3.27-2.908l-1.481-12.187c-0.509-4.222-4.109-7.406-8.373-7.406s-7.864 3.184-8.373 7.405l-1.481 12.186c-0.205 1.658-1.611 2.909-3.27 2.909-0.518 0-0.938 0.419-0.938 0.938s0.419 0.938 0.938 0.938h26.25c0.518 0 0.937-0.419 0.937-0.938s-0.419-0.938-0.937-0.938z"></path>
</symbol>
<symbol id="icon-user" viewBox="0 0 33 32">
<path fill="#f2c94c" style="fill: var(--color2, #f2c94c)" opacity="0.75" d="M32.696 15.902c0 8.783-7.122 15.903-15.907 15.903s-15.907-7.12-15.907-15.902c0-8.783 7.122-15.902 15.907-15.902s15.907 7.12 15.907 15.902z"></path>
<path fill="#fff" style="fill: var(--color3, #fff)" d="M20.405 15.402c1.461-1.1 2.408-2.848 2.408-4.814 0-3.321-2.703-6.022-6.024-6.022s-6.024 2.702-6.024 6.022c0 1.965 0.946 3.713 2.408 4.814-3.912 1.468-6.704 5.246-6.704 9.663h1.864c0-4.662 3.794-8.454 8.457-8.454s8.457 3.792 8.457 8.454h1.864c-0-4.418-2.792-8.195-6.704-9.663zM12.629 10.588c0-2.293 1.866-4.159 4.16-4.159s4.16 1.865 4.16 4.159c0 2.293-1.866 4.159-4.16 4.159s-4.16-1.866-4.16-4.159z"></path>
</symbol>

<!-- Переваги -->
<symbol id="icon-balance" viewBox="0 0 32 32">
<path  d="M16 6.143c-0.256 0-0.506 0.076-0.719 0.218s-0.379 0.344-0.477 0.581c-0.098 0.237-0.124 0.497-0.074 0.748s0.173 0.482 0.354 0.663c0.181 0.181 0.412 0.304 0.663 0.354s0.511 0.024 0.748-0.074 0.439-0.264 0.581-0.477c0.142-0.213 0.218-0.463 0.218-0.719-0-0.343-0.137-0.672-0.38-0.915s-0.572-0.379-0.915-0.38zM16 7.981c-0.108 0-0.213-0.032-0.302-0.092s-0.159-0.145-0.2-0.244c-0.041-0.099-0.052-0.209-0.031-0.314s0.073-0.203 0.149-0.279c0.076-0.076 0.173-0.128 0.279-0.149s0.215-0.010 0.315 0.031c0.099 0.041 0.184 0.111 0.244 0.2s0.092 0.195 0.092 0.302c-0 0.144-0.058 0.283-0.16 0.385s-0.24 0.159-0.385 0.16v-0z"></path>
<path  d="M31.483 19.625h-0.616l-3.93-9.393c0.43-0.076 0.836-0.251 1.186-0.51s0.637-0.596 0.836-0.984c0.055-0.11 0.146-0.198 0.257-0.25 0.235-0.114 0.415-0.316 0.503-0.562s0.074-0.517-0.036-0.753c-0.11-0.237-0.309-0.42-0.554-0.512s-0.515-0.083-0.754 0.024c-0.509 0.239-0.925 0.639-1.183 1.139-0.069 0.138-0.175 0.255-0.306 0.337s-0.282 0.126-0.436 0.128c-0.155-0.004-0.306-0.050-0.437-0.133s-0.236-0.201-0.305-0.341c-0.208-0.411-0.525-0.757-0.917-1s-0.843-0.373-1.303-0.377h-5.174c-0.235-0.562-0.689-0.984-1.189-1.251v-2.636c-0.001-0.049-0.012-0.097-0.031-0.142s-0.048-0.085-0.084-0.119c-0.035-0.034-0.077-0.060-0.123-0.078s-0.094-0.026-0.143-0.024h-1.488c-0.049-0.001-0.098 0.007-0.143 0.024s-0.088 0.044-0.123 0.078c-0.035 0.034-0.064 0.074-0.084 0.119s-0.030 0.093-0.031 0.142v2.636c-0.5 0.267-0.954 0.688-1.189 1.251h-5.169c-0.46 0.003-0.911 0.133-1.302 0.376s-0.708 0.588-0.916 0.998c-0.067 0.14-0.173 0.259-0.304 0.342s-0.284 0.128-0.439 0.128c-0.155 0.001-0.308-0.042-0.44-0.124s-0.239-0.199-0.307-0.339c-0.258-0.498-0.673-0.897-1.181-1.135-0.119-0.055-0.247-0.087-0.377-0.092s-0.261 0.014-0.384 0.059c-0.248 0.090-0.45 0.276-0.562 0.515s-0.124 0.513-0.033 0.761 0.276 0.45 0.515 0.562c0.111 0.052 0.201 0.14 0.256 0.249 0.199 0.388 0.486 0.725 0.837 0.984s0.757 0.434 1.187 0.51l-3.931 9.394h-0.616c-0.101-0.001-0.198 0.037-0.272 0.106s-0.117 0.165-0.121 0.266v0.383c0 2.993 2.444 5.429 5.438 5.429s5.438-2.435 5.438-5.429v-0.383c-0-0.049-0.010-0.098-0.029-0.143s-0.047-0.086-0.082-0.121c-0.035-0.035-0.076-0.062-0.122-0.080s-0.094-0.028-0.143-0.027h-0.616l-3.933-9.4c0.423-0.082 0.822-0.258 1.167-0.517s0.626-0.592 0.823-0.976c0.041-0.086 0.105-0.159 0.185-0.211s0.172-0.081 0.267-0.084h5.182c0.236 0.54 0.652 0.982 1.177 1.249v12.001h-0.301c-0.101-0-0.197 0.038-0.27 0.108s-0.114 0.166-0.117 0.266v2.938h-2.173c-0.103 0.005-0.201 0.048-0.273 0.122s-0.114 0.172-0.116 0.276v1.54h-1.51c-0.047-0.002-0.095 0.005-0.139 0.022s-0.085 0.043-0.119 0.076-0.061 0.073-0.079 0.117c-0.018 0.044-0.027 0.091-0.027 0.139v2.159c-0.001 0.048 0.008 0.096 0.026 0.14s0.045 0.085 0.079 0.119 0.075 0.061 0.119 0.078c0.045 0.018 0.092 0.026 0.14 0.025h11.709c0.048 0.001 0.096-0.008 0.14-0.025s0.085-0.045 0.119-0.078c0.034-0.034 0.061-0.074 0.079-0.119s0.027-0.092 0.026-0.14v-2.159c0.001-0.048-0.008-0.095-0.026-0.139s-0.045-0.084-0.079-0.117c-0.034-0.033-0.075-0.059-0.119-0.076s-0.092-0.024-0.139-0.022h-1.448v-1.54c-0.002-0.103-0.044-0.202-0.116-0.276s-0.17-0.117-0.273-0.122h-2.173v-2.938c-0.003-0.101-0.045-0.196-0.117-0.266s-0.169-0.109-0.27-0.108h-0.301v-12.001c0.525-0.268 0.941-0.709 1.177-1.249h5.186c0.095 0.003 0.188 0.033 0.268 0.085s0.144 0.126 0.185 0.212c0.196 0.383 0.476 0.716 0.82 0.974s0.742 0.435 1.164 0.517l-3.933 9.4h-0.616c-0.049-0-0.098 0.009-0.143 0.027s-0.087 0.046-0.122 0.080c-0.035 0.035-0.063 0.076-0.082 0.121s-0.029 0.094-0.029 0.143v0.383c0 2.993 2.444 5.429 5.438 5.429s5.438-2.435 5.438-5.429v-0.383c-0.004-0.101-0.047-0.196-0.121-0.266s-0.171-0.108-0.272-0.106zM5.571 25.058c-0.945-0.001-1.867-0.288-2.646-0.823s-1.378-1.292-1.719-2.173h8.728c-0.341 0.881-0.94 1.639-1.719 2.173s-1.701 0.821-2.646 0.823zM10.25 20.375v0.005c-0.001 0.313-0.032 0.626-0.094 0.933h-9.17c-0.068-0.307-0.105-0.619-0.111-0.933v-0.005h9.375zM9.195 19.625h-7.249l3.625-8.661 3.624 8.661zM8.516 7.688c-0.233 0.003-0.46 0.070-0.657 0.193s-0.356 0.299-0.46 0.507c-0.172 0.341-0.436 0.628-0.762 0.829s-0.701 0.307-1.083 0.307c-0.383 0-0.758-0.105-1.084-0.305s-0.59-0.487-0.763-0.828c-0.133-0.258-0.349-0.465-0.613-0.586-0.040-0.021-0.074-0.053-0.097-0.092s-0.034-0.084-0.033-0.129c-0-0.040 0.010-0.080 0.029-0.116s0.048-0.065 0.082-0.087c0.035-0.022 0.075-0.036 0.116-0.038s0.082 0.005 0.12 0.023c0.358 0.168 0.65 0.45 0.831 0.801 0.131 0.262 0.333 0.483 0.583 0.636s0.538 0.235 0.831 0.234c0.293-0.001 0.581-0.084 0.829-0.239s0.449-0.377 0.579-0.64c0.145-0.288 0.367-0.531 0.64-0.702s0.589-0.263 0.912-0.267h4.981c-0.007 0.125-0.011 0.158-0.011 0.236-0.001 0.088 0.004 0.176 0.013 0.264h-4.983zM15.625 2.938h0.75v2.013c-0.249-0.036-0.501-0.036-0.75 0v-2.013zM21.438 27.688v1.375h-10.937v-1.375h10.937zM19.625 25.75v1.188h-7.25v-1.188h7.25zM17.063 22.438v2.563h-2.125v-2.563h2.125zM15.625 21.688v-11.764c0.249 0.036 0.501 0.036 0.75 0v11.764h-0.75zM16 9.201c-0.349 0-0.69-0.103-0.98-0.297s-0.516-0.469-0.65-0.792-0.168-0.677-0.1-1.019c0.068-0.342 0.236-0.656 0.483-0.903s0.561-0.415 0.903-0.483 0.697-0.033 1.019 0.1c0.322 0.134 0.598 0.36 0.792 0.65s0.297 0.631 0.297 0.98c-0 0.468-0.186 0.916-0.517 1.247s-0.779 0.517-1.247 0.517zM24.607 8.389c-0.104-0.208-0.263-0.384-0.461-0.508s-0.425-0.191-0.658-0.194h-4.988c0.009-0.088 0.014-0.176 0.013-0.264 0-0.078-0.004-0.111-0.011-0.236h4.986c0.323 0.004 0.639 0.097 0.913 0.268s0.496 0.415 0.64 0.704c0.13 0.262 0.33 0.483 0.578 0.637s0.535 0.237 0.827 0.237c0.292 0.001 0.579-0.080 0.828-0.233s0.45-0.373 0.582-0.634c0.181-0.352 0.474-0.634 0.833-0.803 0.037-0.018 0.079-0.025 0.12-0.023s0.081 0.016 0.116 0.039c0.034 0.022 0.062 0.051 0.082 0.087s0.029 0.075 0.029 0.116c0.001 0.046-0.010 0.091-0.033 0.13s-0.057 0.072-0.097 0.093c-0.264 0.122-0.48 0.329-0.613 0.588-0.172 0.341-0.436 0.628-0.761 0.829s-0.7 0.306-1.083 0.306c-0.382-0-0.757-0.107-1.082-0.308s-0.588-0.488-0.759-0.83zM26.429 10.964l3.625 8.661h-7.249l3.624-8.661zM26.429 25.058c-0.945-0.001-1.867-0.288-2.646-0.823s-1.378-1.292-1.719-2.173h8.728c-0.341 0.881-0.94 1.639-1.719 2.173s-1.701 0.821-2.646 0.823v0zM31.125 20.38c-0.006 0.314-0.043 0.626-0.111 0.933h-9.17c-0.062-0.307-0.094-0.62-0.094-0.933v-0.005l9.375 0.005z"></path>
</symbol>
<symbol id="icon-calendar" viewBox="0 0 32 32">
<path  d="M28 20.053v-14.053c0-1.378-1.122-2.5-2.5-2.5h-1v-1c0-0.827-0.673-1.5-1.5-1.5s-1.5 0.673-1.5 1.5v1h-2.5v-1c0-0.827-0.673-1.5-1.5-1.5s-1.5 0.673-1.5 1.5v1h-3v-1c0-0.827-0.673-1.5-1.5-1.5s-1.5 0.673-1.5 1.5v1h-2.5v-1c0-0.827-0.673-1.5-1.5-1.5s-1.5 0.673-1.5 1.5v1h-1c-1.378 0-2.5 1.122-2.5 2.5v20c0 1.378 1.122 2.5 2.5 2.5h16.812c1.039 1.79 2.973 3 5.188 3 3.309 0 6-2.691 6-6 0-2.416-1.438-4.497-3.5-5.447zM22.5 2.5c0-0.276 0.224-0.5 0.5-0.5s0.5 0.224 0.5 0.5v3c0 0.276-0.224 0.5-0.5 0.5s-0.5-0.224-0.5-0.5v-3zM17 2.5c0-0.276 0.224-0.5 0.5-0.5s0.5 0.224 0.5 0.5v3c0 0.276-0.224 0.5-0.5 0.5s-0.5-0.224-0.5-0.5v-3zM11 2.5c0-0.276 0.224-0.5 0.5-0.5s0.5 0.224 0.5 0.5v3c0 0.276-0.224 0.5-0.5 0.5s-0.5-0.224-0.5-0.5v-3zM5.5 2.5c0-0.276 0.224-0.5 0.5-0.5s0.5 0.224 0.5 0.5v3c0 0.276-0.224 0.5-0.5 0.5s-0.5-0.224-0.5-0.5v-3zM3.5 4.5h1v1c0 0.827 0.673 1.5 1.5 1.5s1.5-0.673 1.5-1.5v-1h2.5v1c0 0.827 0.673 1.5 1.5 1.5s1.5-0.673 1.5-1.5v-1h3v1c0 0.827 0.673 1.5 1.5 1.5s1.5-0.673 1.5-1.5v-1h2.5v1c0 0.827 0.673 1.5 1.5 1.5s1.5-0.673 1.5-1.5v-1h1c0.827 0 1.5 0.673 1.5 1.5v2.5h-25v-2.5c0-0.827 0.673-1.5 1.5-1.5zM3.5 27.5c-0.827 0-1.5-0.673-1.5-1.5v-16.5h25v10.197c-0.48-0.124-0.981-0.197-1.5-0.197-0.341 0-0.674 0.035-1 0.090v-2.59c0-0.276-0.224-0.5-0.5-0.5h-3c-0.276 0-0.5 0.224-0.5 0.5v3c0 0.276 0.224 0.5 0.5 0.5h1.19c-1.62 1.076-2.69 2.914-2.69 5 0 0.702 0.128 1.373 0.35 2h-16.35zM23.5 19.5h-2v-2h2v2zM25.5 30.5c-2.757 0-5-2.243-5-5s2.243-5 5-5c2.757 0 5 2.243 5 5s-2.243 5-5 5z"></path>
<path  d="M26 24.639v-3.139h-1v3.139c-0.298 0.173-0.5 0.492-0.5 0.861 0 0.051 0.008 0.099 0.015 0.148l-1.827 1.462 0.625 0.781 1.826-1.461c0.113 0.044 0.234 0.070 0.362 0.070 0.552 0 1-0.448 1-1 0-0.369-0.202-0.688-0.5-0.861z"></path>
<path  d="M7.5 11h-3c-0.276 0-0.5 0.224-0.5 0.5v3c0 0.276 0.224 0.5 0.5 0.5h3c0.276 0 0.5-0.224 0.5-0.5v-3c0-0.276-0.224-0.5-0.5-0.5zM7 14h-2v-2h2v2z"></path>
<path  d="M13 11h-3c-0.276 0-0.5 0.224-0.5 0.5v3c0 0.276 0.224 0.5 0.5 0.5h3c0.276 0 0.5-0.224 0.5-0.5v-3c0-0.276-0.224-0.5-0.5-0.5zM12.5 14h-2v-2h2v2z"></path>
<path  d="M18.5 11h-3c-0.276 0-0.5 0.224-0.5 0.5v3c0 0.276 0.224 0.5 0.5 0.5h3c0.276 0 0.5-0.224 0.5-0.5v-3c0-0.276-0.224-0.5-0.5-0.5zM18 14h-2v-2h2v2z"></path>
<path  d="M21 15h3c0.276 0 0.5-0.224 0.5-0.5v-3c0-0.276-0.224-0.5-0.5-0.5h-3c-0.276 0-0.5 0.224-0.5 0.5v3c0 0.276 0.224 0.5 0.5 0.5zM21.5 12h2v2h-2v-2z"></path>
<path  d="M7.5 16.5h-3c-0.276 0-0.5 0.224-0.5 0.5v3c0 0.276 0.224 0.5 0.5 0.5h3c0.276 0 0.5-0.224 0.5-0.5v-3c0-0.276-0.224-0.5-0.5-0.5zM7 19.5h-2v-2h2v2z"></path>
<path  d="M13 16.5h-3c-0.276 0-0.5 0.224-0.5 0.5v3c0 0.276 0.224 0.5 0.5 0.5h3c0.276 0 0.5-0.224 0.5-0.5v-3c0-0.276-0.224-0.5-0.5-0.5zM12.5 19.5h-2v-2h2v2z"></path>
<path  d="M18.5 16.5h-3c-0.276 0-0.5 0.224-0.5 0.5v3c0 0.276 0.224 0.5 0.5 0.5h3c0.276 0 0.5-0.224 0.5-0.5v-3c0-0.276-0.224-0.5-0.5-0.5zM18 19.5h-2v-2h2v2z"></path>
<path  d="M7.5 22h-3c-0.276 0-0.5 0.224-0.5 0.5v3c0 0.276 0.224 0.5 0.5 0.5h3c0.276 0 0.5-0.224 0.5-0.5v-3c0-0.276-0.224-0.5-0.5-0.5zM7 25h-2v-2h2v2z"></path>
<path  d="M13 22h-3c-0.276 0-0.5 0.224-0.5 0.5v3c0 0.276 0.224 0.5 0.5 0.5h3c0.276 0 0.5-0.224 0.5-0.5v-3c0-0.276-0.224-0.5-0.5-0.5zM12.5 25h-2v-2h2v2z"></path>
<path  d="M18.5 22h-3c-0.276 0-0.5 0.224-0.5 0.5v3c0 0.276 0.224 0.5 0.5 0.5h3c0.276 0 0.5-0.224 0.5-0.5v-3c0-0.276-0.224-0.5-0.5-0.5zM18 25h-2v-2h2v2z"></path>
</symbol>
<symbol id="icon-data-transfer" viewBox="0 0 32 32">
<path  d="M6.001 22.627c-0.025 0-0.049-0.001-0.076-0.004-3.377-0.375-5.925-3.223-5.925-6.623 0-3.523 2.745-6.415 6.208-6.651 0.923-4.608 5.036-8.016 9.792-8.016 3.735 0 7.175 2.104 8.871 5.392 4.029 0.423 7.129 3.837 7.129 7.941 0 3.573-2.395 6.733-5.821 7.683-0.357 0.1-0.723-0.109-0.82-0.465-0.099-0.355 0.109-0.723 0.464-0.82 2.852-0.789 4.844-3.421 4.844-6.397 0-3.529-2.751-6.447-6.263-6.641-0.247-0.013-0.464-0.161-0.568-0.384-1.411-3.021-4.485-4.975-7.836-4.975-4.287 0-7.969 3.193-8.567 7.427-0.047 0.328-0.328 0.573-0.66 0.573-3.048 0-5.44 2.392-5.44 5.333 0 2.72 2.037 4.997 4.741 5.297 0.365 0.041 0.629 0.371 0.588 0.736-0.037 0.341-0.327 0.593-0.661 0.593z"></path>
<path  d="M12.667 24c-0.171 0-0.341-0.065-0.472-0.195l-2.667-2.667c-0.26-0.26-0.26-0.683 0-0.943l2.667-2.667c0.26-0.26 0.683-0.26 0.943 0s0.26 0.683 0 0.943l-2.195 2.195 2.195 2.195c0.26 0.26 0.26 0.683 0 0.943-0.129 0.131-0.3 0.196-0.471 0.196z"></path>
<path  d="M22 21.333h-11.668c-0.368 0-0.667-0.299-0.667-0.667s0.299-0.667 0.667-0.667h11.668c0.368 0 0.667 0.299 0.667 0.667s-0.299 0.667-0.667 0.667z"></path>
<path  d="M19.333 30.667c-0.171 0-0.341-0.065-0.472-0.195-0.26-0.26-0.26-0.683 0-0.943l2.195-2.195-2.195-2.195c-0.26-0.26-0.26-0.683 0-0.943s0.683-0.26 0.943 0l2.667 2.667c0.26 0.26 0.26 0.683 0 0.943l-2.667 2.667c-0.129 0.128-0.3 0.193-0.471 0.193z"></path>
<path  d="M21.668 28h-11.668c-0.368 0-0.667-0.299-0.667-0.667s0.299-0.667 0.667-0.667h11.668c0.368 0 0.667 0.299 0.667 0.667s-0.299 0.667-0.667 0.667z"></path>
</symbol>
<symbol id="icon-people" viewBox="0 0 32 32">
<path  d="M27.676 14.781c0.937-0.659 1.558-1.754 1.558-2.989 0-2.020-1.634-3.653-3.653-3.653s-3.653 1.634-3.653 3.653c0 1.235 0.614 2.33 1.558 2.989-0.804 0.279-1.539 0.709-2.159 1.266-0.855-0.728-1.861-1.285-2.963-1.615 1.336-0.81 2.235-2.286 2.235-3.964 0-2.558-2.070-4.628-4.628-4.628s-4.628 2.077-4.628 4.628c0 1.678 0.893 3.153 2.235 3.964-1.089 0.329-2.083 0.88-2.932 1.596-0.621-0.544-1.342-0.969-2.134-1.241 0.937-0.658 1.558-1.754 1.558-2.989 0-2.020-1.634-3.653-3.653-3.653s-3.653 1.634-3.653 3.653c0 1.235 0.614 2.33 1.558 2.989-2.514 0.867-4.318 3.254-4.318 6.059v0.418c0 0.013 0.013 0.025 0.025 0.025h7.744c-0.044 0.348-0.070 0.709-0.070 1.070v0.431c0 1.862 1.507 3.368 3.368 3.368h9.814c1.861 0 3.368-1.507 3.368-3.368v-0.431c0-0.361-0.025-0.722-0.070-1.070h7.794c0.013 0 0.025-0.013 0.025-0.025v-0.418c-0.013-2.811-1.811-5.198-4.324-6.066zM22.939 11.786c0-1.456 1.184-2.64 2.64-2.64s2.64 1.184 2.64 2.64c0 1.437-1.159 2.609-2.59 2.64-0.019 0-0.032 0-0.051 0s-0.032 0-0.051 0c-1.437-0.025-2.59-1.197-2.59-2.64zM12.34 10.469c0-1.994 1.621-3.615 3.615-3.615s3.615 1.621 3.615 3.615c0 1.925-1.513 3.501-3.406 3.609-0.070 0-0.139 0-0.209 0s-0.139 0-0.209 0c-1.893-0.108-3.406-1.684-3.406-3.609zM3.755 11.786c0-1.456 1.184-2.64 2.64-2.64s2.64 1.184 2.64 2.64c0 1.437-1.159 2.609-2.59 2.64-0.019 0-0.032 0-0.051 0s-0.032 0-0.051 0c-1.431-0.025-2.59-1.197-2.59-2.64zM7.946 20.271h-6.92c0.285-2.697 2.564-4.812 5.331-4.831 0.013 0 0.025 0 0.038 0s0.025 0 0.038 0c1.317 0.006 2.52 0.494 3.451 1.285-0.912 0.988-1.589 2.203-1.937 3.546zM23.224 22.791c0 1.298-1.057 2.355-2.355 2.355h-9.814c-1.298 0-2.355-1.057-2.355-2.355v-0.431c0-3.932 3.14-7.148 7.047-7.262 0.070 0.006 0.146 0.006 0.215 0.006s0.146 0 0.215-0.006c3.907 0.114 7.047 3.33 7.047 7.262v0.431zM23.978 20.271c-0.348-1.336-1.013-2.533-1.919-3.52 0.937-0.81 2.153-1.298 3.482-1.311 0.013 0 0.025 0 0.038 0s0.025 0 0.038 0c2.767 0.019 5.046 2.134 5.331 4.831h-6.971z"></path>
</symbol>
<symbol id="icon-price" viewBox="0 0 32 32">
<path  d="M26.667 23.059l-1.358-0.814c-0.414-0.248-0.888-0.378-1.37-0.379h-2.044c-0.419-0.001-0.835 0.053-1.24 0.16l-6.159 1.653c-0.673 0.186-1.214 0.688-1.45 1.345l-5.418-2.931c-0.439-0.25-0.954-0.335-1.45-0.24-0.187 0.033-0.369 0.093-0.539 0.177-0.385 0.184-0.705 0.482-0.916 0.853-0.185 0.323-0.282 0.689-0.282 1.061-0.006 0.76 0.397 1.464 1.054 1.845l9.71 5.81c0.422 0.261 0.908 0.399 1.404 0.399h7.515c0.336 0 0.668-0.063 0.98-0.187l1.565-0.618v0.805h5.333v-10.667h-5.333v1.726zM24.71 30.821c-0.187 0.074-0.386 0.112-0.587 0.112h-7.516c-0.301-0-0.595-0.085-0.85-0.244l-9.723-5.816c-0.33-0.191-0.533-0.545-0.53-0.926 0.001-0.187 0.050-0.371 0.143-0.533 0.106-0.184 0.266-0.332 0.458-0.423 0.085-0.041 0.174-0.070 0.267-0.086 0.067-0.012 0.136-0.019 0.204-0.019 0.183-0 0.364 0.047 0.523 0.139l5.875 3.174c0.007 0.033 0.007 0.065 0.015 0.097 0.253 0.931 1.097 1.578 2.062 1.579 0.297-0.027 0.591-0.080 0.879-0.157l5.541-1.483-0.275-1.030-5.523 1.476c-0.243 0.056-0.557 0.12-0.622 0.126-0.482 0.001-0.904-0.321-1.031-0.786-0.017-0.065-0.027-0.131-0.031-0.197 0 0-0.004-0.129 0-0.174 0.041-0.446 0.353-0.821 0.785-0.941l6.157-1.647c0.314-0.084 0.638-0.127 0.964-0.127h2.044c0.29 0 0.574 0.079 0.822 0.227l1.907 1.142v5.746l-1.957 0.773zM27.733 22.4h3.2v8.533h-3.2v-8.533z"></path>
<path  d="M21.997 4.267l-2.861-2.861c-0.898-0.903-2.12-1.41-3.394-1.406h-6.705c-0.414 0.001-0.822 0.097-1.192 0.281l-1.195 0.598c-0.24 0.121-0.506 0.178-0.774 0.167l-0.542-0.019v-1.028h-5.333v11.733h5.333v-1.6h0.907l0.323 0.213c0.903 0.599 1.954 0.938 3.037 0.978v6.809h22.4v-13.867h-10.003zM4.267 10.667h-3.2v-9.6h3.2v9.6zM7.153 9.459l-0.593-0.392h-1.227v-6.972l0.503 0.018c0.447 0.016 0.89-0.080 1.29-0.279l1.194-0.598c0.222-0.111 0.468-0.169 0.717-0.169h6.705c0.991-0.003 1.941 0.391 2.64 1.093l2.107 2.107h-4.401l-1.295-1.294-0.754 0.754 3.767 3.768c0.419 0.417 0.42 1.094 0.003 1.512s-1.094 0.42-1.512 0.003l-3.147-3.147-0.373 0.32c-1.031 0.876-2.538 0.898-3.595 0.053l-0.309-0.25-0.672 0.829 0.313 0.253c0.327 0.261 0.694 0.468 1.086 0.612v2.577c-0.873-0.039-1.719-0.315-2.447-0.798zM14.74 8.96l0.805 0.805c0.835 0.823 2.177 0.824 3.013 0.003-0.783 1.212-0.474 2.826 0.701 3.663s2.801 0.602 3.691-0.534c0.89-1.136 0.729-2.771-0.365-3.711s-2.735-0.854-3.724 0.196c0.364-0.572 0.429-1.285 0.175-1.914h7.142c0.229 1.342 1.28 2.393 2.622 2.622v2.222c-1.342 0.229-2.393 1.28-2.622 2.622h-10.755c-0.229-1.342-1.28-2.393-2.622-2.622v-2.222c0.762-0.128 1.452-0.53 1.94-1.129zM19.2 11.2c0-0.884 0.716-1.6 1.6-1.6s1.6 0.716 1.6 1.6c0 0.884-0.716 1.6-1.6 1.6s-1.6-0.716-1.6-1.6zM30.933 17.067h-20.267v-9.163c0.846 0.064 1.689-0.152 2.4-0.613l0.91 0.91c-0.4 0.544-1.035 0.865-1.71 0.867h-0.533v4.267h0.533c1.178 0 2.133 0.955 2.133 2.133v0.533h12.8v-0.533c0-1.178 0.955-2.133 2.133-2.133h0.533v-4.267h-0.533c-1.178 0-2.133-0.955-2.133-2.133v-0.533h-8.979l-1.067-1.067h13.779v11.733z"></path>
</symbol>
<symbol id="icon-solution" viewBox="0 0 32 32">
<path  d="M27 0.5h-7c-0.827 0-1.5 0.673-1.5 1.5v1c-1.103 0-2 0.897-2 2s0.897 2 2 2v2.5h4v-1c0-0.552 0.448-1 1-1s1 0.449 1 1v1h2.5c0.827 0 1.5-0.673 1.5-1.5v-6c0-0.827-0.673-1.5-1.5-1.5zM27.5 8c0 0.276-0.224 0.5-0.5 0.5h-1.5c0-1.103-0.897-2-2-2s-2 0.897-2 2h-2v-2.5h-1c-0.552 0-1-0.449-1-1s0.448-1 1-1h1v-2c0-0.276 0.224-0.5 0.5-0.5h7c0.276 0 0.5 0.224 0.5 0.5v6z"></path>
<path  d="M18.5 10.5c-1.103 0-2 0.897-2 2h-2v-2.5h-1c-0.552 0-1-0.448-1-1s0.448-1 1-1h1v-4.5h-1.341c-5.326 0-9.659 4.333-9.659 9.659 0 2.909 1.292 5.634 3.543 7.476l1.957 1.601v1.356c-0.58 0.207-1 0.757-1 1.408 0 0.691 0.473 1.27 1.11 1.442-0.069 0.172-0.11 0.36-0.11 0.558 0 0.661 0.432 1.217 1.027 1.416 0.207 1.734 1.684 3.083 3.473 3.083s3.266-1.349 3.473-3.083c0.595-0.2 1.027-0.756 1.027-1.416 0-0.198-0.041-0.385-0.11-0.558 0.637-0.173 1.11-0.75 1.11-1.442 0-0.651-0.42-1.201-1-1.408v-1.356l1.957-1.601c2.252-1.841 3.543-4.567 3.543-7.476v-0.659h-3c0-1.103-0.897-2-2-2zM13.159 4.5h0.34v2.5c-1.103 0-2 0.897-2 2s0.897 2 2 2v1.5h-2c0-1.103-0.897-2-2-2s-2 0.897-2 2h-2.975c0.338-4.468 4.082-8 8.634-8zM7.676 19.861c-1.931-1.579-3.074-3.882-3.169-6.361h3.993v-1c0-0.552 0.448-1 1-1s1 0.448 1 1v1h3v2c-1.103 0-2 0.897-2 2s0.897 2 2 2v4h-3.5v-1.737l-2.324-1.902zM13.5 30.5c-1.207 0-2.217-0.861-2.449-2h4.899c-0.232 1.139-1.242 2-2.45 2zM16.5 27.5h-6c-0.276 0-0.5-0.224-0.5-0.5s0.224-0.5 0.5-0.5h6c0.276 0 0.5 0.224 0.5 0.5s-0.224 0.5-0.5 0.5zM17.5 25.5h-8c-0.276 0-0.5-0.224-0.5-0.5s0.224-0.5 0.5-0.5h8c0.276 0 0.5 0.224 0.5 0.5s-0.224 0.5-0.5 0.5zM19.324 19.861l-2.324 1.902v1.737h-2.5v-5h-1c-0.552 0-1-0.448-1-1s0.448-1 1-1h1v-3h3v-1c0-0.552 0.448-1 1-1s1 0.448 1 1v1h2.993c-0.096 2.479-1.238 4.782-3.169 6.361z"></path>
</symbol>

<!-- Футер -->
<symbol id="icon-logo-white" viewBox="0 0 128 32">
<path fill="#fff" style="fill: var(--color2, #fff)" d="M4.873 22.604c0.445 0.091 0.783 0.271 1.015 0.539 0.232 0.262 0.347 0.606 0.347 1.033 0 0.555-0.198 0.981-0.594 1.28-0.39 0.299-0.966 0.448-1.728 0.448h-2.834v-6.4h2.661c0.683 0 1.216 0.14 1.6 0.421s0.576 0.686 0.576 1.216c0 0.36-0.091 0.664-0.274 0.914-0.183 0.244-0.439 0.427-0.768 0.549zM1.746 22.403h1.957c0.494 0 0.872-0.101 1.134-0.302 0.268-0.201 0.402-0.494 0.402-0.878s-0.134-0.677-0.402-0.878c-0.262-0.201-0.64-0.302-1.134-0.302h-1.957v2.359zM3.913 25.365c1.103 0 1.655-0.411 1.655-1.234 0-0.805-0.552-1.207-1.655-1.207h-2.167v2.441h2.167zM9.427 21.059c0.628 0 1.109 0.158 1.445 0.475 0.335 0.311 0.503 0.774 0.503 1.39v2.981h-0.622v-0.75c-0.146 0.25-0.363 0.445-0.649 0.585-0.28 0.14-0.616 0.21-1.006 0.21-0.536 0-0.963-0.128-1.28-0.384s-0.475-0.594-0.475-1.015c0-0.408 0.146-0.738 0.439-0.987 0.299-0.25 0.771-0.375 1.417-0.375h1.527v-0.293c0-0.414-0.116-0.728-0.347-0.942-0.232-0.219-0.57-0.329-1.015-0.329-0.305 0-0.597 0.052-0.878 0.155-0.28 0.098-0.521 0.235-0.722 0.411l-0.293-0.485c0.244-0.207 0.536-0.366 0.878-0.475 0.341-0.116 0.701-0.174 1.079-0.174zM9.198 25.438c0.366 0 0.68-0.082 0.942-0.247 0.262-0.171 0.457-0.414 0.585-0.731v-0.786h-1.509c-0.823 0-1.234 0.286-1.234 0.859 0 0.28 0.107 0.503 0.32 0.667 0.213 0.158 0.512 0.238 0.896 0.238zM19.74 21.096v4.809h-6.638v-4.809h0.649v4.242h2.359v-4.242h0.649v4.242h2.331v-4.242h0.649zM25.97 25.95c-0.463 0-0.881-0.104-1.253-0.311-0.372-0.213-0.664-0.506-0.878-0.878s-0.32-0.792-0.32-1.262c0-0.469 0.107-0.89 0.32-1.262s0.506-0.661 0.878-0.869c0.372-0.207 0.789-0.311 1.253-0.311s0.881 0.104 1.253 0.311c0.372 0.207 0.661 0.497 0.869 0.869 0.213 0.372 0.32 0.792 0.32 1.262s-0.107 0.89-0.32 1.262c-0.207 0.372-0.497 0.664-0.869 0.878-0.372 0.207-0.789 0.311-1.253 0.311zM25.97 25.374c0.341 0 0.646-0.076 0.914-0.229 0.274-0.158 0.488-0.381 0.64-0.667s0.229-0.613 0.229-0.978c0-0.366-0.076-0.692-0.229-0.978s-0.366-0.506-0.64-0.658c-0.268-0.158-0.573-0.238-0.914-0.238s-0.649 0.079-0.923 0.238c-0.268 0.152-0.482 0.372-0.64 0.658-0.152 0.286-0.229 0.613-0.229 0.978s0.076 0.692 0.229 0.978c0.158 0.286 0.372 0.509 0.64 0.667 0.274 0.152 0.582 0.229 0.923 0.229zM29.798 21.096h0.649v2.13h3.026v-2.13h0.649v4.809h-0.649v-2.121h-3.026v2.121h-0.649v-4.809zM39.9 21.096v4.809h-0.649v-4.233h-2.304l-0.064 1.189c-0.049 1-0.165 1.768-0.347 2.304s-0.509 0.805-0.978 0.805c-0.128 0-0.283-0.024-0.466-0.073l0.046-0.558c0.11 0.024 0.186 0.037 0.229 0.037 0.25 0 0.439-0.116 0.567-0.347s0.213-0.518 0.256-0.859c0.043-0.341 0.079-0.792 0.11-1.353l0.082-1.719h3.52zM43.4 21.059c0.628 0 1.109 0.158 1.445 0.475 0.335 0.311 0.503 0.774 0.503 1.39v2.981h-0.622v-0.75c-0.146 0.25-0.363 0.445-0.649 0.585-0.28 0.14-0.616 0.21-1.006 0.21-0.536 0-0.963-0.128-1.28-0.384s-0.475-0.594-0.475-1.015c0-0.408 0.146-0.738 0.439-0.987 0.299-0.25 0.771-0.375 1.417-0.375h1.527v-0.293c0-0.414-0.116-0.728-0.347-0.942-0.232-0.219-0.57-0.329-1.015-0.329-0.305 0-0.597 0.052-0.878 0.155-0.28 0.098-0.521 0.235-0.722 0.411l-0.293-0.485c0.244-0.207 0.536-0.366 0.878-0.475 0.341-0.116 0.701-0.174 1.079-0.174zM43.171 25.438c0.366 0 0.68-0.082 0.942-0.247 0.262-0.171 0.457-0.414 0.585-0.731v-0.786h-1.509c-0.823 0-1.234 0.286-1.234 0.859 0 0.28 0.107 0.503 0.32 0.667 0.213 0.158 0.512 0.238 0.896 0.238zM47.075 21.096h0.649v3.822l3.209-3.822h0.576v4.809h-0.649v-3.822l-3.2 3.822h-0.585v-4.809zM49.26 20.401c-0.414 0-0.744-0.104-0.987-0.311s-0.369-0.5-0.375-0.878h0.466c0.006 0.238 0.091 0.43 0.256 0.576 0.165 0.14 0.378 0.21 0.64 0.21s0.475-0.070 0.64-0.21c0.171-0.146 0.259-0.338 0.265-0.576h0.466c-0.006 0.378-0.134 0.67-0.384 0.878-0.244 0.207-0.573 0.311-0.987 0.311zM53.37 21.096h0.649v2.13h3.026v-2.13h0.649v4.809h-0.649v-2.121h-3.026v2.121h-0.649v-4.809zM64.41 21.059c0.451 0 0.859 0.104 1.225 0.311 0.366 0.201 0.652 0.488 0.859 0.859s0.311 0.795 0.311 1.271c0 0.482-0.104 0.908-0.311 1.28s-0.494 0.661-0.859 0.869c-0.36 0.201-0.768 0.302-1.225 0.302-0.39 0-0.744-0.079-1.061-0.238-0.311-0.165-0.567-0.402-0.768-0.713v2.679h-0.649v-6.583h0.622v0.951c0.195-0.317 0.451-0.561 0.768-0.731 0.323-0.171 0.686-0.256 1.088-0.256zM64.364 25.374c0.335 0 0.64-0.076 0.914-0.229 0.274-0.158 0.488-0.381 0.64-0.667 0.158-0.286 0.238-0.613 0.238-0.978s-0.079-0.689-0.238-0.969c-0.152-0.286-0.366-0.509-0.64-0.667s-0.579-0.238-0.914-0.238c-0.341 0-0.649 0.079-0.923 0.238-0.268 0.158-0.482 0.381-0.64 0.667-0.152 0.28-0.229 0.603-0.229 0.969s0.076 0.692 0.229 0.978c0.158 0.286 0.372 0.509 0.64 0.667 0.274 0.152 0.582 0.229 0.923 0.229zM72.406 23.701h-4.023c0.037 0.5 0.229 0.905 0.576 1.216 0.347 0.305 0.786 0.457 1.317 0.457 0.299 0 0.573-0.052 0.823-0.155 0.25-0.11 0.466-0.268 0.649-0.475l0.366 0.421c-0.213 0.256-0.482 0.451-0.805 0.585-0.317 0.134-0.667 0.201-1.051 0.201-0.494 0-0.933-0.104-1.317-0.311-0.378-0.213-0.674-0.506-0.887-0.878s-0.32-0.792-0.32-1.262c0-0.469 0.101-0.89 0.302-1.262 0.207-0.372 0.488-0.661 0.841-0.869 0.36-0.207 0.762-0.311 1.207-0.311s0.844 0.104 1.198 0.311c0.354 0.207 0.631 0.497 0.832 0.869 0.201 0.366 0.302 0.786 0.302 1.262l-0.009 0.201zM70.084 21.617c-0.463 0-0.853 0.149-1.17 0.448-0.311 0.293-0.488 0.677-0.53 1.152h3.41c-0.043-0.475-0.222-0.859-0.539-1.152-0.311-0.299-0.701-0.448-1.17-0.448zM78.862 25.338v1.774h-0.613v-1.207h-4.398v-4.809h0.649v4.242h2.935v-4.242h0.649v4.242h0.777zM84.308 23.701h-4.023c0.037 0.5 0.229 0.905 0.576 1.216 0.347 0.305 0.786 0.457 1.317 0.457 0.299 0 0.573-0.052 0.823-0.155 0.25-0.11 0.466-0.268 0.649-0.475l0.366 0.421c-0.213 0.256-0.482 0.451-0.805 0.585-0.317 0.134-0.667 0.201-1.051 0.201-0.494 0-0.933-0.104-1.317-0.311-0.378-0.213-0.674-0.506-0.887-0.878s-0.32-0.792-0.32-1.262c0-0.469 0.101-0.89 0.302-1.262 0.207-0.372 0.488-0.661 0.841-0.869 0.36-0.207 0.762-0.311 1.207-0.311s0.844 0.104 1.198 0.311c0.354 0.207 0.631 0.497 0.832 0.869 0.201 0.366 0.302 0.786 0.302 1.262l-0.009 0.201zM81.986 21.617c-0.463 0-0.853 0.149-1.17 0.448-0.311 0.293-0.488 0.677-0.53 1.152h3.41c-0.043-0.475-0.222-0.859-0.539-1.152-0.311-0.299-0.701-0.448-1.17-0.448zM85.754 21.096h0.649v2.13h3.026v-2.13h0.649v4.809h-0.649v-2.121h-3.026v2.121h-0.649v-4.809zM94.166 23.4c0.341 0.079 0.603 0.216 0.786 0.411 0.189 0.195 0.283 0.433 0.283 0.713s-0.098 0.53-0.293 0.75c-0.189 0.219-0.448 0.39-0.777 0.512-0.329 0.116-0.692 0.174-1.088 0.174-0.347 0-0.689-0.049-1.024-0.146-0.335-0.104-0.628-0.253-0.878-0.448l0.219-0.485c0.219 0.165 0.475 0.293 0.768 0.384s0.588 0.137 0.887 0.137c0.445 0 0.808-0.082 1.088-0.247 0.286-0.171 0.43-0.399 0.43-0.686 0-0.256-0.116-0.454-0.347-0.594-0.232-0.146-0.549-0.219-0.951-0.219h-0.823v-0.475h0.786c0.36 0 0.649-0.067 0.869-0.201 0.219-0.14 0.329-0.326 0.329-0.558 0-0.256-0.125-0.457-0.375-0.603-0.244-0.146-0.564-0.219-0.96-0.219-0.518 0-1.030 0.131-1.536 0.393l-0.183-0.503c0.573-0.299 1.167-0.448 1.783-0.448 0.366 0 0.695 0.055 0.987 0.165 0.299 0.104 0.53 0.253 0.695 0.448 0.171 0.195 0.256 0.421 0.256 0.677 0 0.244-0.085 0.46-0.256 0.649-0.165 0.189-0.39 0.329-0.677 0.421zM100.915 23.701h-4.023c0.037 0.5 0.229 0.905 0.576 1.216 0.347 0.305 0.786 0.457 1.317 0.457 0.299 0 0.573-0.052 0.823-0.155 0.25-0.11 0.466-0.268 0.649-0.475l0.366 0.421c-0.213 0.256-0.482 0.451-0.805 0.585-0.317 0.134-0.667 0.201-1.051 0.201-0.494 0-0.933-0.104-1.317-0.311-0.378-0.213-0.674-0.506-0.887-0.878s-0.32-0.792-0.32-1.262c0-0.469 0.101-0.89 0.302-1.262 0.207-0.372 0.488-0.661 0.841-0.869 0.36-0.207 0.762-0.311 1.207-0.311s0.844 0.104 1.198 0.311c0.354 0.207 0.631 0.497 0.832 0.869 0.201 0.366 0.302 0.786 0.302 1.262l-0.009 0.201zM98.593 21.617c-0.463 0-0.853 0.149-1.17 0.448-0.311 0.293-0.488 0.677-0.53 1.152h3.41c-0.043-0.475-0.222-0.859-0.539-1.152-0.311-0.299-0.701-0.448-1.17-0.448zM102.361 21.096h0.649v2.13h3.026v-2.13h0.649v4.809h-0.649v-2.121h-3.026v2.121h-0.649v-4.809zM111.913 21.672h-1.819v4.233h-0.649v-4.233h-1.819v-0.576h4.288v0.576z"></path>
<path fill="#28df99" style="fill: var(--color1, #28df99)" d="M128.001 24.397v-11.495c0-2.073-1.687-3.76-3.76-3.76s-3.759 1.687-3.759 3.76v11.495c-0.002 0.095 0.018 0.197 0.058 0.287l2.669 5.977h-16.049c-0.358 0-0.677-0.285-0.677-0.688 0-0.373 0.303-0.677 0.677-0.677h7.879c1.112 0 2.016-0.905 2.016-2.016s-0.904-2.016-2.016-2.016h-4.2c-0.37 0-0.67 0.3-0.67 0.67s0.299 0.67 0.67 0.67h4.2c0.373 0 0.677 0.304 0.677 0.677s-0.304 0.677-0.677 0.677h-7.879c-1.094 0-2.016 0.883-2.016 2.027 0 1.112 0.904 2.016 2.016 2.016h17.081c0.277 0 0.51-0.165 0.617-0.41l3.085-6.907c0.038-0.086 0.059-0.187 0.058-0.287zM125.651 26.531h-2.82l-0.648-1.451h4.116l-0.648 1.451zM124.241 29.688l-0.811-1.818h1.624l-0.812 1.818zM123.571 14.113v9.628h-1.75v-9.628h1.75zM126.661 14.113v9.628h-1.751v-9.628h1.751zM124.241 10.482c1.291 0 2.35 1.016 2.417 2.291h-4.834c0.068-1.275 1.125-2.291 2.417-2.291z"></path>
<path fill="#fff" style="fill: var(--color2, #fff)" d="M2.24 7.233v2.672h-1.563v-7.583h2.958c0.569 0 1.069 0.104 1.5 0.313 0.434 0.208 0.767 0.505 1 0.891 0.233 0.382 0.349 0.818 0.349 1.307 0 0.743-0.255 1.33-0.766 1.76-0.507 0.427-1.21 0.641-2.109 0.641h-1.37zM2.24 5.967h1.396c0.413 0 0.727-0.097 0.943-0.292 0.219-0.194 0.328-0.472 0.328-0.833 0-0.372-0.109-0.672-0.328-0.901s-0.521-0.347-0.906-0.354h-1.432v2.38zM12.125 6.618h-3v2.031h3.521v1.255h-5.083v-7.583h5.073v1.266h-3.51v1.807h3v1.224zM18.125 6.618h-3v2.031h3.521v1.255h-5.083v-7.583h5.073v1.266h-3.51v1.807h3v1.224zM22.37 7.129h-1.245v2.776h-1.563v-7.583h2.818c0.896 0 1.587 0.2 2.073 0.599s0.729 0.964 0.729 1.693c0 0.517-0.113 0.95-0.339 1.297-0.222 0.344-0.561 0.618-1.016 0.823l1.641 3.099v0.073h-1.677l-1.422-2.776zM21.125 5.863h1.26c0.392 0 0.696-0.099 0.911-0.297 0.215-0.201 0.323-0.477 0.323-0.828 0-0.358-0.102-0.639-0.307-0.844-0.201-0.205-0.512-0.307-0.932-0.307h-1.255v2.276zM31.839 7.129h-1.245v2.776h-1.563v-7.583h2.818c0.896 0 1.587 0.2 2.073 0.599s0.729 0.964 0.729 1.693c0 0.517-0.113 0.95-0.339 1.297-0.222 0.344-0.561 0.618-1.016 0.823l1.641 3.099v0.073h-1.677l-1.422-2.776zM30.594 5.863h1.26c0.392 0 0.696-0.099 0.911-0.297 0.215-0.201 0.323-0.477 0.323-0.828 0-0.358-0.102-0.639-0.307-0.844-0.201-0.205-0.512-0.307-0.932-0.307h-1.255v2.276zM40.406 6.618h-3v2.031h3.521v1.255h-5.083v-7.583h5.073v1.266h-3.51v1.807h3v1.224zM44.646 8.025l1.719-5.703h1.74l-2.641 7.583h-1.63l-2.63-7.583h1.734l1.708 5.703zM50.484 9.905h-1.562v-7.583h1.562v7.583zM56.5 6.618h-3v2.031h3.521v1.255h-5.083v-7.583h5.073v1.266h-3.51v1.807h3v1.224zM63.844 7.717l1.021-5.396h1.557l-1.682 7.583h-1.573l-1.234-5.073-1.234 5.073h-1.573l-1.682-7.583h1.557l1.026 5.385 1.25-5.385h1.323l1.245 5.396zM71.49 7.233v2.672h-1.563v-7.583h2.958c0.569 0 1.070 0.104 1.5 0.313 0.434 0.208 0.767 0.505 1 0.891 0.233 0.382 0.349 0.818 0.349 1.307 0 0.743-0.255 1.33-0.766 1.76-0.507 0.427-1.21 0.641-2.109 0.641h-1.37zM71.49 5.967h1.396c0.413 0 0.727-0.097 0.943-0.292 0.219-0.194 0.328-0.472 0.328-0.833 0-0.372-0.109-0.672-0.328-0.901s-0.521-0.347-0.906-0.354h-1.432v2.38zM79.62 7.129h-1.245v2.776h-1.563v-7.583h2.818c0.895 0 1.586 0.2 2.072 0.599s0.729 0.964 0.729 1.693c0 0.517-0.113 0.95-0.338 1.297-0.222 0.344-0.561 0.618-1.016 0.823l1.64 3.099v0.073h-1.677l-1.422-2.776zM78.375 5.863h1.26c0.392 0 0.696-0.099 0.912-0.297 0.215-0.201 0.323-0.477 0.323-0.828 0-0.358-0.103-0.639-0.308-0.844-0.201-0.205-0.512-0.307-0.932-0.307h-1.256v2.276zM89.854 6.285c0 0.747-0.133 1.401-0.396 1.964s-0.642 0.996-1.135 1.302c-0.49 0.306-1.052 0.458-1.688 0.458-0.629 0-1.189-0.151-1.682-0.453s-0.875-0.733-1.146-1.292c-0.27-0.563-0.408-1.208-0.411-1.938v-0.375c0-0.747 0.133-1.403 0.401-1.969 0.271-0.569 0.651-1.005 1.141-1.307 0.494-0.306 1.056-0.458 1.688-0.458s1.193 0.153 1.682 0.458c0.493 0.302 0.873 0.738 1.141 1.307 0.271 0.566 0.407 1.221 0.407 1.964v0.339zM88.27 5.941c0-0.795-0.142-1.399-0.427-1.813s-0.691-0.62-1.219-0.62c-0.524 0-0.929 0.205-1.213 0.615-0.285 0.406-0.429 1.003-0.433 1.792v0.37c0 0.774 0.142 1.375 0.427 1.802s0.694 0.641 1.229 0.641c0.524 0 0.927-0.205 1.208-0.615 0.281-0.413 0.424-1.014 0.427-1.802v-0.37zM94.047 2.321h1.562v5.25c0 0.483-0.107 0.91-0.323 1.281-0.212 0.368-0.512 0.653-0.901 0.854s-0.828 0.302-1.318 0.302c-0.802 0-1.427-0.203-1.875-0.609-0.447-0.41-0.671-0.988-0.671-1.734h1.573c0 0.372 0.078 0.646 0.235 0.823s0.402 0.266 0.739 0.266c0.299 0 0.536-0.102 0.714-0.307s0.266-0.497 0.266-0.875v-5.25zM101.51 6.618h-3v2.031h3.521v1.255h-5.083v-7.583h5.073v1.266h-3.51v1.807h3v1.224zM108.901 7.379c-0.059 0.816-0.361 1.458-0.907 1.927-0.542 0.469-1.257 0.703-2.146 0.703-0.972 0-1.738-0.326-2.297-0.979-0.555-0.656-0.834-1.556-0.834-2.698v-0.464c0-0.729 0.129-1.372 0.386-1.927s0.623-0.981 1.099-1.276c0.479-0.299 1.035-0.448 1.666-0.448 0.875 0 1.58 0.234 2.114 0.703s0.844 1.127 0.927 1.974h-1.562c-0.039-0.49-0.176-0.844-0.412-1.063-0.232-0.222-0.588-0.333-1.067-0.333-0.52 0-0.911 0.188-1.172 0.563-0.257 0.372-0.389 0.95-0.396 1.734v0.573c0 0.819 0.123 1.418 0.37 1.797 0.25 0.378 0.642 0.568 1.177 0.568 0.482 0 0.842-0.109 1.078-0.328 0.239-0.222 0.376-0.564 0.411-1.026h1.563zM115.479 3.587h-2.322v6.318h-1.563v-6.318h-2.292v-1.266h6.177v1.266z"></path>
</symbol>
</defs>
</svg>
