<svg aria-hidden="true" style="position: absolute; width: 0; height: 0; overflow: hidden;" version="1.1" xmlns="http://www.w3.org/2000/svg" xmlns:xlink="http://www.w3.org/1999/xlink">
<defs>
<symbol id="icon-form-feedback" viewBox="0 0 24 32">
<path fill="#00bfa6" style="fill: var(--color1, #00bfa6)" opacity="0.1" d="M19.022 12.090c-0.331-0.047-0.673-0.019-0.982 0.080-0.185 0.062-0.386 0.094-0.589 0.094s-0.404-0.032-0.589-0.094c-0.219-0.072-0.457-0.107-0.696-0.104s-0.475 0.046-0.69 0.124c-0.123 0.048-0.258 0.073-0.397 0.074-0.562 0-1.030-0.422-1.127-0.98 0.112-0.061 0.208-0.138 0.281-0.226 0.329-0.395 0.839-0.651 1.413-0.651s1.077 0.252 1.406 0.644c0.098 0.119 0.236 0.216 0.4 0.283s0.348 0.101 0.535 0.1h0.015c0.444-0.002 0.831 0.267 1.020 0.656z"></path>
<path fill="#00bfa6" style="fill: var(--color1, #00bfa6)" opacity="0.1" d="M20.733 10.339l-0.908 0.43 0.551-0.749c-0.156-0.093-0.349-0.145-0.549-0.146h-0.016c-0.063 0.001-0.126-0.003-0.188-0.011l-0.308 0.146 0.132-0.18c-0.218-0.057-0.407-0.163-0.539-0.305l-0.551 0.261 0.349-0.472c-0.147-0.141-0.333-0.257-0.547-0.337s-0.448-0.125-0.688-0.13c-0.574 0-1.084 0.255-1.413 0.652-0.098 0.119-0.235 0.216-0.399 0.282s-0.349 0.098-0.535 0.094h-0.030c-0.633 0-1.146 0.535-1.146 1.196s0.513 1.196 1.146 1.196c0.138-0.001 0.274-0.027 0.397-0.075 0.215-0.078 0.45-0.12 0.69-0.124s0.476 0.032 0.696 0.104c0.186 0.063 0.389 0.097 0.593 0.099 0.202-0 0.401-0.032 0.585-0.093 0.218-0.070 0.453-0.105 0.69-0.102s0.471 0.045 0.684 0.121c0.122 0.048 0.258 0.073 0.397 0.073 0.632 0 1.145-0.536 1.145-1.196 0.005-0.256-0.077-0.509-0.238-0.735z"></path>
<path fill="#00bfa6" style="fill: var(--color1, #00bfa6)" opacity="0.1" d="M22.11 3.54c-0.303-0.050-0.615-0.020-0.899 0.086-0.17 0.066-0.354 0.101-0.54 0.101s-0.37-0.034-0.54-0.101c-0.201-0.077-0.419-0.116-0.639-0.112s-0.436 0.049-0.633 0.134c-0.113 0.052-0.238 0.080-0.365 0.080-0.515 0-0.944-0.455-1.033-1.056 0.101-0.066 0.188-0.149 0.254-0.243 0.302-0.427 0.769-0.702 1.295-0.702s0.987 0.271 1.289 0.694c0.090 0.128 0.216 0.233 0.366 0.305s0.319 0.109 0.49 0.107h0.014c0.415-0.004 0.77 0.285 0.942 0.707z"></path>
<path fill="#28df99" style="fill: var(--color2, #28df99)" opacity="0.1" d="M23.68 1.654l-0.832 0.463 0.509-0.807c-0.143-0.1-0.32-0.155-0.504-0.157h-0.014c-0.057 0.001-0.114-0.003-0.17-0.011l-0.287 0.157 0.121-0.193c-0.2-0.061-0.373-0.176-0.494-0.329l-0.509 0.281 0.319-0.509c-0.295-0.311-0.693-0.502-1.131-0.502-0.526 0-0.993 0.274-1.295 0.701-0.089 0.128-0.215 0.232-0.366 0.304s-0.319 0.106-0.49 0.101h-0.028c-0.58 0-1.050 0.577-1.050 1.288s0.47 1.289 1.050 1.289c0.127-0.001 0.253-0.028 0.365-0.080 0.197-0.084 0.413-0.13 0.633-0.134s0.437 0.034 0.639 0.112c0.17 0.067 0.354 0.102 0.54 0.102s0.37-0.035 0.54-0.102c0.2-0.076 0.415-0.113 0.633-0.109s0.431 0.048 0.627 0.131c0.111 0.051 0.235 0.078 0.361 0.079 0.58 0 1.049-0.577 1.049-1.289 0.004-0.274-0.071-0.544-0.218-0.785z"></path>
<path fill="#00bfa6" style="fill: var(--color1, #00bfa6)" opacity="0.1" d="M5.579 4.428l0.866 0.452-0.526-0.786c0.149-0.098 0.333-0.152 0.523-0.154h0.014c0.060 0.001 0.12-0.003 0.18-0.010l0.293 0.152-0.126-0.188c0.207-0.060 0.387-0.172 0.512-0.32l0.525 0.274-0.327-0.497c0.14-0.148 0.317-0.269 0.521-0.354s0.427-0.131 0.655-0.136c0.545 0 1.032 0.267 1.345 0.684 0.093 0.124 0.224 0.226 0.38 0.296s0.331 0.104 0.509 0.099h0.030c0.601 0 1.090 0.563 1.090 1.256s-0.488 1.256-1.090 1.256c-0.132-0-0.261-0.027-0.377-0.078-0.205-0.082-0.429-0.127-0.657-0.131s-0.454 0.033-0.663 0.109c-0.177 0.067-0.369 0.103-0.564 0.104-0.192-0-0.383-0.033-0.559-0.097-0.207-0.074-0.431-0.11-0.656-0.107s-0.448 0.047-0.651 0.127c-0.116 0.050-0.246 0.077-0.378 0.077-0.603 0-1.091-0.562-1.091-1.256-0.006-0.269 0.071-0.535 0.223-0.773z"></path>
<path fill="#00bfa6" style="fill: var(--color1, #00bfa6)" opacity="0.1" d="M6.286 6.275c0.314-0.049 0.639-0.020 0.934 0.084 0.177 0.065 0.368 0.099 0.561 0.099s0.385-0.034 0.561-0.099c0.209-0.075 0.435-0.113 0.663-0.109s0.452 0.048 0.657 0.13c0.116 0.051 0.246 0.078 0.377 0.079 0.535 0 0.98-0.445 1.072-1.030-0.107-0.064-0.197-0.145-0.267-0.237-0.315-0.415-0.8-0.683-1.345-0.683s-1.026 0.263-1.34 0.676c-0.093 0.124-0.224 0.227-0.38 0.297s-0.331 0.107-0.508 0.105h-0.014c-0.424 0.002-0.794 0.283-0.971 0.689z"></path>
<path fill="#f2f2f2" style="fill: var(--color3, #f2f2f2)" d="M19.137 29.062c-0.005-0.006-0.010-0.012-0.015-0.019s-0.010-0.012-0.014-0.019-0.010-0.013-0.014-0.019-0.009-0.013-0.014-0.019c-0.008-0.182-0.008-0.363-0-0.542 0.007-0.178 0.023-0.354 0.045-0.527 0.022-0.172 0.052-0.342 0.089-0.509 0.037-0.166 0.081-0.328 0.131-0.488 0.006-0.018 0.012-0.037 0.018-0.055s0.012-0.036 0.018-0.054 0.012-0.036 0.019-0.054 0.013-0.036 0.020-0.054c0.049-0.133 0.103-0.263 0.162-0.39s0.121-0.248 0.189-0.367c0.067-0.118 0.139-0.232 0.215-0.343s0.155-0.216 0.239-0.318l0.013-0.016 0.027-0.032 0.013-0.016 0.010-0.011 0.010-0.011c0.003-0.004 0.007-0.007 0.010-0.011s0.007-0.007 0.010-0.011l0.008-0.004 0.008-0.004 0.008-0.004 0.008-0.004 0-0 0.002-0.001 0.003-0.002 0.003-0.002 0.003-0.002 0.003-0.002 0.014-0.007 0.014-0.007 0.014-0.007 0.014-0.007-0.036-0.018 0-0c0.002 0.001 0.005 0.002 0.007 0.003s0.004 0.002 0.007 0.003c0.002 0.001 0.005 0.002 0.007 0.003s0.004 0.002 0.007 0.003l0.003 0.001 0.005 0.002c0.001 0 0.002 0.001 0.003 0.001s0.002 0.001 0.002 0.001l0.004 0.002 0.002 0.001c0.095 0.043 0.19 0.087 0.283 0.133s0.186 0.094 0.276 0.146c0.090 0.051 0.176 0.107 0.26 0.168s0.162 0.126 0.236 0.198c0.078 0.076 0.148 0.16 0.208 0.25 0.060 0.089 0.109 0.184 0.146 0.285 0.036 0.095 0.058 0.196 0.064 0.297 0.006 0.098-0.008 0.196-0.041 0.288-0.004 0.012-0.009 0.024-0.014 0.036s-0.011 0.023-0.016 0.035c-0.006 0.011-0.012 0.023-0.018 0.034s-0.013 0.022-0.020 0.032c-0.003 0.004-0.006 0.009-0.009 0.013s-0.006 0.009-0.009 0.013c-0.003 0.004-0.006 0.008-0.010 0.013s-0.007 0.008-0.010 0.013c-0.062 0.078-0.141 0.141-0.231 0.184s-0.188 0.067-0.288 0.071c-0.105 0.004-0.21-0.011-0.309-0.045-0.107-0.036-0.206-0.092-0.292-0.164-0.030-0.025-0.058-0.051-0.085-0.079s-0.051-0.058-0.074-0.088c-0.023-0.031-0.043-0.063-0.062-0.096s-0.035-0.067-0.048-0.102c-0.007 0.109 0.010 0.218 0.050 0.32 0.042 0.107 0.098 0.208 0.168 0.3 0.074 0.098 0.155 0.189 0.244 0.273 0.090 0.086 0.185 0.166 0.279 0.24s0.191 0.15 0.285 0.228c0.094 0.077 0.184 0.16 0.268 0.248 0.082 0.085 0.155 0.178 0.216 0.278 0.061 0.099 0.105 0.207 0.13 0.321 0.027 0.123 0.026 0.251-0.004 0.374-0.014 0.060-0.035 0.118-0.061 0.173s-0.058 0.109-0.095 0.159l-0.003 0.005-0.003 0.005-0.003 0.005-0.004 0.005c-0.090 0.117-0.202 0.214-0.331 0.286-0.065 0.036-0.133 0.066-0.203 0.089-0.072 0.023-0.147 0.039-0.222 0.048-0.144 0.013-0.288 0.005-0.43-0.025-0.145-0.030-0.287-0.077-0.421-0.14-0.139-0.065-0.272-0.142-0.397-0.231-0.126-0.089-0.246-0.187-0.357-0.294-0.030-0.028-0.059-0.057-0.088-0.086s-0.057-0.059-0.084-0.089c-0.028-0.030-0.055-0.061-0.081-0.092s-0.052-0.063-0.077-0.095z"></path>
<path fill="#fff" style="fill: var(--color4, #fff)" d="M21.446 26.948c-0.089-0.046-0.174-0.098-0.255-0.156-0.162-0.116-0.307-0.254-0.431-0.411-0.061-0.078-0.117-0.16-0.166-0.246-0.041-0.072-0.077-0.147-0.109-0.224-0.031-0.075-0.057-0.152-0.078-0.231-0.020-0.077-0.036-0.155-0.045-0.233-0.010-0.077-0.014-0.155-0.013-0.232 0-0.004 0-0.009 0-0.013s0-0.009 0-0.013c0-0.004 0-0.009 0-0.013l0.001-0.013c-0.004 0.003-0.007 0.006-0.011 0.009l-0.011 0.009-0.011 0.009-0.025 0.021-0.007 0.006-0.007 0.006 0.010-0.011 0.010-0.012c0.003-0.004 0.007-0.007 0.010-0.011s0.007-0.007 0.010-0.011l0.008-0.004 0.008-0.004 0.008-0.004 0.008-0.004 0-0 0-0 0-0 0-0 0.003-0.002 0.003-0.002 0.003-0.002 0.003-0.002 0.014-0.007 0.014-0.007 0.014-0.007 0.014-0.007-0.011-0.005-0.026-0.013 0-0c0.002 0.001 0.005 0.002 0.007 0.003s0.004 0.002 0.007 0.003c0.002 0.001 0.004 0.002 0.007 0.003s0.004 0.002 0.007 0.003l0.003 0.001 0.003 0.001 0.003 0.001c0.001 0 0.002 0.001 0.003 0.001l-0 0.004-0 0.004-0 0.004-0 0.004c-0.010 0.131-0.003 0.262 0.020 0.392 0.024 0.133 0.063 0.263 0.116 0.387 0.055 0.128 0.124 0.25 0.206 0.364 0.084 0.118 0.181 0.226 0.288 0.323s0.226 0.181 0.352 0.253c0.062 0.035 0.126 0.068 0.192 0.096s0.131 0.053 0.199 0.075c-0.003 0.004-0.006 0.009-0.009 0.013s-0.006 0.009-0.009 0.013c-0.003 0.004-0.006 0.008-0.010 0.013s-0.007 0.008-0.010 0.013c-0.026-0.009-0.052-0.018-0.078-0.027s-0.051-0.020-0.077-0.031-0.051-0.022-0.076-0.034-0.050-0.024-0.075-0.037z"></path>
<path fill="#fff" style="fill: var(--color4, #fff)" d="M19.689 27.926c-0.029-0.043-0.057-0.087-0.082-0.132s-0.050-0.090-0.072-0.137c-0.022-0.046-0.043-0.093-0.062-0.14s-0.036-0.095-0.052-0.143c-0.008-0.026-0.015-0.051-0.022-0.077s-0.013-0.051-0.018-0.077-0.010-0.052-0.014-0.078c-0.004-0.026-0.008-0.052-0.011-0.078-0.001-0.012-0.003-0.024-0.004-0.036s-0.002-0.024-0.003-0.036c-0.001-0.012-0.002-0.024-0.002-0.036s-0.001-0.024-0.002-0.036c0.006-0.018 0.012-0.037 0.018-0.055s0.012-0.036 0.018-0.055c0.006-0.018 0.012-0.036 0.019-0.054s0.013-0.036 0.020-0.054c-0.001 0.015-0.003 0.030-0.004 0.045s-0.002 0.030-0.002 0.045c-0.001 0.015-0.001 0.030-0.001 0.045s-0 0.030 0 0.046c0 0.008 0 0.017 0 0.025s0 0.017 0.001 0.025c0 0.008 0.001 0.017 0.001 0.025s0.001 0.017 0.002 0.025c0.006 0.093 0.021 0.185 0.044 0.276 0.023 0.091 0.053 0.181 0.090 0.268 0.037 0.089 0.081 0.175 0.129 0.258 0.049 0.084 0.103 0.166 0.162 0.245 0.063 0.085 0.129 0.167 0.199 0.248s0.143 0.159 0.218 0.234c0.075 0.076 0.153 0.149 0.233 0.221s0.161 0.14 0.244 0.206c0.085 0.068 0.171 0.134 0.259 0.196s0.177 0.123 0.268 0.18c0.091 0.057 0.183 0.112 0.276 0.164s0.188 0.101 0.284 0.146c0.004 0.002 0.008 0.005 0.012 0.009s0.006 0.008 0.008 0.012c0.002 0.004 0.003 0.009 0.003 0.014s-0 0.009-0.002 0.014c-0 0.002-0.001 0.004-0.002 0.006s-0.002 0.003-0.003 0.005c-0.001 0.002-0.003 0.003-0.004 0.004s-0.003 0.002-0.005 0.003c-0.002 0.001-0.004 0.001-0.006 0.002s-0.004 0-0.006 0-0.004-0-0.006-0.001-0.004-0.001-0.006-0.003c-0.012-0.006-0.024-0.011-0.035-0.017s-0.024-0.011-0.035-0.017-0.024-0.012-0.035-0.017-0.023-0.012-0.035-0.018c-0.098-0.050-0.194-0.103-0.288-0.159s-0.188-0.115-0.28-0.176c-0.092-0.062-0.182-0.126-0.271-0.194s-0.175-0.137-0.26-0.21c-0.082-0.070-0.163-0.142-0.242-0.217s-0.156-0.152-0.23-0.231c-0.074-0.080-0.145-0.162-0.213-0.246s-0.131-0.171-0.19-0.261z"></path>
<path fill="#2f2e41" style="fill: var(--color5, #2f2e41)" d="M21.525 20.98l-0.070 0.009 0.468-1.752c0.035-0.117 0.040-0.241 0.016-0.36-0.021-0.098-0.072-0.187-0.146-0.254-0.078-0.067-0.173-0.111-0.274-0.127-0.124-0.019-0.25-0.013-0.371 0.017l-3.181 0.723c-0.111 0.027-0.217 0.070-0.315 0.129-0.106 0.063-0.205 0.138-0.295 0.223-0.092 0.087-0.175 0.183-0.247 0.287-0.070 0.101-0.128 0.21-0.171 0.325l-3.328 9.131c-0.055 0.15-0.091 0.307-0.107 0.466-0.015 0.141-0.008 0.284 0.020 0.423 0.023 0.121 0.072 0.236 0.144 0.336 0.065 0.092 0.157 0.161 0.264 0.198l3.361 1.154c0.149 0.051 0.31 0.060 0.464 0.028 0.165-0.036 0.32-0.107 0.455-0.209 0.151-0.113 0.281-0.252 0.384-0.41 0.114-0.174 0.199-0.365 0.252-0.565l2.253-8.435 0.071-0.006 0.354-1.331z"></path>
<path fill="#3f3d56" style="fill: var(--color6, #3f3d56)" d="M21.282 20.883l-0.070 0.009 0.468-1.752c0.035-0.117 0.040-0.241 0.016-0.36-0.021-0.098-0.072-0.186-0.146-0.254-0.078-0.067-0.173-0.111-0.274-0.127-0.124-0.019-0.25-0.013-0.371 0.017l-3.181 0.723c-0.111 0.027-0.217 0.070-0.315 0.129-0.106 0.063-0.205 0.138-0.295 0.223-0.092 0.087-0.175 0.183-0.247 0.287-0.070 0.101-0.128 0.21-0.171 0.325l-3.328 9.131c-0.055 0.15-0.091 0.307-0.107 0.466-0.015 0.141-0.008 0.284 0.020 0.423 0.023 0.121 0.072 0.236 0.144 0.336 0.065 0.092 0.157 0.161 0.264 0.198l3.361 1.154c0.149 0.051 0.31 0.060 0.464 0.028 0.165-0.036 0.32-0.107 0.455-0.209 0.151-0.113 0.281-0.252 0.384-0.41 0.114-0.174 0.199-0.365 0.252-0.565l2.253-8.435 0.071-0.006 0.354-1.331z"></path>
<path fill="#fff" style="fill: var(--color4, #fff)" d="M20.877 18.644l-0.468 0.102c0.005 0.040 0.001 0.081-0.012 0.12-0.015 0.045-0.036 0.088-0.063 0.127-0.061 0.089-0.142 0.161-0.237 0.212-0.011 0.006-0.023 0.012-0.034 0.017s-0.023 0.010-0.034 0.014c-0.011 0.004-0.022 0.008-0.033 0.011s-0.022 0.006-0.033 0.008l-1.828 0.369c-0.034 0.008-0.069 0.007-0.103-0.001-0.027-0.007-0.051-0.023-0.068-0.046-0.017-0.024-0.027-0.053-0.028-0.082-0.001-0.038 0.005-0.075 0.018-0.11 0.003-0.010 0.007-0.019 0.011-0.029s0.009-0.019 0.014-0.029c0.005-0.010 0.010-0.019 0.016-0.029s0.012-0.019 0.018-0.029l-0.346 0.076c-0.083 0.020-0.163 0.052-0.237 0.096-0.080 0.047-0.155 0.103-0.223 0.167-0.070 0.065-0.132 0.138-0.186 0.217-0.053 0.076-0.096 0.158-0.128 0.245l-3.322 9.21c-0.041 0.113-0.068 0.231-0.079 0.351-0.010 0.106-0.004 0.213 0.018 0.317 0.018 0.090 0.056 0.175 0.11 0.249 0.050 0.067 0.119 0.118 0.199 0.144l3.386 1.097c0.112 0.036 0.231 0.041 0.345 0.015 0.122-0.028 0.236-0.081 0.336-0.157 0.111-0.084 0.207-0.186 0.283-0.303 0.084-0.128 0.147-0.269 0.187-0.417l3.093-11.386c0.026-0.087 0.031-0.179 0.014-0.268-0.015-0.073-0.052-0.14-0.106-0.191-0.057-0.051-0.127-0.085-0.203-0.098-0.092-0.015-0.187-0.012-0.278 0.010z"></path>
<path fill="#fff" style="fill: var(--color4, #fff)" d="M19.062 23.006h-6.735v-2.276h6.735v2.276z"></path>
<path fill="#fff" style="fill: var(--color4, #fff)" d="M17.092 23.809h-6.601v3.192h6.601v-3.192z"></path>
<path fill="#00bfa6" style="fill: var(--color1, #00bfa6)" d="M11.564 25.342c0.264 0 0.477-0.213 0.477-0.476s-0.214-0.476-0.477-0.476-0.477 0.213-0.477 0.476c0 0.263 0.214 0.476 0.477 0.476z"></path>
<path fill="#e6e6e6" style="fill: var(--color7, #e6e6e6)" d="M12.667 24.548c-0.021 0-0.041 0.008-0.056 0.023s-0.023 0.035-0.023 0.056c0 0.021 0.008 0.041 0.023 0.056s0.035 0.023 0.056 0.023h3.751c0.021-0 0.041-0.008 0.056-0.023s0.023-0.035 0.023-0.056-0.008-0.041-0.023-0.056c-0.015-0.015-0.035-0.023-0.056-0.023h-3.751z"></path>
<path fill="#e6e6e6" style="fill: var(--color7, #e6e6e6)" d="M12.667 25.024c-0.010 0-0.021 0.002-0.030 0.006s-0.018 0.010-0.026 0.017c-0.007 0.007-0.013 0.016-0.017 0.026s-0.006 0.020-0.006 0.030c0 0.010 0.002 0.021 0.006 0.030s0.010 0.018 0.017 0.026c0.007 0.007 0.016 0.013 0.026 0.017s0.020 0.006 0.030 0.006h1.615c0.010 0 0.021-0.002 0.030-0.006s0.018-0.010 0.026-0.017c0.007-0.007 0.013-0.016 0.017-0.026s0.006-0.020 0.006-0.030-0.002-0.021-0.006-0.030c-0.004-0.010-0.010-0.018-0.017-0.026s-0.016-0.013-0.026-0.017c-0.010-0.004-0.020-0.006-0.030-0.006h-1.614z"></path>
<path fill="#e6e6e6" style="fill: var(--color7, #e6e6e6)" d="M11.198 25.786c-0.061 0-0.11 0.036-0.11 0.079s0.049 0.079 0.11 0.079h5.176c0.061 0 0.11-0.036 0.11-0.079s-0.049-0.079-0.11-0.079h-5.176z"></path>
<path fill="#e6e6e6" style="fill: var(--color7, #e6e6e6)" d="M11.198 26.262c-0.061 0-0.11 0.036-0.11 0.079s0.049 0.079 0.11 0.079h3.984c0.060 0 0.11-0.036 0.11-0.079s-0.049-0.079-0.11-0.079h-3.984z"></path>
<path fill="#e6e6e6" style="fill: var(--color7, #e6e6e6)" d="M17.16 27.068h-6.735v-3.325h6.735v3.325zM10.559 26.934h6.467v-3.058h-6.467v3.058z"></path>
<path fill="#00bfa6" style="fill: var(--color1, #00bfa6)" d="M13.466 22.329c0.264 0 0.477-0.213 0.477-0.476s-0.214-0.476-0.477-0.476-0.477 0.213-0.477 0.476c0 0.263 0.214 0.476 0.477 0.476z"></path>
<path fill="#e6e6e6" style="fill: var(--color7, #e6e6e6)" d="M14.569 21.535c-0.021 0-0.041 0.008-0.056 0.023s-0.023 0.035-0.023 0.056 0.008 0.041 0.023 0.056c0.015 0.015 0.035 0.023 0.056 0.023h3.751c0.021-0 0.041-0.008 0.056-0.023s0.023-0.035 0.023-0.056-0.008-0.041-0.023-0.056c-0.015-0.015-0.035-0.023-0.056-0.023h-3.751z"></path>
<path fill="#e6e6e6" style="fill: var(--color7, #e6e6e6)" d="M14.569 22.012c-0.010 0-0.021 0.002-0.030 0.006s-0.018 0.010-0.026 0.017c-0.007 0.007-0.013 0.016-0.017 0.026s-0.006 0.020-0.006 0.030c-0 0.010 0.002 0.021 0.006 0.030s0.010 0.018 0.017 0.026c0.007 0.007 0.016 0.013 0.026 0.017s0.020 0.006 0.030 0.006h2.952c0.021 0 0.041-0.008 0.056-0.023s0.023-0.035 0.023-0.056-0.008-0.041-0.023-0.056c-0.015-0.015-0.035-0.023-0.056-0.023h-2.952z"></path>
<path fill="#e6e6e6" style="fill: var(--color7, #e6e6e6)" d="M19.062 23.006h-6.735v-2.276h6.735v2.276zM12.461 22.872h6.467v-2.009h-6.467v2.009z"></path>
<path fill="#ffb6b6" style="fill: var(--color8, #ffb6b6)" d="M5.828 31.678h0.34l0.162-1.306-0.501 0 0 1.306z"></path>
<path fill="#2f2e41" style="fill: var(--color5, #2f2e41)" d="M6.822 31.992l-1.067 0v-0.411l0.705-0c0.096 0 0.188 0.038 0.256 0.106s0.106 0.16 0.106 0.255v0.050z"></path>
<path fill="#ffb6b6" style="fill: var(--color8, #ffb6b6)" d="M2.433 31.239l0.297 0.163 0.772-1.067-0.439-0.241-0.631 1.145z"></path>
<path fill="#2f2e41" style="fill: var(--color5, #2f2e41)" d="M3.152 31.992l-0.935-0.513 0.199-0.36 0.618 0.339c0.084 0.046 0.146 0.124 0.173 0.216s0.016 0.191-0.030 0.275l-0.024 0.044z"></path>
<path fill="#2f2e41" style="fill: var(--color5, #2f2e41)" d="M5.812 30.953c-0.030-0-0.059-0.011-0.082-0.031s-0.037-0.047-0.041-0.077l-0.425-3.264c-0.002-0.014-0.008-0.028-0.018-0.039s-0.023-0.018-0.037-0.020-0.029-0.001-0.042 0.005c-0.013 0.006-0.024 0.016-0.031 0.029l-1.77 3.202c-0.015 0.026-0.038 0.046-0.066 0.057s-0.059 0.010-0.087-0l-0.386-0.147c-0.015-0.006-0.030-0.015-0.042-0.026s-0.022-0.025-0.028-0.040-0.010-0.032-0.010-0.048c-0-0.017 0.003-0.033 0.009-0.048l1.226-3.004c0.003-0.008 0.005-0.016 0.006-0.024 0.166-1.282 0.588-1.934 0.714-2.103 0.009-0.012 0.015-0.027 0.018-0.042s0.001-0.031-0.004-0.045l-0.017-0.052c-0.007-0.020-0.008-0.042-0.004-0.064s0.014-0.041 0.028-0.057c0.452-0.514 1.241-0.233 1.248-0.231l0.004 0.001 0.002 0.003c0.884 1.209 0.557 5.136 0.483 5.911-0.003 0.029-0.016 0.056-0.037 0.077s-0.048 0.033-0.078 0.035l-0.523 0.040c-0.003 0-0.006 0-0.010 0z"></path>
<path fill="#ffb8b8" style="fill: var(--color9, #ffb8b8)" d="M5.572 21.884c0.417 0 0.756-0.337 0.756-0.754s-0.338-0.754-0.756-0.754-0.756 0.337-0.756 0.754c0 0.416 0.338 0.754 0.756 0.754z"></path>
<path fill="#00bfa6" style="fill: var(--color1, #00bfa6)" d="M4.404 25.926l2.223 0.202c-0.194-0.672-0.371-1.342-0.227-2.010 0.184-0.596 0.201-0.926-0.284-1.207l-0.327-0.729-0.593-0.021-0.289-0.079c-0.233 0.374-0.329 0.818-0.27 1.255 0.126 0.95 0.092 1.832-0.234 2.588z"></path>
<path fill="#2f2e41" style="fill: var(--color5, #2f2e41)" d="M4.742 22.563l-0.224-1.024c-0.047-0.242-0.035-0.492 0.034-0.729 0.008-0.024 0.017-0.048 0.027-0.071 0.062-0.135 0.159-0.25 0.282-0.334s0.265-0.133 0.413-0.142c0.508-0.035 0.583 0.018 0.601 0.045 0.287-0.012 0.51 0.099 0.612 0.304 0.010 0.020 0.015 0.043 0.016 0.065s-0.004 0.045-0.013 0.066c-0.009 0.021-0.023 0.039-0.040 0.054s-0.037 0.026-0.059 0.032c-0.142 0.041-0.341 0.086-0.491 0.073-0.3 0.359-0.177 1.016 0.127 1.408l0.012 0.015-0.301 0.062-0.35-0.487c-0.007-0.010-0.017-0.017-0.028-0.020s-0.024-0.002-0.035 0.003c-0.011 0.005-0.020 0.013-0.025 0.024s-0.007 0.023-0.005 0.034l0.106 0.515-0.658 0.107z"></path>
<path fill="#cacaca" style="fill: var(--color10, #cacaca)" d="M21.083 32h-21.083v-0.053h21.092l-0.010 0.053z"></path>
<path fill="#fff" style="fill: var(--color4, #fff)" d="M9.060 25.32l-5.499 3.879-1.318-1.859 5.499-3.879 1.318 1.859z"></path>
<path fill="#00bfa6" style="fill: var(--color1, #00bfa6)" d="M4.1 27.99c0.215-0.152 0.266-0.449 0.114-0.664s-0.45-0.266-0.665-0.114c-0.215 0.152-0.266 0.449-0.114 0.664s0.45 0.266 0.666 0.114z"></path>
<path fill="#e6e6e6" style="fill: var(--color7, #e6e6e6)" d="M4.541 26.707c-0.017 0.012-0.029 0.031-0.032 0.051s0.001 0.042 0.013 0.059c0.012 0.017 0.031 0.029 0.052 0.032s0.042-0.001 0.059-0.013l3.063-2.16c0.017-0.012 0.029-0.031 0.032-0.051s-0.001-0.042-0.013-0.059c-0.012-0.017-0.031-0.029-0.051-0.032s-0.042 0.001-0.059 0.013l-3.063 2.161z"></path>
<path fill="#e6e6e6" style="fill: var(--color7, #e6e6e6)" d="M4.816 27.096c-0.017 0.012-0.029 0.031-0.033 0.051s0.001 0.042 0.013 0.059c0.012 0.017 0.031 0.029 0.051 0.032s0.042-0.001 0.059-0.013l0-0 2.41-1.7c0.017-0.012 0.029-0.031 0.032-0.051s-0.001-0.042-0.013-0.059c-0.006-0.008-0.014-0.016-0.023-0.021s-0.019-0.009-0.029-0.011c-0.021-0.004-0.042 0.001-0.059 0.013l-2.41 1.7z"></path>
<path fill="#e6e6e6" style="fill: var(--color7, #e6e6e6)" d="M9.060 25.32l-5.499 3.879-1.318-1.859 5.499-3.879 1.318 1.859zM3.594 29.012l5.28-3.724-1.163-1.64-5.28 3.724 1.163 1.64z"></path>
<path fill="#f2f2f2" style="fill: var(--color3, #f2f2f2)" d="M21.617 24.632c0.019-0.001 0.039 0.003 0.057 0.010s0.033 0.017 0.046 0.030c0.013 0.013 0.023 0.029 0.030 0.046s0.010 0.038 0.009 0.058c-0.001 0.020-0.006 0.040-0.014 0.058s-0.020 0.035-0.034 0.049c-0.014 0.014-0.030 0.025-0.048 0.033s-0.038 0.013-0.058 0.013c-0.020 0.001-0.039-0.003-0.057-0.010s-0.033-0.017-0.046-0.031c-0.013-0.013-0.023-0.029-0.030-0.046-0.007-0.018-0.010-0.038-0.009-0.058s0.006-0.040 0.014-0.058c0.008-0.018 0.019-0.034 0.033-0.048s0.030-0.025 0.048-0.033c0.018-0.008 0.038-0.013 0.058-0.013z"></path>
<path fill="#ffb8b8" style="fill: var(--color9, #ffb8b8)" d="M6.157 26.522l-0.358-1.95 0.025-1.206-0.806-0.025 0.151 1.357 0.521 1.881c-0.043 0.052-0.070 0.117-0.076 0.184s0.008 0.136 0.041 0.195 0.083 0.108 0.143 0.139c0.061 0.031 0.129 0.043 0.197 0.035s0.131-0.037 0.182-0.081 0.088-0.104 0.105-0.169c0.017-0.066 0.015-0.135-0.008-0.199s-0.064-0.12-0.118-0.16v0z"></path>
<path fill="#00bfa6" style="fill: var(--color1, #00bfa6)" d="M4.968 23.467c0.292-0.111 0.615-0.111 0.907 0l-0.050-1.005c0-0.053-0.010-0.105-0.031-0.154s-0.050-0.093-0.087-0.13c-0.037-0.037-0.082-0.067-0.131-0.087s-0.101-0.031-0.154-0.031-0.105 0.010-0.154 0.031c-0.049 0.020-0.093 0.050-0.131 0.087s-0.067 0.082-0.087 0.13-0.031 0.101-0.031 0.154l-0.050 1.005z"></path>
</symbol>
</defs>
</svg>
